<svg width="19" height="28" viewBox="0 0 19 28" fill="none" xmlns="http://www.w3.org/2000/svg">
<g clip-path="url(#clip0_729_498)">
<path d="M-489.955 2.21654V27.0001H-493.788V2.21654H-489.955ZM-480.729 1.30404V27.0001H-484.343V1.30404H-480.729ZM-466.037 12.5461H-469.341V9.48006H-465.982V7.58206C-465.982 3.53055 -463.464 0.93904 -459.193 0.93904C-457.642 0.93904 -456.602 1.41354 -456.292 1.57779L-456.675 4.5708C-457.168 4.3518 -458.117 4.11455 -459.029 4.11455C-461.383 4.11455 -462.478 5.24605 -462.478 7.78281V9.48006H-457.314V12.5461H-462.424V27.0001H-466.037V12.5461ZM-454.603 9.48006H-450.99V19.3533C-450.99 22.2551 -449.402 23.9341 -446.719 23.9341C-443.963 23.9341 -441.792 22.2551 -441.792 19.3533V9.48006H-438.178V27.0001H-441.81V24.7918C-442.394 25.6861 -444.055 27.3651 -447.285 27.3651C-452.066 27.3651 -454.603 24.3721 -454.603 20.1198V9.48006ZM-431.927 12.5461H-435.048V9.48006H-431.872V3.85905H-428.35V9.48006H-422.784V12.5461H-428.314V21.3061C-428.314 23.1676 -427.237 24.0983 -425.448 24.0983C-424.609 24.0983 -423.459 23.8611 -422.601 23.4961L-422.127 26.5986C-423.003 27.0549 -424.554 27.3651 -425.959 27.3651C-429.628 27.3651 -431.927 25.3028 -431.927 21.7441V12.5461ZM-419.325 9.48006H-415.712V19.3533C-415.712 22.2551 -414.124 23.9341 -411.441 23.9341C-408.685 23.9341 -406.514 22.2551 -406.514 19.3533V9.48006H-402.9V27.0001H-406.532V24.7918C-407.116 25.6861 -408.777 27.3651 -412.007 27.3651C-416.788 27.3651 -419.325 24.3721 -419.325 20.1198V9.48006ZM-394.076 27.0001H-397.708V9.48006H-394.076V11.8708C-393.091 9.95457 -391.43 9.11506 -389.514 9.11506C-388.145 9.11506 -387.105 9.55306 -387.105 9.55306L-387.488 12.8746C-387.689 12.8016 -388.474 12.4731 -389.623 12.4731C-391.558 12.4731 -394.076 13.4951 -394.076 17.4553V27.0001ZM-376.711 27.3651C-382.04 27.3651 -386.019 23.3683 -386.019 18.2401C-386.019 13.1118 -382.04 9.11506 -376.711 9.11506C-371.382 9.11506 -367.403 13.1118 -367.403 18.2401C-367.403 23.3683 -371.382 27.3651 -376.711 27.3651ZM-382.405 18.2401C-382.405 21.4703 -380.014 23.9706 -376.711 23.9706C-373.408 23.9706 -371.017 21.4703 -371.017 18.2401C-371.017 15.0098 -373.408 12.5096 -376.711 12.5096C-380.014 12.5096 -382.405 15.0098 -382.405 18.2401ZM-356.58 18.1488C-356.58 12.7651 -352.766 9.11506 -347.784 9.11506C-344.809 9.11506 -342.838 10.2101 -341.542 11.8708V1.30404H-337.929V27.0001H-341.542V24.6093C-342.838 26.2701 -344.809 27.3651 -347.784 27.3651C-352.766 27.3651 -356.58 23.5326 -356.58 18.1488ZM-347.346 12.3636C-350.722 12.3636 -352.967 14.9186 -352.967 18.1488C-352.967 21.3791 -350.722 24.1166 -347.346 24.1166C-343.97 24.1166 -341.561 21.3791 -341.561 18.1488C-341.561 14.9186 -343.988 12.3636 -347.346 12.3636ZM-334.014 18.2583C-334.014 13.0388 -330.273 9.11506 -324.962 9.11506C-319.852 9.11506 -316.53 12.9111 -316.53 17.6013C-316.53 18.1488 -316.567 18.7146 -316.676 19.2803H-330.273C-330.108 21.9083 -327.864 23.9706 -324.834 23.9706C-322.644 23.9706 -320.892 23.0398 -319.578 20.9776L-316.914 22.9121C-318.538 25.8321 -321.732 27.3651 -324.834 27.3651C-330.127 27.3651 -334.014 23.4596 -334.014 18.2583ZM-330.181 16.5793H-320.199C-320.418 14.1156 -322.48 12.3818 -324.998 12.3818C-327.681 12.3818 -329.725 14.1156 -330.181 16.5793ZM-308.984 1.30404V27.0001H-312.597V1.30404H-308.984ZM-300.196 1.30404V27.0001H-303.809V1.30404H-300.196ZM-296.19 22.0178C-296.19 18.7328 -293.051 16.4698 -288.452 16.4698C-286.353 16.4698 -284.838 16.9078 -284.035 17.2911V16.3421C-284.035 14.1521 -285.805 12.5096 -288.525 12.5096C-290.696 12.5096 -292.503 13.7506 -293.543 14.9368L-295.825 12.6738C-294.474 10.9583 -291.664 9.11506 -288.47 9.11506C-283.542 9.11506 -280.422 11.7796 -280.422 16.0318V27.0001H-283.962V24.7371C-285.039 26.3796 -287.065 27.3651 -289.419 27.3651C-293.215 27.3651 -296.19 25.4488 -296.19 22.0178ZM-292.54 21.8901C-292.54 23.4778 -290.952 24.4086 -288.89 24.4086C-286.043 24.4086 -284.035 22.4558 -284.035 20.0651C-284.783 19.6818 -286.462 19.2256 -288.36 19.2256C-290.642 19.2256 -292.54 19.9921 -292.54 21.8901ZM-263.649 1.30404V27.0001H-267.263V1.30404H-263.649ZM-259.752 18.2583C-259.752 13.0388 -256.011 9.11506 -250.7 9.11506C-245.59 9.11506 -242.269 12.9111 -242.269 17.6013C-242.269 18.1488 -242.305 18.7146 -242.415 19.2803H-256.011C-255.847 21.9083 -253.602 23.9706 -250.573 23.9706C-248.383 23.9706 -246.631 23.0398 -245.317 20.9776L-242.652 22.9121C-244.276 25.8321 -247.47 27.3651 -250.573 27.3651C-255.865 27.3651 -259.752 23.4596 -259.752 18.2583ZM-255.92 16.5793H-245.937C-246.156 14.1156 -248.218 12.3818 -250.737 12.3818C-253.42 12.3818 -255.464 14.1156 -255.92 16.5793ZM-239.504 22.0178C-239.504 18.7328 -236.364 16.4698 -231.765 16.4698C-229.667 16.4698 -228.152 16.9078 -227.349 17.2911V16.3421C-227.349 14.1521 -229.119 12.5096 -231.838 12.5096C-234.01 12.5096 -235.817 13.7506 -236.857 14.9368L-239.139 12.6738C-237.788 10.9583 -234.977 9.11506 -231.784 9.11506C-226.856 9.11506 -223.735 11.7796 -223.735 16.0318V27.0001H-227.276V24.7371C-228.353 26.3796 -230.378 27.3651 -232.733 27.3651C-236.529 27.3651 -239.504 25.4488 -239.504 22.0178ZM-235.853 21.8901C-235.853 23.4778 -234.266 24.4086 -232.203 24.4086C-229.356 24.4086 -227.349 22.4558 -227.349 20.0651C-228.097 19.6818 -229.776 19.2256 -231.674 19.2256C-233.955 19.2256 -235.853 19.9921 -235.853 21.8901ZM-220.039 18.1488C-220.039 12.7651 -216.225 9.11506 -211.243 9.11506C-208.268 9.11506 -206.297 10.2101 -205.001 11.8708V1.30404H-201.388V27.0001H-205.001V24.6093C-206.297 26.2701 -208.268 27.3651 -211.243 27.3651C-216.225 27.3651 -220.039 23.5326 -220.039 18.1488ZM-210.805 12.3636C-214.181 12.3636 -216.426 14.9186 -216.426 18.1488C-216.426 21.3791 -214.181 24.1166 -210.805 24.1166C-207.429 24.1166 -205.02 21.3791 -205.02 18.1488C-205.02 14.9186 -207.447 12.3636 -210.805 12.3636ZM-180.381 27.3651C-185.364 27.3651 -189.178 23.5326 -189.178 18.1488C-189.178 12.7651 -185.364 9.11506 -180.381 9.11506C-177.407 9.11506 -175.436 10.2101 -174.14 11.8708V9.48006H-170.526V25.6313C-170.526 31.1429 -174.268 34.6651 -180.162 34.6651C-183.374 34.6651 -186.349 33.3146 -188.357 30.9056L-185.984 28.5514C-184.323 30.3581 -182.444 31.3801 -180.089 31.3801C-176.494 31.3801 -174.14 29.2814 -174.14 26.0876V24.6093C-175.363 26.1971 -177.407 27.3651 -180.381 27.3651ZM-179.943 12.3636C-183.32 12.3636 -185.564 14.9186 -185.564 18.1488C-185.564 21.3791 -183.32 24.1166 -179.943 24.1166C-176.567 24.1166 -174.158 21.3791 -174.158 18.1488C-174.158 14.9186 -176.585 12.3636 -179.943 12.3636ZM-166.684 18.2583C-166.684 13.0388 -162.943 9.11506 -157.632 9.11506C-152.522 9.11506 -149.201 12.9111 -149.201 17.6013C-149.201 18.1488 -149.237 18.7146 -149.347 19.2803H-162.943C-162.779 21.9083 -160.534 23.9706 -157.505 23.9706C-155.315 23.9706 -153.563 23.0398 -152.249 20.9776L-149.584 22.9121C-151.208 25.8321 -154.402 27.3651 -157.505 27.3651C-162.797 27.3651 -166.684 23.4596 -166.684 18.2583ZM-162.852 16.5793H-152.869C-153.088 14.1156 -155.15 12.3818 -157.669 12.3818C-160.352 12.3818 -162.396 14.1156 -162.852 16.5793ZM-141.654 27.0001H-145.268V9.48006H-141.636V11.6883C-141.052 10.7941 -139.391 9.11506 -136.252 9.11506C-131.434 9.11506 -128.897 12.1081 -128.897 16.3603V27.0001H-132.511V17.1268C-132.511 14.2251 -134.099 12.5461 -136.818 12.5461C-139.482 12.5461 -141.654 14.2251 -141.654 17.1268V27.0001ZM-125.238 18.2583C-125.238 13.0388 -121.496 9.11506 -116.186 9.11506C-111.076 9.11506 -107.754 12.9111 -107.754 17.6013C-107.754 18.1488 -107.791 18.7146 -107.9 19.2803H-121.496C-121.332 21.9083 -119.087 23.9706 -116.058 23.9706C-113.868 23.9706 -112.116 23.0398 -110.802 20.9776L-108.137 22.9121C-109.762 25.8321 -112.955 27.3651 -116.058 27.3651C-121.35 27.3651 -125.238 23.4596 -125.238 18.2583ZM-121.405 16.5793H-111.422C-111.641 14.1156 -113.704 12.3818 -116.222 12.3818C-118.905 12.3818 -120.949 14.1156 -121.405 16.5793ZM-100.189 27.0001H-103.821V9.48006H-100.189V11.8708C-99.2036 9.95457 -97.5426 9.11506 -95.6266 9.11506C-94.2576 9.11506 -93.2176 9.55306 -93.2176 9.55306L-93.6006 12.8746C-93.8016 12.8016 -94.5856 12.4731 -95.7356 12.4731C-97.6706 12.4731 -100.189 13.4951 -100.189 17.4553V27.0001ZM-91.8576 22.0178C-91.8576 18.7328 -88.7186 16.4698 -84.1196 16.4698C-82.0206 16.4698 -80.5056 16.9078 -79.7026 17.2911V16.3421C-79.7026 14.1521 -81.4726 12.5096 -84.1926 12.5096C-86.3636 12.5096 -88.1706 13.7506 -89.2106 14.9368L-91.4926 12.6738C-90.1416 10.9583 -87.3316 9.11506 -84.1376 9.11506C-79.2096 9.11506 -76.0896 11.7796 -76.0896 16.0318V27.0001H-79.6296V24.7371C-80.7066 26.3796 -82.7326 27.3651 -85.0866 27.3651C-88.8826 27.3651 -91.8576 25.4488 -91.8576 22.0178ZM-88.2076 21.8901C-88.2076 23.4778 -86.6196 24.4086 -84.5576 24.4086C-81.7106 24.4086 -79.7026 22.4558 -79.7026 20.0651C-80.4506 19.6818 -82.1296 19.2256 -84.0276 19.2256C-86.3096 19.2256 -88.2076 19.9921 -88.2076 21.8901ZM-70.2946 12.5461H-73.4156V9.48006H-70.2396V3.85905H-66.7176V9.48006H-61.1516V12.5461H-66.6806V21.3061C-66.6806 23.1676 -65.6046 24.0983 -63.8156 24.0983C-62.9766 24.0983 -61.8266 23.8611 -60.9686 23.4961L-60.4946 26.5986C-61.3706 27.0549 -62.9216 27.3651 -64.3266 27.3651C-67.9946 27.3651 -70.2946 25.3028 -70.2946 21.7441V12.5461ZM-57.8746 3.60355C-57.8746 2.28954 -56.9626 1.37704 -55.6486 1.37704C-54.3346 1.37704 -53.4036 2.28954 -53.4036 3.60355C-53.4036 4.91755 -54.3346 5.83005 -55.6486 5.83005C-56.9626 5.83005 -57.8746 4.91755 -57.8746 3.60355ZM-53.8416 27.0001H-57.4556V9.48006H-53.8416V27.0001ZM-40.6556 27.3651C-45.9846 27.3651 -49.9636 23.3683 -49.9636 18.2401C-49.9636 13.1118 -45.9846 9.11506 -40.6556 9.11506C-35.3266 9.11506 -31.3486 13.1118 -31.3486 18.2401C-31.3486 23.3683 -35.3266 27.3651 -40.6556 27.3651ZM-46.3496 18.2401C-46.3496 21.4703 -43.9586 23.9706 -40.6556 23.9706C-37.3526 23.9706 -34.9616 21.4703 -34.9616 18.2401C-34.9616 15.0098 -37.3526 12.5096 -40.6556 12.5096C-43.9586 12.5096 -46.3496 15.0098 -46.3496 18.2401ZM-23.8566 27.0001H-27.4696V9.48006H-23.8376V11.6883C-23.2536 10.7941 -21.5936 9.11506 -18.4546 9.11506C-13.6366 9.11506 -11.0996 12.1081 -11.0996 16.3603V27.0001H-14.7126V17.1268C-14.7126 14.2251 -16.3006 12.5461 -19.0196 12.5461C-21.6846 12.5461 -23.8566 14.2251 -23.8566 17.1268V27.0001ZM4.5054 0.446289H8.5564L11.3304 6.54181H8.20941L4.5054 0.446289ZM0.763397 18.2583C0.763397 13.0388 4.5054 9.11506 9.8154 9.11506C14.9264 9.11506 18.2474 12.9111 18.2474 17.6013C18.2474 18.1488 18.2114 18.7146 18.1014 19.2803H4.5054C4.6694 21.9083 6.91439 23.9706 9.94339 23.9706C12.1334 23.9706 13.8854 23.0398 15.1994 20.9776L17.8644 22.9121C16.2404 25.8321 13.0464 27.3651 9.94339 27.3651C4.65139 27.3651 0.763397 23.4596 0.763397 18.2583ZM9.77939 12.3818C7.09639 12.3818 5.05241 14.1156 4.59641 16.5793H14.5794C14.3604 14.1156 12.2984 12.3818 9.77939 12.3818ZM-494.226 71.0001V45.304H-490.612V55.8708C-489.316 54.2101 -487.345 53.1151 -484.371 53.1151C-479.388 53.1151 -475.574 56.7651 -475.574 62.1488C-475.574 67.5326 -479.388 71.3651 -484.371 71.3651C-487.345 71.3651 -489.316 70.2701 -490.612 68.6093V71.0001H-494.226ZM-490.594 62.1488C-490.594 65.3791 -488.185 68.1166 -484.809 68.1166C-481.432 68.1166 -479.188 65.3791 -479.188 62.1488C-479.188 58.9186 -481.432 56.3636 -484.809 56.3636C-488.167 56.3636 -490.594 58.9186 -490.594 62.1488ZM-472.809 66.0178C-472.809 62.7328 -469.67 60.4698 -465.071 60.4698C-462.972 60.4698 -461.457 60.9078 -460.654 61.2911V60.3421C-460.654 58.1521 -462.424 56.5096 -465.144 56.5096C-467.315 56.5096 -469.122 57.7506 -470.162 58.9368L-472.444 56.6738C-471.093 54.9583 -468.283 53.1151 -465.089 53.1151C-460.161 53.1151 -457.041 55.7796 -457.041 60.0318V71.0001H-460.581V68.7371C-461.658 70.3796 -463.684 71.3651 -466.038 71.3651C-469.834 71.3651 -472.809 69.4488 -472.809 66.0178ZM-469.159 65.8901C-469.159 67.4778 -467.571 68.4086 -465.509 68.4086C-462.662 68.4086 -460.654 66.4558 -460.654 64.0651C-461.402 63.6818 -463.081 63.2256 -464.979 63.2256C-467.261 63.2256 -469.159 63.9921 -469.159 65.8901ZM-453.436 67.3136L-450.753 65.1418C-449.768 66.8573 -448.089 68.0436 -445.862 68.0436C-443.982 68.0436 -442.577 67.2953 -442.577 66.1091C-442.577 64.8133 -443.654 64.4118 -446.227 63.8278C-449.987 62.9883 -452.669 61.8021 -452.669 58.3346C-452.669 55.1591 -449.768 53.1151 -446.191 53.1151C-442.924 53.1151 -440.424 54.8123 -439.256 56.7286L-441.683 58.8091C-442.632 57.4586 -444.128 56.4183 -446.191 56.4183C-447.924 56.4183 -449.092 57.1483 -449.092 58.2798C-449.092 59.6121 -447.797 59.9771 -445.223 60.5976C-441.409 61.5283 -438.927 62.7693 -438.927 66.1091C-438.927 69.3028 -442.139 71.3651 -445.862 71.3651C-449.275 71.3651 -452.085 69.7956 -453.436 67.3136ZM-436.071 66.0178C-436.071 62.7328 -432.932 60.4698 -428.333 60.4698C-426.234 60.4698 -424.719 60.9078 -423.916 61.2911V60.3421C-423.916 58.1521 -425.686 56.5096 -428.406 56.5096C-430.577 56.5096 -432.384 57.7506 -433.424 58.9368L-435.706 56.6738C-434.355 54.9583 -431.545 53.1151 -428.351 53.1151C-423.423 53.1151 -420.303 55.7796 -420.303 60.0318V71.0001H-423.843V68.7371C-424.92 70.3796 -426.946 71.3651 -429.3 71.3651C-433.096 71.3651 -436.071 69.4488 -436.071 66.0178ZM-432.421 65.8901C-432.421 67.4778 -430.833 68.4086 -428.771 68.4086C-425.924 68.4086 -423.916 66.4558 -423.916 64.0651C-424.664 63.6818 -426.343 63.2256 -428.241 63.2256C-430.523 63.2256 -432.421 63.9921 -432.421 65.8901ZM-414.508 56.5461H-417.629V53.4801H-414.453V47.859H-410.931V53.4801H-405.365V56.5461H-410.894V65.3061C-410.894 67.1676 -409.818 68.0983 -408.029 68.0983C-407.19 68.0983 -406.04 67.8611 -405.182 67.4961L-404.708 70.5986C-405.584 71.0549 -407.135 71.3651 -408.54 71.3651C-412.208 71.3651 -414.508 69.3028 -414.508 65.7441V56.5461ZM-394.095 71.3651C-399.424 71.3651 -403.402 67.3683 -403.402 62.2401C-403.402 57.1118 -399.424 53.1151 -394.095 53.1151C-388.766 53.1151 -384.788 57.1118 -384.788 62.2401C-384.788 67.3683 -388.766 71.3651 -394.095 71.3651ZM-399.789 62.2401C-399.789 65.4703 -397.398 67.9706 -394.095 67.9706C-390.792 67.9706 -388.401 65.4703 -388.401 62.2401C-388.401 59.0098 -390.792 56.5096 -394.095 56.5096C-397.398 56.5096 -399.789 59.0098 -399.789 62.2401ZM-374.056 67.3136L-371.373 65.1418C-370.388 66.8573 -368.709 68.0436 -366.482 68.0436C-364.602 68.0436 -363.197 67.2953 -363.197 66.1091C-363.197 64.8133 -364.274 64.4118 -366.847 63.8278C-370.607 62.9883 -373.289 61.8021 -373.289 58.3346C-373.289 55.1591 -370.388 53.1151 -366.811 53.1151C-363.544 53.1151 -361.044 54.8123 -359.876 56.7286L-362.303 58.8091C-363.252 57.4586 -364.748 56.4183 -366.811 56.4183C-368.544 56.4183 -369.712 57.1483 -369.712 58.2798C-369.712 59.6121 -368.417 59.9771 -365.843 60.5976C-362.029 61.5283 -359.547 62.7693 -359.547 66.1091C-359.547 69.3028 -362.759 71.3651 -366.482 71.3651C-369.895 71.3651 -372.705 69.7956 -374.056 67.3136ZM-355.76 53.4801H-352.146V63.3533C-352.146 66.2551 -350.559 67.9341 -347.876 67.9341C-345.12 67.9341 -342.948 66.2551 -342.948 63.3533V53.4801H-339.335V71.0001H-342.967V68.7918C-343.551 69.6861 -345.211 71.3651 -348.442 71.3651C-353.223 71.3651 -355.76 68.3721 -355.76 64.1198V53.4801ZM-330.529 45.304V71.0001H-334.142V45.304H-330.529ZM-321.741 45.304V71.0001H-325.355V45.304H-321.741ZM-317.735 66.0178C-317.735 62.7328 -314.596 60.4698 -309.997 60.4698C-307.898 60.4698 -306.383 60.9078 -305.58 61.2911V60.3421C-305.58 58.1521 -307.351 56.5096 -310.07 56.5096C-312.242 56.5096 -314.048 57.7506 -315.089 58.9368L-317.37 56.6738C-316.019 54.9583 -313.209 53.1151 -310.015 53.1151C-305.088 53.1151 -301.967 55.7796 -301.967 60.0318V71.0001H-305.507V68.7371C-306.584 70.3796 -308.61 71.3651 -310.964 71.3651C-314.76 71.3651 -317.735 69.4488 -317.735 66.0178ZM-314.085 65.8901C-314.085 67.4778 -312.497 68.4086 -310.435 68.4086C-307.588 68.4086 -305.58 66.4558 -305.58 64.0651C-306.329 63.6818 -308.008 63.2256 -309.906 63.2256C-312.187 63.2256 -314.085 63.9921 -314.085 65.8901ZM-280.814 71.3651C-286.125 71.3651 -290.104 67.3318 -290.104 62.2218C-290.104 57.0936 -285.961 53.1151 -280.668 53.1151C-277.219 53.1151 -274.336 54.9218 -272.693 57.9148L-275.485 59.8128C-276.58 57.7871 -278.551 56.5096 -280.741 56.5096C-284.118 56.5096 -286.454 59.0098 -286.454 62.2218C-286.454 65.4521 -284.063 67.9706 -280.814 67.9706C-278.533 67.9706 -276.635 66.7661 -275.431 64.6856L-272.711 66.6018C-274.317 69.4853 -277.274 71.3651 -280.814 71.3651ZM-265.511 71.0001H-269.143V53.4801H-265.511V55.8708C-264.526 53.9546 -262.865 53.1151 -260.949 53.1151C-259.58 53.1151 -258.54 53.5531 -258.54 53.5531L-258.923 56.8746C-259.124 56.8016 -259.909 56.4731 -261.058 56.4731C-262.993 56.4731 -265.511 57.4951 -265.511 61.4553V71.0001ZM-257.435 62.2583C-257.435 57.0388 -253.694 53.1151 -248.383 53.1151C-243.273 53.1151 -239.952 56.9111 -239.952 61.6013C-239.952 62.1488 -239.988 62.7146 -240.098 63.2803H-253.694C-253.53 65.9083 -251.285 67.9706 -248.255 67.9706C-246.065 67.9706 -244.313 67.0398 -242.999 64.9776L-240.335 66.9121C-241.959 69.8321 -245.153 71.3651 -248.255 71.3651C-253.548 71.3651 -257.435 67.4596 -257.435 62.2583ZM-253.603 60.5793H-243.62C-243.839 58.1156 -245.901 56.3818 -248.42 56.3818C-251.103 56.3818 -253.147 58.1156 -253.603 60.5793ZM-237.186 66.0178C-237.186 62.7328 -234.047 60.4698 -229.448 60.4698C-227.35 60.4698 -225.835 60.9078 -225.032 61.2911V60.3421C-225.032 58.1521 -226.802 56.5096 -229.521 56.5096C-231.693 56.5096 -233.5 57.7506 -234.54 58.9368L-236.821 56.6738C-235.471 54.9583 -232.66 53.1151 -229.467 53.1151C-224.539 53.1151 -221.418 55.7796 -221.418 60.0318V71.0001H-224.959V68.7371C-226.036 70.3796 -228.061 71.3651 -230.416 71.3651C-234.212 71.3651 -237.186 69.4488 -237.186 66.0178ZM-233.536 65.8901C-233.536 67.4778 -231.949 68.4086 -229.886 68.4086C-227.039 68.4086 -225.032 66.4558 -225.032 64.0651C-225.78 63.6818 -227.459 63.2256 -229.357 63.2256C-231.638 63.2256 -233.536 63.9921 -233.536 65.8901ZM-217.722 71.0001V67.9888L-208.689 56.5461H-217.54V53.4801H-204.582V56.4913L-213.616 67.9341H-204.017V71.0001H-217.722ZM-200.759 47.6035C-200.759 46.2895 -199.846 45.377 -198.532 45.377C-197.218 45.377 -196.287 46.2895 -196.287 47.6035C-196.287 48.9175 -197.218 49.83 -198.532 49.83C-199.846 49.83 -200.759 48.9175 -200.759 47.6035ZM-196.725 71.0001H-200.339V53.4801H-196.725V71.0001ZM-183.539 71.3651C-188.868 71.3651 -192.847 67.3683 -192.847 62.2401C-192.847 57.1118 -188.868 53.1151 -183.539 53.1151C-178.21 53.1151 -174.232 57.1118 -174.232 62.2401C-174.232 67.3683 -178.21 71.3651 -183.539 71.3651ZM-189.233 62.2401C-189.233 65.4703 -186.843 67.9706 -183.539 67.9706C-180.236 67.9706 -177.845 65.4703 -177.845 62.2401C-177.845 59.0098 -180.236 56.5096 -183.539 56.5096C-186.843 56.5096 -189.233 59.0098 -189.233 62.2401ZM-166.74 71.0001H-170.353V53.4801H-166.722V55.6883C-166.138 54.7941 -164.477 53.1151 -161.338 53.1151C-156.52 53.1151 -153.983 56.1081 -153.983 60.3603V71.0001H-157.597V61.1268C-157.597 58.2251 -159.184 56.5461 -161.904 56.5461C-164.568 56.5461 -166.74 58.2251 -166.74 61.1268V71.0001ZM-150.324 62.2583C-150.324 57.0388 -146.582 53.1151 -141.272 53.1151C-136.161 53.1151 -132.84 56.9111 -132.84 61.6013C-132.84 62.1488 -132.876 62.7146 -132.986 63.2803H-146.582C-146.418 65.9083 -144.173 67.9706 -141.144 67.9706C-138.954 67.9706 -137.202 67.0398 -135.888 64.9776L-133.223 66.9121C-134.847 69.8321 -138.041 71.3651 -141.144 71.3651C-146.436 71.3651 -150.324 67.4596 -150.324 62.2583ZM-146.491 60.5793H-136.508C-136.727 58.1156 -138.79 56.3818 -141.308 56.3818C-143.991 56.3818 -146.035 58.1156 -146.491 60.5793ZM-121.962 62.1488C-121.962 56.7651 -118.148 53.1151 -113.166 53.1151C-110.191 53.1151 -108.22 54.2101 -106.924 55.8708V45.304H-103.311V71.0001H-106.924V68.6093C-108.22 70.2701 -110.191 71.3651 -113.166 71.3651C-118.148 71.3651 -121.962 67.5326 -121.962 62.1488ZM-112.728 56.3636C-116.104 56.3636 -118.349 58.9186 -118.349 62.1488C-118.349 65.3791 -116.104 68.1166 -112.728 68.1166C-109.351 68.1166 -106.942 65.3791 -106.942 62.1488C-106.942 58.9186 -109.37 56.3636 -112.728 56.3636ZM-98.5376 47.6035C-98.5376 46.2895 -97.6246 45.377 -96.3106 45.377C-94.9966 45.377 -94.0666 46.2895 -94.0666 47.6035C-94.0666 48.9175 -94.9966 49.83 -96.3106 49.83C-97.6246 49.83 -98.5376 48.9175 -98.5376 47.6035ZM-94.5046 71.0001H-98.1176V53.4801H-94.5046V71.0001ZM-77.4946 71.0001H-81.1266V53.4801H-77.4946V55.8708C-76.5086 53.9546 -74.8486 53.1151 -72.9316 53.1151C-71.5636 53.1151 -70.5226 53.5531 -70.5226 53.5531L-70.9066 56.8746C-71.1066 56.8016 -71.8916 56.4731 -73.0416 56.4731C-74.9756 56.4731 -77.4946 57.4951 -77.4946 61.4553V71.0001ZM-69.4186 62.2583C-69.4186 57.0388 -65.6776 53.1151 -60.3666 53.1151C-55.2566 53.1151 -51.9346 56.9111 -51.9346 61.6013C-51.9346 62.1488 -51.9716 62.7146 -52.0806 63.2803H-65.6776C-65.5126 65.9083 -63.2686 67.9706 -60.2386 67.9706C-58.0486 67.9706 -56.2966 67.0398 -54.9826 64.9776L-52.3186 66.9121C-53.9426 69.8321 -57.1366 71.3651 -60.2386 71.3651C-65.5316 71.3651 -69.4186 67.4596 -69.4186 62.2583ZM-65.5856 60.5793H-55.6036C-55.8226 58.1156 -57.8846 56.3818 -60.4026 56.3818C-63.0856 56.3818 -65.1296 58.1156 -65.5856 60.5793ZM-44.3886 45.304V71.0001H-48.0016V45.304H-44.3886ZM-40.3816 66.0178C-40.3816 62.7328 -37.2426 60.4698 -32.6436 60.4698C-30.5456 60.4698 -29.0306 60.9078 -28.2276 61.2911V60.3421C-28.2276 58.1521 -29.9976 56.5096 -32.7166 56.5096C-34.8886 56.5096 -36.6956 57.7506 -37.7356 58.9368L-40.0166 56.6738C-38.6666 54.9583 -35.8556 53.1151 -32.6626 53.1151C-27.7346 53.1151 -24.6136 55.7796 -24.6136 60.0318V71.0001H-28.1546V68.7371C-29.2316 70.3796 -31.2566 71.3651 -33.6116 71.3651C-37.4076 71.3651 -40.3816 69.4488 -40.3816 66.0178ZM-36.7316 65.8901C-36.7316 67.4778 -35.1446 68.4086 -33.0816 68.4086C-30.2346 68.4086 -28.2276 66.4558 -28.2276 64.0651C-28.9756 63.6818 -30.6546 63.2256 -32.5526 63.2256C-34.8336 63.2256 -36.7316 63.9921 -36.7316 65.8901ZM-20.9176 71.0001V67.9888L-11.8846 56.5461H-20.7356V53.4801H-7.77762V56.4913L-16.8116 67.9341H-7.21262V71.0001H-20.9176ZM-3.95459 47.6035C-3.95459 46.2895 -3.0416 45.377 -1.7276 45.377C-0.4136 45.377 0.517395 46.2895 0.517395 47.6035C0.517395 48.9175 -0.4136 49.83 -1.7276 49.83C-3.0416 49.83 -3.95459 48.9175 -3.95459 47.6035ZM0.0794067 71.0001H-3.53461V53.4801H0.0794067V71.0001ZM13.2654 71.3651C7.93641 71.3651 3.9574 67.3683 3.9574 62.2401C3.9574 57.1118 7.93641 53.1151 13.2654 53.1151C18.5944 53.1151 22.5724 57.1118 22.5724 62.2401C22.5724 67.3683 18.5944 71.3651 13.2654 71.3651ZM7.57141 62.2401C7.57141 65.4703 9.96241 67.9706 13.2654 67.9706C16.5684 67.9706 18.9594 65.4703 18.9594 62.2401C18.9594 59.0098 16.5684 56.5096 13.2654 56.5096C9.96241 56.5096 7.57141 59.0098 7.57141 62.2401ZM30.0645 71.0001H26.4514V53.4801H30.0834V55.6883C30.6674 54.7941 32.3274 53.1151 35.4664 53.1151C40.2844 53.1151 42.8214 56.1081 42.8214 60.3603V71.0001H39.2084V61.1268C39.2084 58.2251 37.6204 56.5461 34.9014 56.5461C32.2364 56.5461 30.0645 58.2251 30.0645 61.1268V71.0001ZM47.3384 47.6035C47.3384 46.2895 48.2514 45.377 49.5654 45.377C50.8794 45.377 51.8104 46.2895 51.8104 47.6035C51.8104 48.9175 50.8794 49.83 49.5654 49.83C48.2514 49.83 47.3384 48.9175 47.3384 47.6035ZM51.3724 71.0001H47.7584V53.4801H51.3724V71.0001ZM63.4904 62.1488C63.4904 56.7651 67.3054 53.1151 72.2874 53.1151C75.2624 53.1151 77.2334 54.2101 78.5284 55.8708V45.304H82.1425V71.0001H78.5284V68.6093C77.2334 70.2701 75.2624 71.3651 72.2874 71.3651C67.3054 71.3651 63.4904 67.5326 63.4904 62.1488ZM72.7254 56.3636C69.3494 56.3636 67.1044 58.9186 67.1044 62.1488C67.1044 65.3791 69.3494 68.1166 72.7254 68.1166C76.1014 68.1166 78.5104 65.3791 78.5104 62.1488C78.5104 58.9186 76.0834 56.3636 72.7254 56.3636ZM86.9154 47.6035C86.9154 46.2895 87.8274 45.377 89.1414 45.377C90.4554 45.377 91.3864 46.2895 91.3864 47.6035C91.3864 48.9175 90.4554 49.83 89.1414 49.83C87.8274 49.83 86.9154 48.9175 86.9154 47.6035ZM90.9484 71.0001H87.3344V53.4801H90.9484V71.0001ZM-492.912 101.546H-496.215V98.4801H-492.857V96.582C-492.857 92.5305 -490.338 89.939 -486.068 89.939C-484.517 89.939 -483.476 90.4135 -483.166 90.5778L-483.549 93.5708C-484.042 93.3518 -484.991 93.1145 -485.904 93.1145C-488.258 93.1145 -489.353 94.246 -489.353 96.7828V98.4801H-484.188V101.546H-489.298V116H-492.912V101.546ZM-481.286 92.6035C-481.286 91.2895 -480.374 90.377 -479.06 90.377C-477.746 90.377 -476.815 91.2895 -476.815 92.6035C-476.815 93.9175 -477.746 94.83 -479.06 94.83C-480.374 94.83 -481.286 93.9175 -481.286 92.6035ZM-480.867 116V98.4801H-477.253V116H-480.867ZM-473.338 107.149C-473.338 101.765 -469.524 98.1151 -464.541 98.1151C-461.567 98.1151 -459.596 99.2101 -458.3 100.871V90.304H-454.686V116H-458.3V113.609C-459.596 115.27 -461.567 116.365 -464.541 116.365C-469.524 116.365 -473.338 112.532 -473.338 107.149ZM-464.103 101.363C-467.48 101.363 -469.724 103.918 -469.724 107.149C-469.724 110.379 -467.48 113.116 -464.103 113.116C-460.727 113.116 -458.318 110.379 -458.318 107.149C-458.318 103.918 -460.745 101.363 -464.103 101.363ZM-449.731 98.4801H-446.118V108.353C-446.118 111.255 -444.53 112.934 -441.847 112.934C-439.091 112.934 -436.92 111.255 -436.92 108.353V98.4801H-433.306V116H-436.938V113.792C-437.522 114.686 -439.183 116.365 -442.413 116.365C-447.194 116.365 -449.731 113.372 -449.731 109.12V98.4801ZM-420.12 116.365C-425.431 116.365 -429.409 112.332 -429.409 107.222C-429.409 102.093 -425.267 98.1151 -419.974 98.1151C-416.525 98.1151 -413.641 99.9218 -411.999 102.915L-414.791 104.813C-415.886 102.787 -417.857 101.509 -420.047 101.509C-423.423 101.509 -425.759 104.01 -425.759 107.222C-425.759 110.452 -423.369 112.97 -420.12 112.97C-417.839 112.97 -415.941 111.766 -414.736 109.685L-412.017 111.602C-413.623 114.485 -416.58 116.365 -420.12 116.365ZM-408.869 92.6035C-408.869 91.2895 -407.956 90.377 -406.642 90.377C-405.328 90.377 -404.397 91.2895 -404.397 92.6035C-404.397 93.9175 -405.328 94.83 -406.642 94.83C-407.956 94.83 -408.869 93.9175 -408.869 92.6035ZM-404.835 116H-408.449V98.4801H-404.835V116ZM-400.829 111.018C-400.829 107.733 -397.69 105.47 -393.092 105.47C-390.993 105.47 -389.478 105.908 -388.675 106.291V105.342C-388.675 103.152 -390.445 101.509 -393.165 101.509C-395.336 101.509 -397.143 102.75 -398.183 103.937L-400.464 101.674C-399.114 99.9583 -396.304 98.1151 -393.11 98.1151C-388.182 98.1151 -385.062 100.779 -385.062 105.032V116H-388.602V113.737C-389.679 115.379 -391.705 116.365 -394.059 116.365C-397.854 116.365 -400.829 114.449 -400.829 111.018ZM-397.179 110.89C-397.179 112.478 -395.592 113.408 -393.53 113.408C-390.683 113.408 -388.675 111.456 -388.675 109.065C-389.423 108.682 -391.102 108.225 -393 108.225C-395.282 108.225 -397.179 108.992 -397.179 110.89ZM-380.015 111.383H-376.219L-379.139 120.8H-382.333L-380.015 111.383ZM-365.962 112.313L-363.279 110.142C-362.293 111.857 -360.614 113.043 -358.388 113.043C-356.508 113.043 -355.103 112.295 -355.103 111.109C-355.103 109.813 -356.18 109.412 -358.753 108.828C-362.512 107.988 -365.195 106.802 -365.195 103.334C-365.195 100.159 -362.293 98.1151 -358.716 98.1151C-355.45 98.1151 -352.949 99.8123 -351.781 101.728L-354.209 103.809C-355.158 102.458 -356.654 101.418 -358.716 101.418C-360.45 101.418 -361.618 102.148 -361.618 103.28C-361.618 104.612 -360.322 104.977 -357.749 105.597C-353.935 106.528 -351.453 107.769 -351.453 111.109C-351.453 114.303 -354.665 116.365 -358.388 116.365C-361.801 116.365 -364.611 114.795 -365.962 112.313ZM-339.417 116.365C-344.746 116.365 -348.724 112.368 -348.724 107.24C-348.724 102.112 -344.746 98.1151 -339.417 98.1151C-334.088 98.1151 -330.109 102.112 -330.109 107.24C-330.109 112.368 -334.088 116.365 -339.417 116.365ZM-345.111 107.24C-345.111 110.47 -342.72 112.97 -339.417 112.97C-336.113 112.97 -333.723 110.47 -333.723 107.24C-333.723 104.01 -336.113 101.509 -339.417 101.509C-342.72 101.509 -345.111 104.01 -345.111 107.24ZM-327.581 112.313L-324.898 110.142C-323.913 111.857 -322.234 113.043 -320.007 113.043C-318.128 113.043 -316.722 112.295 -316.722 111.109C-316.722 109.813 -317.799 109.412 -320.372 108.828C-324.132 107.988 -326.815 106.802 -326.815 103.334C-326.815 100.159 -323.913 98.1151 -320.336 98.1151C-317.069 98.1151 -314.569 99.8123 -313.401 101.728L-315.828 103.809C-316.777 102.458 -318.274 101.418 -320.336 101.418C-322.07 101.418 -323.238 102.148 -323.238 103.28C-323.238 104.612 -321.942 104.977 -319.369 105.597C-315.554 106.528 -313.072 107.769 -313.072 111.109C-313.072 114.303 -316.284 116.365 -320.007 116.365C-323.42 116.365 -326.231 114.795 -327.581 112.313ZM-308.172 101.546H-311.293V98.4801H-308.117V92.859H-304.595V98.4801H-299.029V101.546H-304.558V110.306C-304.558 112.167 -303.482 113.098 -301.693 113.098C-300.854 113.098 -299.704 112.861 -298.846 112.496L-298.372 115.598C-299.248 116.055 -300.799 116.365 -302.204 116.365C-305.872 116.365 -308.172 114.303 -308.172 110.744V101.546ZM-297.048 107.258C-297.048 102.039 -293.307 98.1151 -287.996 98.1151C-282.886 98.1151 -279.565 101.911 -279.565 106.601C-279.565 107.149 -279.601 107.714 -279.711 108.28H-293.307C-293.143 110.908 -290.898 112.97 -287.868 112.97C-285.678 112.97 -283.926 112.04 -282.612 109.977L-279.948 111.912C-281.572 114.832 -284.766 116.365 -287.868 116.365C-293.161 116.365 -297.048 112.459 -297.048 107.258ZM-293.216 105.579H-283.233C-283.452 103.115 -285.514 101.382 -288.033 101.382C-290.715 101.382 -292.759 103.115 -293.216 105.579ZM-272.018 116H-275.631V98.4801H-272V100.688C-271.416 99.7941 -269.755 98.1151 -266.616 98.1151C-261.798 98.1151 -259.261 101.108 -259.261 105.36V116H-262.875V106.127C-262.875 103.225 -264.462 101.546 -267.182 101.546C-269.846 101.546 -272.018 103.225 -272.018 106.127V116ZM-254.561 98.4801H-250.948V108.353C-250.948 111.255 -249.36 112.934 -246.677 112.934C-243.921 112.934 -241.75 111.255 -241.75 108.353V98.4801H-238.136V116H-241.768V113.792C-242.352 114.686 -244.013 116.365 -247.243 116.365C-252.024 116.365 -254.561 113.372 -254.561 109.12V98.4801ZM-231.885 101.546H-235.006V98.4801H-231.83V92.859H-228.308V98.4801H-222.742V101.546H-228.272V110.306C-228.272 112.167 -227.195 113.098 -225.406 113.098C-224.567 113.098 -223.417 112.861 -222.559 112.496L-222.085 115.598C-222.961 116.055 -224.512 116.365 -225.917 116.365C-229.586 116.365 -231.885 114.303 -231.885 110.744V101.546ZM-220.761 107.258C-220.761 102.039 -217.02 98.1151 -211.709 98.1151C-206.599 98.1151 -203.278 101.911 -203.278 106.601C-203.278 107.149 -203.314 107.714 -203.424 108.28H-217.02C-216.856 110.908 -214.611 112.97 -211.582 112.97C-209.392 112.97 -207.64 112.04 -206.326 109.977L-203.661 111.912C-205.285 114.832 -208.479 116.365 -211.582 116.365C-216.874 116.365 -220.761 112.459 -220.761 107.258ZM-216.929 105.579H-206.946C-207.165 103.115 -209.227 101.382 -211.746 101.382C-214.429 101.382 -216.473 103.115 -216.929 105.579ZM-192.4 107.149C-192.4 101.765 -188.586 98.1151 -183.604 98.1151C-180.629 98.1151 -178.658 99.2101 -177.362 100.871V90.304H-173.749V116H-177.362V113.609C-178.658 115.27 -180.629 116.365 -183.604 116.365C-188.586 116.365 -192.4 112.532 -192.4 107.149ZM-183.166 101.363C-186.542 101.363 -188.787 103.918 -188.787 107.149C-188.787 110.379 -186.542 113.116 -183.166 113.116C-179.789 113.116 -177.38 110.379 -177.38 107.149C-177.38 103.918 -179.808 101.363 -183.166 101.363ZM-169.724 111.018C-169.724 107.733 -166.585 105.47 -161.986 105.47C-159.887 105.47 -158.373 105.908 -157.57 106.291V105.342C-157.57 103.152 -159.34 101.509 -162.059 101.509C-164.231 101.509 -166.038 102.75 -167.078 103.937L-169.359 101.674C-168.009 99.9583 -165.198 98.1151 -162.004 98.1151C-157.077 98.1151 -153.956 100.779 -153.956 105.032V116H-157.497V113.737C-158.573 115.379 -160.599 116.365 -162.953 116.365C-166.749 116.365 -169.724 114.449 -169.724 111.018ZM-166.074 110.89C-166.074 112.478 -164.486 113.408 -162.424 113.408C-159.577 113.408 -157.57 111.456 -157.57 109.065C-158.318 108.682 -159.997 108.225 -161.895 108.225C-164.176 108.225 -166.074 108.992 -166.074 110.89ZM-145.387 90.304V116H-149.001V90.304H-145.387ZM-136.6 90.304V116H-140.213V90.304H-136.6ZM-132.593 111.018C-132.593 107.733 -129.454 105.47 -124.855 105.47C-122.756 105.47 -121.242 105.908 -120.439 106.291V105.342C-120.439 103.152 -122.209 101.509 -124.928 101.509C-127.1 101.509 -128.907 102.75 -129.947 103.937L-132.228 101.674C-130.878 99.9583 -128.067 98.1151 -124.874 98.1151C-119.946 98.1151 -116.825 100.779 -116.825 105.032V116H-120.366V113.737C-121.442 115.379 -123.468 116.365 -125.823 116.365C-129.619 116.365 -132.593 114.449 -132.593 111.018ZM-128.943 110.89C-128.943 112.478 -127.356 113.408 -125.293 113.408C-122.446 113.408 -120.439 111.456 -120.439 109.065C-121.187 108.682 -122.866 108.225 -124.764 108.225C-127.045 108.225 -128.943 108.992 -128.943 110.89ZM-102.608 101.546H-105.728V98.4801H-102.553V92.859H-99.0306V98.4801H-93.4636V101.546H-98.9936V110.306C-98.9936 112.167 -97.9166 113.098 -96.1286 113.098C-95.2886 113.098 -94.1396 112.861 -93.2816 112.496L-92.8066 115.598C-93.6826 116.055 -95.2346 116.365 -96.6396 116.365C-100.308 116.365 -102.608 114.303 -102.608 110.744V101.546ZM-91.4836 107.258C-91.4836 102.039 -87.7426 98.1151 -82.4316 98.1151C-77.3216 98.1151 -73.9996 101.911 -73.9996 106.601C-73.9996 107.149 -74.0366 107.714 -74.1456 108.28H-87.7426C-87.5776 110.908 -85.3336 112.97 -82.3036 112.97C-80.1136 112.97 -78.3616 112.04 -77.0476 109.977L-74.3836 111.912C-76.0076 114.832 -79.2016 116.365 -82.3036 116.365C-87.5966 116.365 -91.4836 112.459 -91.4836 107.258ZM-87.6506 105.579H-77.6686C-77.8876 103.115 -79.9496 101.382 -82.4676 101.382C-85.1506 101.382 -87.1946 103.115 -87.6506 105.579ZM-62.0736 116.365C-67.3836 116.365 -71.3626 112.332 -71.3626 107.222C-71.3626 102.093 -67.2196 98.1151 -61.9276 98.1151C-58.4776 98.1151 -55.5946 99.9218 -53.9516 102.915L-56.7446 104.813C-57.8396 102.787 -59.8106 101.509 -62.0006 101.509C-65.3766 101.509 -67.7126 104.01 -67.7126 107.222C-67.7126 110.452 -65.3216 112.97 -62.0736 112.97C-59.7916 112.97 -57.8936 111.766 -56.6896 109.685L-53.9706 111.602C-55.5766 114.485 -58.5326 116.365 -62.0736 116.365ZM-46.7886 116H-50.4016V98.4801H-46.7706V100.688C-46.1866 99.7941 -44.5256 98.1151 -41.3866 98.1151C-36.5686 98.1151 -34.0316 101.108 -34.0316 105.36V116H-37.6456V106.127C-37.6456 103.225 -39.2326 101.546 -41.9526 101.546C-44.6166 101.546 -46.7886 103.225 -46.7886 106.127V116ZM-21.0826 116.365C-26.4116 116.365 -30.3906 112.368 -30.3906 107.24C-30.3906 102.112 -26.4116 98.1151 -21.0826 98.1151C-15.7536 98.1151 -11.7756 102.112 -11.7756 107.24C-11.7756 112.368 -15.7536 116.365 -21.0826 116.365ZM-26.7766 107.24C-26.7766 110.47 -24.3866 112.97 -21.0826 112.97C-17.7796 112.97 -15.3886 110.47 -15.3886 107.24C-15.3886 104.01 -17.7796 101.509 -21.0826 101.509C-24.3866 101.509 -26.7766 104.01 -26.7766 107.24ZM-4.2836 90.304V116H-7.89661V90.304H-4.2836ZM8.9024 116.365C3.5734 116.365 -0.404602 112.368 -0.404602 107.24C-0.404602 102.112 3.5734 98.1151 8.9024 98.1151C14.2314 98.1151 18.2104 102.112 18.2104 107.24C18.2104 112.368 14.2314 116.365 8.9024 116.365ZM3.2084 107.24C3.2084 110.47 5.5994 112.97 8.9024 112.97C12.2064 112.97 14.5964 110.47 14.5964 107.24C14.5964 104.01 12.2064 101.509 8.9024 101.509C5.5994 101.509 3.2084 104.01 3.2084 107.24ZM29.6994 116.365C24.7164 116.365 20.9024 112.532 20.9024 107.149C20.9024 101.765 24.7164 98.1151 29.6994 98.1151C32.6734 98.1151 34.6444 99.2101 35.9404 100.871V98.4801H39.5544V114.631C39.5544 120.143 35.8125 123.665 29.9185 123.665C26.7065 123.665 23.7314 122.315 21.7234 119.906L24.0964 117.551C25.7574 119.358 27.6365 120.38 29.9915 120.38C33.5865 120.38 35.9404 118.281 35.9404 115.087V113.609C34.7174 115.197 32.6734 116.365 29.6994 116.365ZM30.1375 101.363C26.7605 101.363 24.5164 103.918 24.5164 107.149C24.5164 110.379 26.7605 113.116 30.1375 113.116C33.5135 113.116 35.9224 110.379 35.9224 107.149C35.9224 103.918 33.4955 101.363 30.1375 101.363ZM44.2534 92.6035C44.2534 91.2895 45.1664 90.377 46.4804 90.377C47.7944 90.377 48.7254 91.2895 48.7254 92.6035C48.7254 93.9175 47.7944 94.83 46.4804 94.83C45.1664 94.83 44.2534 93.9175 44.2534 92.6035ZM48.2874 116H44.6734V98.4801H48.2874V116ZM52.2935 111.018C52.2935 107.733 55.4324 105.47 60.0314 105.47C62.1304 105.47 63.6444 105.908 64.4474 106.291V105.342C64.4474 103.152 62.6774 101.509 59.9584 101.509C57.7864 101.509 55.9795 102.75 54.9395 103.937L52.6584 101.674C54.0084 99.9583 56.8194 98.1151 60.0134 98.1151C64.9404 98.1151 68.0614 100.779 68.0614 105.032V116H64.5204V113.737C63.4444 115.379 61.4185 116.365 59.0645 116.365C55.2685 116.365 52.2935 114.449 52.2935 111.018ZM55.9434 110.89C55.9434 112.478 57.5314 113.408 59.5934 113.408C62.4404 113.408 64.4474 111.456 64.4474 109.065C63.6994 108.682 62.0204 108.225 60.1224 108.225C57.8414 108.225 55.9434 108.992 55.9434 110.89ZM71.9944 114.138C71.9944 112.897 72.9434 111.894 74.2214 111.894C75.4984 111.894 76.4655 112.897 76.4655 114.138C76.4655 115.379 75.4984 116.365 74.2214 116.365C72.9434 116.365 71.9944 115.379 71.9944 114.138Z" fill="#29424D"/>
</g>
<defs>
<clipPath id="clip0_729_498">
<rect width="19" height="28" fill="white"/>
</clipPath>
</defs>
</svg>
