<svg width="182" height="77" viewBox="0 0 182 77" fill="none" xmlns="http://www.w3.org/2000/svg">
<g clipPath="url(#clip0_623_845)">
<path d="M85.3829 48.4029C85.3829 46.3799 84.6606 44.9773 82.4135 44.9773C80.4339 44.9773 79.2568 46.0562 79.2568 48.1062C79.2568 53.5277 88.2853 50.291 88.2853 57.3309C88.2853 61.7814 85.0485 63.0627 82.3466 63.0627C77.8792 63.0627 76.5684 60.743 76.5684 56.6566H78.9091C78.9091 58.8144 79.0428 61.1341 82.4937 61.1341C82.9378 61.1486 83.38 61.0702 83.7925 60.9038C84.2051 60.7374 84.5789 60.4867 84.8906 60.1674C85.2022 59.8481 85.4449 59.4672 85.6033 59.0486C85.7617 58.6301 85.8323 58.183 85.8109 57.7355C85.8109 52.287 76.7824 55.4428 76.7824 48.3759C76.7824 46.5957 77.5314 43.0623 82.3733 43.0623C86.0115 43.0623 87.6701 44.8964 87.7236 48.4299L85.3829 48.4029Z" fill="black"/>
<path d="M94.5854 51.9096H95.7624C97.7688 51.9096 98.6515 50.4531 98.6515 48.538C98.6515 46.7848 98.0095 45.3552 96.1904 45.3552C93.7026 45.3552 93.4618 47.6749 93.4618 49.064H91.1211C91.1211 45.8003 92.6459 43.5615 96.1369 43.5615C100.096 43.5615 101.006 46.3937 101.006 48.5245C101.006 50.4396 100.043 52.1389 98.063 52.6244V52.6784C100.203 53.1099 101.567 54.4855 101.567 57.1289C101.567 60.6084 99.8286 63.036 96.1904 63.036C91.1077 63.036 90.8135 58.5584 90.8135 57.7223V57.4795H93.1542C93.1542 59.2328 94.0102 61.2557 96.1637 61.2557C97.5548 61.2557 99.1732 60.5544 99.1732 57.3177C99.1732 55.0789 98.1032 53.6764 95.7491 53.6764H94.5453L94.5854 51.9096Z" fill="black"/>
<path d="M19.869 6.14309C23.6944 4.2179 27.5064 2.26911 31.3452 0.374268C31.3787 6.78033 31.3452 13.2134 31.3452 19.6329C27.6068 20.4691 23.9151 21.521 20.1766 22.3538L20.6916 22.691L19.9091 22.5999C19.8222 20.8096 19.9091 19.0159 19.8623 17.2256C19.8623 13.5236 19.869 9.83164 19.869 6.14309Z" fill="#4F5059"/>
<path d="M31.3438 0.374268C35.1714 2.30732 39.0013 4.23701 42.8334 6.16332V17.2121C42.8133 18.9249 42.8334 20.641 42.8334 22.3538L42.5859 22.4212C38.8508 21.4738 35.119 20.4994 31.3638 19.6329C31.3404 13.2134 31.3772 6.78033 31.3438 0.374268Z" fill="#AAAAAA"/>
<path d="M0.0517578 16.123C1.75045 15.2868 3.42574 14.3967 5.13782 13.5808C5.12444 30.1624 5.12444 46.744 5.13782 63.3256C3.42574 62.5332 1.76383 61.6398 0.0651334 60.8036C0.0562163 45.9168 0.0517578 31.0233 0.0517578 16.123Z" fill="#4F5059"/>
<path d="M5.13601 13.5808C10.0348 14.8452 14.967 15.9679 19.8692 17.2323C19.9026 19.0226 19.8291 20.8163 19.916 22.6066L20.6985 22.6976C24.2497 23.2776 27.7641 24.0463 31.3187 24.5891C31.3588 26.0355 31.3521 27.4786 31.3187 28.925C27.5133 29.3701 23.6913 29.8387 19.8759 30.3815C19.8759 35.8065 19.8959 41.2348 19.8759 46.6597C23.6812 47.2565 27.5133 47.6712 31.3321 48.1567C31.409 49.5829 31.3588 51.0124 31.3555 52.442C27.5234 53.0927 23.7046 53.8176 19.8893 54.5526V59.7078C14.9604 60.9452 10.0348 62.0747 5.12598 63.3222C5.14381 46.7429 5.14715 30.1624 5.13601 13.5808Z" fill="#AAAAAA"/>
<path d="M42.8281 17.2123C47.7437 15.9816 52.6692 14.7948 57.5914 13.5979C57.5736 29.703 57.5736 45.808 57.5914 61.9131C57.5914 62.3716 57.5446 62.8302 57.5045 63.2887C52.609 62.1188 47.7236 60.9286 42.8315 59.7182C42.8114 57.9986 42.8315 56.2758 42.8315 54.5529C39.0094 53.8179 35.1807 53.093 31.3419 52.4355C31.3419 51.0059 31.3954 49.5764 31.3185 48.1502C27.4998 47.6748 23.6677 47.25 19.8623 46.6532C19.8991 41.2283 19.8623 35.8 19.8623 30.375C23.6944 29.839 27.5165 29.3703 31.3385 28.9084C31.3553 27.462 31.3619 26.0189 31.3385 24.5725C34.552 24.1106 37.7287 23.3857 40.9422 22.8867C41.5075 22.7937 42.0613 22.64 42.5941 22.4282L42.8415 22.3607C42.8181 20.6378 42.8081 18.9183 42.8281 17.2123Z" fill="#4F5059"/>
<path d="M57.5921 13.5979C59.264 14.4644 60.9761 15.2837 62.6581 16.1637C62.6425 31.0415 62.6425 45.9193 62.6581 60.7971C60.9393 61.6703 59.2005 62.5099 57.4951 63.4168V63.2921C57.5352 62.8335 57.5687 62.375 57.5821 61.9165C57.5843 45.8092 57.5876 29.703 57.5921 13.5979Z" fill="#AAAAAA"/>
<path d="M20.1826 22.3537C23.9244 21.5209 27.6127 20.469 31.3512 19.6328C35.1064 20.4993 38.8382 21.4737 42.5733 22.4211C42.0405 22.633 41.4867 22.7867 40.9214 22.8797C37.7113 23.3854 34.5346 24.1103 31.3178 24.5655C27.7599 24.026 24.2454 23.2539 20.6976 22.674C20.527 22.5762 20.3532 22.4683 20.1826 22.3537Z" fill="#D9D9D9"/>
<path d="M31.3794 28.915C35.1914 29.3938 39.0102 29.8523 42.8189 30.3817V46.6565C39.0001 47.2161 35.168 47.7017 31.3359 48.1332C31.3894 41.7238 31.3058 35.3177 31.3794 28.915Z" fill="#AAAAAA"/>
<path d="M19.8779 54.5459C23.69 53.8109 27.512 53.086 31.3441 52.4353C35.1796 53.0928 39.0083 53.8177 42.8337 54.5527C39.005 55.5035 35.1863 56.5183 31.3408 57.4084C27.5087 56.488 23.6933 55.517 19.8779 54.5459Z" fill="#4F5059"/>
<path d="M19.8711 59.7145C19.8878 57.995 19.8711 56.2788 19.8711 54.5593C23.6864 55.527 27.5052 56.5014 31.3306 57.4218C31.3707 63.8279 31.3473 70.2542 31.3306 76.667C27.4884 74.7755 23.6764 72.8233 19.8477 70.8982C19.8633 67.1647 19.8711 63.4368 19.8711 59.7145Z" fill="#4F5059"/>
<path d="M31.3359 57.4117C35.1814 56.5216 39.0001 55.5067 42.8289 54.5559C42.8122 56.2754 42.8055 57.9983 42.8289 59.7212C42.8456 63.43 42.8289 67.1388 42.8289 70.8711C38.999 72.7974 35.1714 74.7271 31.346 76.6602C31.3527 70.2406 31.3761 63.8245 31.3359 57.4117Z" fill="#AAAAAA"/>
<path d="M84.1103 18.1528C81.0205 18.1528 77.6064 19.3598 76.8607 23.3046C76.8441 23.3773 76.8422 23.4526 76.855 23.5261C76.8678 23.5996 76.8951 23.6697 76.9354 23.7323C76.9756 23.7949 77.028 23.8487 77.0892 23.8905C77.1505 23.9323 77.2195 23.9612 77.2921 23.9756H77.3456L80.5156 24.3599C80.6608 24.3173 80.7886 24.2288 80.8801 24.1074C80.9716 23.986 81.022 23.8381 81.0239 23.6856C81.1437 23.0872 81.4764 22.5537 81.9592 22.1854C82.4421 21.8172 83.0418 21.6396 83.6455 21.6863C83.9931 21.6708 84.3392 21.7399 84.6547 21.8878C84.9701 22.0357 85.2456 22.258 85.4579 22.5359C85.8275 23.2885 85.9749 24.1322 85.8826 24.9668V25.4321C83.7947 25.5209 81.7299 25.908 79.7499 26.5818C78.6899 27.0352 77.7914 27.8024 77.1734 28.782C76.5554 29.7616 76.247 30.9073 76.2889 32.0674C76.2889 35.5672 78.4558 37.3103 81.1443 37.3103C82.1681 37.3725 83.1916 37.1839 84.1273 36.7606C85.0631 36.3373 85.8833 35.6918 86.5179 34.8794C86.9881 35.7107 87.6019 36.4506 88.3303 37.0642C88.4513 37.1298 88.5893 37.1562 88.7257 37.14C88.8621 37.1237 88.9903 37.0654 89.0927 36.9731C89.7615 36.3696 90.9051 35.2873 91.5839 34.7175C91.7038 34.5962 91.7711 34.4319 91.7711 34.2607C91.7711 34.0894 91.7038 33.9252 91.5839 33.8038C90.7957 32.9621 90.3494 31.8528 90.3333 30.6952V25.6176C90.3333 23.4328 90.5138 21.3525 88.9389 19.815C87.5823 18.6893 85.8664 18.0986 84.1103 18.1528ZM126.695 18.1528C123.605 18.1528 120.191 19.3598 119.445 23.3046C119.428 23.3766 119.425 23.4514 119.437 23.5245C119.449 23.5976 119.475 23.6676 119.514 23.7304C119.553 23.7932 119.603 23.8476 119.664 23.8902C119.724 23.9329 119.791 23.9631 119.863 23.979H119.917L123.103 24.3566C123.257 24.3221 123.394 24.2371 123.494 24.1149C123.594 23.9928 123.651 23.8405 123.655 23.6823C123.775 23.0845 124.107 22.5514 124.589 22.1832C125.071 21.815 125.67 21.6371 126.273 21.6829C126.621 21.6674 126.967 21.7365 127.283 21.8844C127.598 22.0323 127.874 22.2546 128.086 22.5325C128.437 23.2919 128.564 24.1366 128.454 24.9668V25.4321C126.38 25.5212 124.33 25.9084 122.364 26.5818C121.304 27.0352 120.406 27.8024 119.788 28.782C119.17 29.7616 118.862 30.9073 118.903 32.0674C118.903 35.5672 121.07 37.3103 123.759 37.3103C124.781 37.3709 125.802 37.1815 126.736 36.7582C127.67 36.3349 128.489 35.6904 129.122 34.8794C129.592 35.7112 130.206 36.4512 130.935 37.0642C131.056 37.1298 131.194 37.1562 131.33 37.14C131.467 37.1237 131.595 37.0654 131.697 36.9731C132.366 36.3696 133.51 35.2873 134.188 34.7175C134.302 34.593 134.365 34.43 134.365 34.2607C134.365 34.0914 134.302 33.9283 134.188 33.8038C133.411 32.9588 132.974 31.8513 132.965 30.6986V25.6176C132.965 23.4328 133.108 21.3525 131.533 19.815C130.178 18.6795 128.456 18.0877 126.695 18.1528ZM102.739 18.3248C101.778 18.3032 100.837 18.6036 100.063 19.1789C99.289 19.7542 98.7261 20.572 98.4623 21.5042V19.2553C98.4521 19.0986 98.3857 18.951 98.2756 18.84C98.1655 18.729 98.0191 18.6621 97.8637 18.6518H94.8542C94.6897 18.6561 94.5331 18.7239 94.4167 18.8412C94.3004 18.9585 94.2331 19.1164 94.2289 19.2823V36.5382C94.2443 36.693 94.3124 36.8376 94.4214 36.9476C94.5305 37.0576 94.674 37.1262 94.8275 37.1417H98.0811C98.2456 37.1375 98.4022 37.0697 98.5185 36.9523C98.6349 36.835 98.7022 36.6771 98.7064 36.5112V27.3775C98.7064 25.3782 98.6061 22.6573 100.943 22.6573C103.281 22.6573 102.926 25.4726 102.926 27.3775V36.5146C102.936 36.6742 103.001 36.8252 103.111 36.9407C103.22 37.0561 103.367 37.1286 103.525 37.1451H106.779C106.943 37.1408 107.1 37.073 107.216 36.9557C107.332 36.8384 107.4 36.6805 107.404 36.5146V27.3775C107.329 26.2754 107.427 25.1682 107.695 24.097C107.833 23.6919 108.086 23.3365 108.422 23.0752C108.758 22.8138 109.164 22.658 109.587 22.6269C110.031 22.5705 110.48 22.6933 110.834 22.9687C111.189 23.2441 111.421 23.6497 111.48 24.097C111.588 25.1869 111.618 26.2832 111.57 27.3775V36.5146C111.58 36.6742 111.645 36.8252 111.755 36.9407C111.864 37.0561 112.011 37.1286 112.169 37.1451H115.412C115.577 37.1408 115.734 37.073 115.85 36.9557C115.966 36.8384 116.034 36.6805 116.038 36.5146V25.5602C116.038 23.7328 116.218 21.6053 115.195 20.1421C114.67 19.4789 113.979 18.9688 113.194 18.6641C112.408 18.3595 111.556 18.2713 110.726 18.4086C109.895 18.546 109.116 18.9039 108.468 19.4456C107.82 19.9873 107.327 20.6932 107.039 21.4907C106.036 19.3362 104.766 18.3382 102.736 18.3382L102.739 18.3248ZM158.07 18.3248C153.389 18.3248 150.757 22.4921 150.757 27.863C150.757 33.234 153.339 37.4924 158.07 37.4924C162.601 37.4924 165.501 33.2981 165.501 28.0283C165.501 22.6033 162.866 18.3248 158.007 18.3248H158.07ZM176.626 18.3248C174.379 18.3248 173.101 19.4205 172.185 21.8144V19.1845C172.149 19.0523 172.072 18.9353 171.965 18.8514C171.857 18.7674 171.726 18.7211 171.59 18.7192H168.58C168.426 18.7159 168.276 18.7712 168.16 18.8743C168.044 18.9774 167.971 19.1206 167.955 19.2756V36.5146C167.964 36.6742 168.03 36.8252 168.14 36.9407C168.249 37.0561 168.396 37.1286 168.554 37.1451H171.807C171.972 37.1408 172.128 37.073 172.245 36.9557C172.361 36.8384 172.428 36.6805 172.433 36.5146V27.2326C172.386 26.1121 172.574 24.9942 172.984 23.952C173.116 23.5774 173.35 23.248 173.659 23.0021C173.969 22.7562 174.341 22.6039 174.733 22.5629C176.98 22.5629 176.763 25.304 176.763 27.2022V36.5753C176.783 36.7235 176.854 36.8599 176.964 36.9613C177.073 37.0628 177.213 37.1229 177.361 37.1316H180.618C180.771 37.1291 180.918 37.0717 181.033 36.9698C181.147 36.8678 181.222 36.7279 181.244 36.5753V25.7356C181.244 24.0498 181.244 21.7436 180.401 20.3646C180.005 19.7149 179.445 19.1831 178.778 18.8234C178.111 18.4638 177.361 18.2894 176.606 18.318L176.626 18.3248ZM137.566 18.6181C137.407 18.6181 137.255 18.6817 137.143 18.7949C137.03 18.908 136.967 19.0615 136.967 19.2216V21.6964C136.96 21.8548 137.015 22.0098 137.12 22.1278C137.225 22.2458 137.372 22.3173 137.529 22.3269H143.137L136.783 31.818C136.478 32.3256 136.321 32.9101 136.332 33.5038V36.0156C136.327 36.1097 136.346 36.2035 136.387 36.2884C136.427 36.3733 136.488 36.4467 136.564 36.502C136.639 36.5572 136.727 36.5925 136.82 36.6048C136.913 36.617 137.007 36.6057 137.094 36.5719C138.83 35.6403 140.767 35.1531 142.734 35.1531C144.7 35.1531 146.637 35.6403 148.373 36.5719C148.463 36.6094 148.562 36.6237 148.659 36.6134C148.756 36.6032 148.849 36.5687 148.929 36.5132C149.01 36.4577 149.076 36.3829 149.12 36.2954C149.165 36.2079 149.188 36.1106 149.186 36.0122V33.4161C149.174 33.2242 149.113 33.0388 149.008 32.8784C148.903 32.7181 148.758 32.5884 148.587 32.5024C146.721 31.488 144.615 31.0087 142.498 31.1167L148.035 22.8933C148.433 22.4606 148.714 21.9324 148.851 21.3592V19.2553C148.859 19.0969 148.804 18.9419 148.699 18.8239C148.594 18.7059 148.447 18.6344 148.29 18.6248H137.589L137.566 18.6181ZM158.06 21.8987C158.559 21.8671 159.051 22.0178 159.448 22.3232C159.845 22.6285 160.119 23.068 160.221 23.5609C160.587 25.0542 160.743 26.5922 160.682 28.1294C160.682 30.3142 160.572 34.0028 158.064 34.0028C155.556 34.0028 155.539 29.4342 155.539 27.3472C155.539 25.2602 155.65 21.865 158.004 21.865L158.06 21.8987ZM85.8324 28.1564V28.8779C85.9566 30.0986 85.7497 31.3303 85.2338 32.4417C85.0339 32.8779 84.7202 33.251 84.3261 33.5212C83.9321 33.7915 83.4726 33.9486 82.9968 33.9758C81.7462 33.9758 81.0139 32.9643 81.0139 31.501C80.9771 28.6689 83.5051 28.1665 85.8424 28.1665L85.8324 28.1564ZM128.417 28.1564V28.8779C128.544 30.1041 128.337 31.3422 127.818 32.4586C127.619 32.8954 127.306 33.2692 126.912 33.5395C126.517 33.8099 126.057 33.9665 125.581 33.9926C124.331 33.9926 123.598 32.9812 123.598 31.5179C123.598 28.6588 126.063 28.1463 128.4 28.1463L128.417 28.1564Z" fill="#201C1D"/>
</g>
<defs>
<clipPath id="clip0_623_845">
<rect width="181.195" height="76.2928" fill="white" transform="translate(0.0517578 0.374268)"/>
</clipPath>
</defs>
</svg>
