<svg width="182" height="77" viewBox="0 0 182 77" fill="none" xmlns="http://www.w3.org/2000/svg">
<g clip-path="url(#clip0_8_9665)">
<path d="M85.3301 48.0286C85.3301 46.0057 84.6078 44.6031 82.3607 44.6031C80.3812 44.6031 79.2041 45.682 79.2041 47.7319C79.2041 53.1535 88.2326 49.9167 88.2326 56.9566C88.2326 61.4072 84.9957 62.6884 82.2939 62.6884C77.8264 62.6884 76.5156 60.3687 76.5156 56.2823H78.8563C78.8563 58.4402 78.9901 60.7598 82.441 60.7598C82.8851 60.7743 83.3273 60.6959 83.7398 60.5295C84.1523 60.3631 84.5262 60.1124 84.8378 59.7931C85.1495 59.4738 85.3921 59.0929 85.5505 58.6743C85.7089 58.2558 85.7796 57.8087 85.7581 57.3612C85.7581 51.9127 76.7296 55.0685 76.7296 48.0016C76.7296 46.2214 77.4787 42.688 82.3206 42.688C85.9588 42.688 87.6173 44.5221 87.6708 48.0556L85.3301 48.0286Z" fill="black"/>
<path d="M94.5336 51.5351H95.7107C97.717 51.5351 98.5998 50.0786 98.5998 48.1635C98.5998 46.4103 97.9578 44.9807 96.1387 44.9807C93.6508 44.9807 93.4101 47.3004 93.4101 48.6895H91.0694C91.0694 45.4258 92.5942 43.187 96.0852 43.187C100.044 43.187 100.954 46.0192 100.954 48.15C100.954 50.0651 99.9909 51.7644 98.0113 52.2499V52.3039C100.151 52.7354 101.516 54.111 101.516 56.7544C101.516 60.2339 99.7768 62.6614 96.1387 62.6614C91.056 62.6614 90.7617 58.1839 90.7617 57.3478V57.105H93.1024C93.1024 58.8583 93.9585 60.8812 96.1119 60.8812C97.503 60.8812 99.1214 60.1799 99.1214 56.9432C99.1214 54.7044 98.0514 53.3018 95.6973 53.3018H94.4935L94.5336 51.5351Z" fill="black"/>
<path d="M19.8172 5.76883C23.6426 3.84364 27.4547 1.89485 31.2935 0C31.3269 6.40606 31.2935 12.8391 31.2935 19.2586C27.555 20.0948 23.8633 21.1467 20.1249 21.9795L20.6398 22.3167L19.8574 22.2257C19.7704 20.4353 19.8574 18.6416 19.8105 16.8513C19.8105 13.1493 19.8172 9.45737 19.8172 5.76883Z" fill="#813829"/>
<path d="M31.293 0C35.1206 1.93306 38.9505 3.86274 42.7826 5.78906V16.8378C42.7625 18.5506 42.7826 20.2668 42.7826 21.9795L42.5351 22.047C38.8 21.0995 35.0682 20.1251 31.313 19.2586C31.2896 12.8391 31.3264 6.40606 31.293 0Z" fill="#D15D4B"/>
<path d="M0 15.7487C1.6987 14.9126 3.37399 14.0225 5.08606 13.2065C5.07268 29.7881 5.07268 46.3697 5.08606 62.9513C3.37399 62.159 1.71207 61.2655 0.0133756 60.4293C0.00445852 45.5425 0 30.649 0 15.7487Z" fill="#813829"/>
<path d="M5.08425 13.2065C9.98305 14.4709 14.9153 15.5936 19.8174 16.858C19.8509 18.6483 19.7773 20.442 19.8642 22.2323L20.6467 22.3234C24.1979 22.9033 27.7124 23.672 31.2669 24.2149C31.307 25.6613 31.3004 27.1043 31.2669 28.5507C27.4616 28.9958 23.6395 29.4645 19.8241 30.0073C19.8241 35.4322 19.8442 40.8605 19.8241 46.2854C23.6295 46.8822 27.4616 47.2969 31.2803 47.7824C31.3572 49.2086 31.307 50.6382 31.3037 52.0677C27.4716 52.7185 23.6529 53.4434 19.8375 54.1784V59.3336C14.9086 60.5709 9.98305 61.7004 5.07422 62.9479C5.09205 46.3686 5.0954 29.7881 5.08425 13.2065Z" fill="#D15D4B"/>
<path d="M42.7764 16.838C47.6919 15.6074 52.6175 14.4206 57.5397 13.2236C57.5218 29.3287 57.5218 45.4338 57.5397 61.5388C57.5397 61.9974 57.4929 62.4559 57.4527 62.9144C52.5573 61.7445 47.6718 60.5543 42.7797 59.3439C42.7597 57.6244 42.7797 55.9015 42.7797 54.1786C38.9577 53.4436 35.1289 52.7187 31.2901 52.0612C31.2901 50.6317 31.3436 49.2021 31.2667 47.7759C27.448 47.3005 23.6159 46.8757 19.8105 46.2789C19.8473 40.854 19.8105 35.4257 19.8105 30.0008C23.6426 29.4647 27.4647 28.996 31.2868 28.5341C31.3035 27.0877 31.3102 25.6446 31.2868 24.1982C34.5003 23.7363 37.677 23.0114 40.8904 22.5124C41.4557 22.4194 42.0095 22.2657 42.5423 22.0539L42.7898 21.9865C42.7664 20.2636 42.7563 18.544 42.7764 16.838Z" fill="#813829"/>
<path d="M57.5403 13.2236C59.2123 14.0901 60.9244 14.9094 62.6063 15.7894C62.5907 30.6672 62.5907 45.545 62.6063 60.4228C60.8876 61.2961 59.1487 62.1356 57.4434 63.0426V62.9178C57.4835 62.4593 57.5169 62.0007 57.5303 61.5422C57.5325 45.4349 57.5359 29.3287 57.5403 13.2236Z" fill="#D15D4B"/>
<path d="M20.1309 21.9792C23.8727 21.1464 27.561 20.0945 31.2995 19.2583C35.0546 20.1248 38.7864 21.0992 42.5216 22.0466C41.9887 22.2585 41.435 22.4122 40.8697 22.5052C37.6595 23.0109 34.4828 23.7358 31.266 24.191C27.7081 23.6515 24.1937 22.8794 20.6458 22.2995C20.4753 22.2017 20.3014 22.0938 20.1309 21.9792Z" fill="#D9D9D9"/>
<path d="M31.3286 28.541C35.1407 29.0198 38.9594 29.4783 42.7681 30.0077V46.2824C38.9494 46.8421 35.1173 47.3276 31.2852 47.7592C31.3387 41.3498 31.2551 34.9437 31.3286 28.541Z" fill="#D15D4B"/>
<path d="M19.8262 54.1717C23.6382 53.4367 27.4603 52.7118 31.2924 52.061C35.1278 52.7185 38.9566 53.4434 42.782 54.1784C38.9532 55.1292 35.1345 56.1441 31.289 57.0342C27.4569 56.1137 23.6416 55.1427 19.8262 54.1717Z" fill="#813829"/>
<path d="M19.8203 59.3403C19.837 57.6207 19.8203 55.9046 19.8203 54.1851C23.6357 55.1527 27.4544 56.1271 31.2798 57.0476C31.3199 63.4536 31.2965 69.8799 31.2798 76.2927C27.4377 74.4012 23.6256 72.4491 19.7969 70.5239C19.8125 66.7904 19.8203 63.0625 19.8203 59.3403Z" fill="#813829"/>
<path d="M31.2852 57.0374C35.1306 56.1473 38.9494 55.1324 42.7781 54.1816C42.7614 55.9012 42.7547 57.6241 42.7781 59.347C42.7948 63.0557 42.7781 66.7645 42.7781 70.4969C38.9482 72.4232 35.1206 74.3529 31.2952 76.2859C31.3019 69.8664 31.3253 63.4502 31.2852 57.0374Z" fill="#D15D4B"/>
<path d="M84.0576 17.7783C80.9678 17.7783 77.5537 18.9853 76.808 22.9301C76.7914 23.0028 76.7894 23.0781 76.8022 23.1516C76.8151 23.2251 76.8424 23.2952 76.8827 23.3578C76.9229 23.4204 76.9752 23.4742 77.0365 23.516C77.0978 23.5578 77.1668 23.5867 77.2394 23.6011H77.2929L80.4629 23.9854C80.6081 23.9428 80.7359 23.8543 80.8274 23.7328C80.9189 23.6114 80.9693 23.4636 80.9712 23.3111C81.091 22.7127 81.4236 22.1792 81.9065 21.8109C82.3894 21.4427 82.9891 21.2651 83.5928 21.3117C83.9403 21.2963 84.2865 21.3654 84.6019 21.5133C84.9174 21.6612 85.1929 21.8835 85.4052 22.1614C85.7747 22.914 85.9222 23.7577 85.8298 24.5923V25.0576C83.742 25.1464 81.6771 25.5335 79.6971 26.2073C78.6371 26.6607 77.7387 27.4279 77.1207 28.4075C76.5027 29.3871 76.1942 30.5327 76.2362 31.6929C76.2362 35.1927 78.403 36.9358 81.0915 36.9358C82.1153 36.998 83.1388 36.8094 84.0746 36.3861C85.0104 35.9628 85.8306 35.3173 86.4652 34.5049C86.9354 35.3362 87.5492 36.0761 88.2776 36.6897C88.3985 36.7553 88.5366 36.7817 88.673 36.7654C88.8094 36.7492 88.9375 36.6909 89.04 36.5986C89.7087 35.9951 90.8523 34.9128 91.5312 34.343C91.651 34.2217 91.7183 34.0574 91.7183 33.8862C91.7183 33.7149 91.651 33.5506 91.5312 33.4293C90.7429 32.5876 90.2966 31.4782 90.2805 30.3207V25.243C90.2805 23.0582 90.4611 20.978 88.8861 19.4405C87.5295 18.3148 85.8137 17.7241 84.0576 17.7783ZM126.642 17.7783C123.552 17.7783 120.138 18.9853 119.392 22.9301C119.375 23.0021 119.372 23.0768 119.384 23.15C119.396 23.2231 119.422 23.2931 119.461 23.3559C119.5 23.4187 119.551 23.473 119.611 23.5157C119.671 23.5584 119.739 23.5886 119.81 23.6044H119.864L123.051 23.9821C123.204 23.9476 123.341 23.8626 123.441 23.7404C123.541 23.6183 123.598 23.466 123.602 23.3077C123.722 22.71 124.054 22.1769 124.536 21.8087C125.019 21.4405 125.618 21.2626 126.221 21.3084C126.568 21.2929 126.914 21.362 127.23 21.5099C127.545 21.6578 127.821 21.8801 128.033 22.158C128.384 22.9173 128.512 23.7621 128.401 24.5923V25.0576C126.327 25.1467 124.277 25.5339 122.312 26.2073C121.252 26.6607 120.353 27.4279 119.735 28.4075C119.117 29.3871 118.809 30.5327 118.851 31.6929C118.851 35.1927 121.018 36.9358 123.706 36.9358C124.728 36.9964 125.75 36.8069 126.684 36.3837C127.617 35.9604 128.436 35.3158 129.07 34.5049C129.539 35.3366 130.153 36.0767 130.882 36.6897C131.003 36.7553 131.141 36.7817 131.278 36.7654C131.414 36.7492 131.542 36.6909 131.644 36.5986C132.313 35.9951 133.457 34.9128 134.136 34.343C134.249 34.2185 134.313 34.0554 134.313 33.8862C134.313 33.7169 134.249 33.5538 134.136 33.4293C133.358 32.5843 132.921 31.4768 132.912 30.3241V25.243C132.912 23.0582 133.056 20.978 131.481 19.4405C130.126 18.305 128.403 17.7131 126.642 17.7783ZM102.686 17.9503C101.725 17.9287 100.784 18.2291 100.01 18.8044C99.2362 19.3797 98.6733 20.1974 98.4095 21.1297V18.8808C98.3993 18.7241 98.333 18.5765 98.2229 18.4655C98.1128 18.3545 97.9664 18.2876 97.811 18.2773H94.8015C94.637 18.2816 94.4804 18.3494 94.364 18.4667C94.2477 18.584 94.1804 18.7419 94.1762 18.9078V36.1637C94.1916 36.3185 94.2596 36.4631 94.3687 36.5731C94.4778 36.6831 94.6212 36.7517 94.7747 36.7672H98.0283C98.1929 36.7629 98.3494 36.6952 98.4658 36.5778C98.5822 36.4605 98.6494 36.3026 98.6537 36.1367V27.003C98.6537 25.0037 98.5533 22.2828 100.891 22.2828C103.228 22.2828 102.874 25.0981 102.874 27.003V36.1401C102.883 36.2997 102.948 36.4507 103.058 36.5661C103.168 36.6816 103.315 36.7541 103.472 36.7706H106.726C106.89 36.7663 107.047 36.6985 107.163 36.5812C107.28 36.4639 107.347 36.306 107.351 36.1401V27.003C107.276 25.9009 107.374 24.7937 107.642 23.7224C107.78 23.3173 108.033 22.962 108.369 22.7007C108.706 22.4393 109.111 22.2834 109.535 22.2524C109.979 22.196 110.427 22.3188 110.781 22.5942C111.136 22.8696 111.368 23.2751 111.427 23.7224C111.535 24.8124 111.566 25.9087 111.518 27.003V36.1401C111.527 36.2997 111.592 36.4507 111.702 36.5661C111.812 36.6816 111.958 36.7541 112.116 36.7706H115.36C115.524 36.7663 115.681 36.6985 115.797 36.5812C115.914 36.4639 115.981 36.306 115.985 36.1401V25.1857C115.985 23.3583 116.166 21.2308 115.142 19.7675C114.617 19.1044 113.926 18.5943 113.141 18.2896C112.355 17.985 111.503 17.8968 110.673 18.0341C109.842 18.1714 109.063 18.5294 108.415 19.0711C107.767 19.6127 107.274 20.3187 106.987 21.1162C105.983 18.9617 104.713 17.9637 102.683 17.9637L102.686 17.9503ZM158.018 17.9503C153.336 17.9503 150.705 22.1176 150.705 27.4885C150.705 32.8595 153.286 37.1179 158.018 37.1179C162.549 37.1179 165.448 32.9236 165.448 27.6537C165.448 22.2288 162.813 17.9503 157.954 17.9503H158.018ZM176.573 17.9503C174.326 17.9503 173.049 19.046 172.132 21.4399V18.81C172.097 18.6778 172.019 18.5608 171.912 18.4769C171.805 18.3929 171.673 18.3465 171.537 18.3447H168.528C168.373 18.3414 168.223 18.3967 168.107 18.4998C167.991 18.6028 167.918 18.7461 167.902 18.901V36.1401C167.912 36.2997 167.977 36.4507 168.087 36.5661C168.196 36.6816 168.343 36.7541 168.501 36.7706H171.754C171.919 36.7663 172.076 36.6985 172.192 36.5812C172.308 36.4639 172.376 36.306 172.38 36.1401V26.858C172.333 25.7376 172.521 24.6197 172.932 23.5775C173.063 23.2029 173.297 22.8735 173.606 22.6276C173.916 22.3817 174.288 22.2294 174.68 22.1884C176.927 22.1884 176.71 24.9295 176.71 26.8277V36.2008C176.731 36.349 176.802 36.4854 176.911 36.5868C177.02 36.6882 177.16 36.7484 177.309 36.7571H180.566C180.718 36.7546 180.865 36.6972 180.98 36.5952C181.095 36.4933 181.169 36.3534 181.191 36.2008V25.3611C181.191 23.6752 181.191 21.3691 180.348 19.9901C179.952 19.3404 179.392 18.8085 178.725 18.4489C178.058 18.0893 177.309 17.9149 176.553 17.9435L176.573 17.9503ZM137.513 18.2436C137.354 18.2436 137.202 18.3072 137.09 18.4203C136.978 18.5335 136.914 18.687 136.914 18.8471V21.3219C136.907 21.4803 136.962 21.6353 137.067 21.7533C137.172 21.8713 137.319 21.9428 137.476 21.9524H143.084L136.731 31.4434C136.425 31.9511 136.269 32.5356 136.279 33.1292V35.6411C136.275 35.7352 136.293 35.829 136.334 35.9139C136.374 35.9988 136.435 36.0722 136.511 36.1275C136.587 36.1827 136.675 36.218 136.767 36.2302C136.86 36.2425 136.954 36.2312 137.042 36.1974C138.778 35.2658 140.714 34.7786 142.681 34.7786C144.648 34.7786 146.584 35.2658 148.32 36.1974C148.411 36.2349 148.509 36.2492 148.606 36.2389C148.703 36.2287 148.796 36.1942 148.877 36.1387C148.957 36.0832 149.023 36.0083 149.068 35.9209C149.112 35.8334 149.135 35.7361 149.133 35.6377V33.0416C149.121 32.8497 149.06 32.6643 148.955 32.5039C148.85 32.3436 148.705 32.2139 148.534 32.1279C146.669 31.1135 144.562 30.6342 142.445 30.7421L147.983 22.5188C148.38 22.0861 148.661 21.5579 148.799 20.9847V18.8808C148.806 18.7224 148.751 18.5674 148.646 18.4494C148.541 18.3314 148.394 18.2599 148.237 18.2503H137.536L137.513 18.2436ZM158.008 21.5242C158.506 21.4926 158.999 21.6433 159.396 21.9487C159.792 22.254 160.067 22.6935 160.168 23.1864C160.535 24.6796 160.69 26.2177 160.629 27.7549C160.629 29.9397 160.519 33.6282 158.011 33.6282C155.503 33.6282 155.486 29.0597 155.486 26.9727C155.486 24.8857 155.597 21.4904 157.951 21.4904L158.008 21.5242ZM85.7797 27.7819V28.5034C85.9038 29.7241 85.6969 30.9558 85.1811 32.0672C84.9812 32.5034 84.6674 32.8765 84.2734 33.1467C83.8793 33.417 83.4198 33.5741 82.944 33.6013C81.6934 33.6013 80.9611 32.5898 80.9611 31.1265C80.9243 28.2944 83.4523 27.792 85.7897 27.792L85.7797 27.7819ZM128.364 27.7819V28.5034C128.492 29.7296 128.285 30.9677 127.766 32.084C127.567 32.5209 127.253 32.8946 126.859 33.165C126.465 33.4353 126.005 33.592 125.529 33.6181C124.278 33.6181 123.546 32.6066 123.546 31.1434C123.546 28.2842 126.01 27.7718 128.347 27.7718L128.364 27.7819Z" fill="#201C1D"/>
</g>
<defs>
<clipPath id="clip0_8_9665">
<rect width="181.195" height="76.2928" fill="white"/>
</clipPath>
</defs>
</svg>
