<svg width="1674" height="1737" viewBox="0 0 1674 1737" fill="none" xmlns="http://www.w3.org/2000/svg">
<path opacity="0.5" d="M390.398 814.19L22.0975 439.838C15.1216 432.754 9.5875 424.343 5.8118 415.084C2.03609 405.825 0.092689 395.901 0.0926881 385.879C0.0926873 375.856 2.03609 365.932 5.81179 356.673C9.5875 347.414 15.1216 339.003 22.0975 331.919L325.799 22.5651C332.736 15.4176 341.002 9.74225 350.115 5.86861C359.228 1.99497 369.008 0.00016959 378.886 0.000168758C388.764 0.000167925 398.544 1.99497 407.657 5.86861C416.77 9.74225 425.036 15.4176 431.973 22.5651L1210.8 814.19C1217.82 821.239 1223.39 829.635 1227.19 838.889C1231 848.143 1232.96 858.073 1232.96 868.102C1232.96 878.131 1231 888.06 1227.19 897.314C1223.39 906.568 1217.82 914.964 1210.8 922.014L431.973 1713.64C425.036 1720.79 416.77 1726.46 407.657 1730.33C398.544 1734.21 388.764 1736.2 378.886 1736.2C369.008 1736.2 359.228 1734.21 350.115 1730.33C341.002 1726.46 332.736 1720.79 325.799 1713.64L22.0043 1404.38C15.0284 1397.3 9.49442 1388.88 5.71871 1379.63C1.94301 1370.37 -0.000395609 1360.44 -0.000396454 1350.42C-0.000397299 1340.4 1.943 1330.47 5.71871 1321.21C9.49441 1311.96 15.0284 1303.54 22.0042 1296.46L390.398 922.014C404.458 907.711 412.356 888.32 412.356 868.102C412.356 847.883 404.458 828.492 390.398 814.19Z" fill="#7EE49C"/>
<path d="M804.959 814.19L425.384 439.838C418.194 432.754 412.491 424.343 408.599 415.084C404.708 405.825 402.705 395.901 402.705 385.879C402.705 375.856 404.708 365.932 408.599 356.673C412.491 347.414 418.194 339.003 425.384 331.919L738.382 22.5651C745.532 15.4177 754.05 9.74226 763.442 5.86861C772.835 1.99497 782.914 0.00017182 793.094 0.000170961C803.275 0.000170103 813.354 1.99497 822.746 5.86861C832.138 9.74225 840.657 15.4176 847.806 22.5651L1650.48 814.19C1657.71 821.239 1663.45 829.635 1667.37 838.889C1671.29 848.143 1673.31 858.073 1673.31 868.102C1673.31 878.131 1671.29 888.06 1667.37 897.314C1663.45 906.568 1657.71 914.964 1650.48 922.014L847.807 1713.64C840.657 1720.79 832.138 1726.46 822.746 1730.33C813.354 1734.21 803.275 1736.2 793.094 1736.2C782.914 1736.2 772.835 1734.21 763.443 1730.33C754.05 1726.46 745.532 1720.79 738.382 1713.64L425.288 1404.38C418.098 1397.3 412.395 1388.88 408.504 1379.63C404.612 1370.37 402.609 1360.44 402.609 1350.42C402.609 1340.4 404.612 1330.47 408.504 1321.21C412.395 1311.96 418.098 1303.54 425.288 1296.46L804.959 922.014C819.449 907.711 827.589 888.32 827.589 868.102C827.589 847.883 819.449 828.492 804.959 814.19Z" fill="#7EE49C"/>
</svg>
