<svg width="45" height="44" viewBox="0 0 45 44" fill="none" xmlns="http://www.w3.org/2000/svg">
<g opacity="0.5">
<path d="M21.3031 33.9811L11.6818 43.4328C11.4997 43.6118 11.2835 43.7539 11.0455 43.8508C10.8076 43.9476 10.5525 43.9975 10.2949 43.9975C10.0373 43.9975 9.78227 43.9476 9.54431 43.8508C9.30635 43.7539 9.09016 43.6118 8.9081 43.4328L0.957305 35.6389C0.773605 35.4608 0.627742 35.2487 0.528182 35.0149C0.428626 34.781 0.377357 34.53 0.377357 34.2765C0.377357 34.023 0.428626 33.772 0.528182 33.5381C0.627742 33.3043 0.773604 33.0922 0.957305 32.9141L21.3031 12.9269C21.4843 12.7468 21.7 12.6038 21.9379 12.5062C22.1757 12.4087 22.4309 12.3584 22.6887 12.3584C22.9464 12.3584 23.2016 12.4087 23.4395 12.5062C23.6773 12.6038 23.8931 12.7468 24.0743 12.9269L44.4201 32.9141C44.6038 33.0921 44.7496 33.3043 44.8492 33.5381C44.9487 33.772 45 34.023 45 34.2765C45 34.53 44.9487 34.781 44.8492 35.0148C44.7496 35.2487 44.6038 35.4608 44.4201 35.6389L36.4717 43.4352C36.2896 43.6142 36.0734 43.7562 35.8355 43.8531C35.5975 43.95 35.3425 43.9999 35.0849 43.9999C34.8273 43.9999 34.5722 43.95 34.3342 43.8531C34.0963 43.7562 33.8801 43.6142 33.698 43.4352L24.0743 33.9811C23.7067 33.6202 23.2083 33.4175 22.6887 33.4175C22.169 33.4175 21.6707 33.6202 21.3031 33.9811Z" fill="#7EE49C"/>
<path d="M21.3031 33.9811L11.6818 43.4328C11.4997 43.6118 11.2835 43.7539 11.0455 43.8508C10.8076 43.9476 10.5525 43.9975 10.2949 43.9975C10.0373 43.9975 9.78227 43.9476 9.54431 43.8508C9.30635 43.7539 9.09016 43.6118 8.9081 43.4328L0.957305 35.6389C0.773605 35.4608 0.627742 35.2487 0.528182 35.0149C0.428626 34.781 0.377357 34.53 0.377357 34.2765C0.377357 34.023 0.428626 33.772 0.528182 33.5381C0.627742 33.3043 0.773604 33.0922 0.957305 32.9141L21.3031 12.9269C21.4843 12.7468 21.7 12.6038 21.9379 12.5062C22.1757 12.4087 22.4309 12.3584 22.6887 12.3584C22.9464 12.3584 23.2016 12.4087 23.4395 12.5062C23.6773 12.6038 23.8931 12.7468 24.0743 12.9269L44.4201 32.9141C44.6038 33.0921 44.7496 33.3043 44.8492 33.5381C44.9487 33.772 45 34.023 45 34.2765C45 34.53 44.9487 34.781 44.8492 35.0148C44.7496 35.2487 44.6038 35.4608 44.4201 35.6389L36.4717 43.4352C36.2896 43.6142 36.0734 43.7562 35.8355 43.8531C35.5975 43.95 35.3425 43.9999 35.0849 43.9999C34.8273 43.9999 34.5722 43.95 34.3342 43.8531C34.0963 43.7562 33.8801 43.6142 33.698 43.4352L24.0743 33.9811C23.7067 33.6202 23.2083 33.4175 22.6887 33.4175C22.169 33.4175 21.6707 33.6202 21.3031 33.9811Z" fill="#7EE49C"/>
</g>
<path d="M21.3031 23.1756L11.6818 32.8697C11.4997 33.0533 11.2835 33.199 11.0455 33.2984C10.8076 33.3978 10.5525 33.4489 10.2949 33.4489C10.0373 33.4489 9.78227 33.3978 9.54431 33.2984C9.30635 33.199 9.09016 33.0533 8.9081 32.8697L0.957305 24.876C0.773605 24.6934 0.627742 24.4758 0.528182 24.2359C0.428626 23.9961 0.377357 23.7386 0.377357 23.4786C0.377357 23.2186 0.428626 22.9612 0.528182 22.7214C0.627742 22.4815 0.773604 22.2639 0.957305 22.0813L21.3031 1.58163C21.4843 1.39691 21.7 1.25026 21.9379 1.15017C22.1757 1.05008 22.4309 0.998538 22.6887 0.998538C22.9464 0.998538 23.2016 1.05008 23.4395 1.15017C23.6773 1.25026 23.8931 1.39691 24.0743 1.58163L44.4201 22.0813C44.6038 22.2639 44.7496 22.4815 44.8492 22.7213C44.9487 22.9612 45 23.2186 45 23.4786C45 23.7386 44.9487 23.996 44.8492 24.2359C44.7496 24.4758 44.6038 24.6933 44.4201 24.876L36.4717 32.8722C36.2896 33.0558 36.0734 33.2015 35.8355 33.3008C35.5975 33.4002 35.3425 33.4514 35.0849 33.4514C34.8273 33.4514 34.5722 33.4002 34.3342 33.3008C34.0963 33.2015 33.8801 33.0558 33.698 32.8722L24.0743 23.1756C23.7067 22.8055 23.2083 22.5977 22.6887 22.5977C22.169 22.5977 21.6707 22.8055 21.3031 23.1756Z" fill="#7EE49C"/>
<path d="M21.3031 23.1756L11.6818 32.8697C11.4997 33.0533 11.2835 33.199 11.0455 33.2984C10.8076 33.3978 10.5525 33.4489 10.2949 33.4489C10.0373 33.4489 9.78227 33.3978 9.54431 33.2984C9.30635 33.199 9.09016 33.0533 8.9081 32.8697L0.957305 24.876C0.773605 24.6934 0.627742 24.4758 0.528182 24.2359C0.428626 23.9961 0.377357 23.7386 0.377357 23.4786C0.377357 23.2186 0.428626 22.9612 0.528182 22.7214C0.627742 22.4815 0.773604 22.2639 0.957305 22.0813L21.3031 1.58163C21.4843 1.39691 21.7 1.25026 21.9379 1.15017C22.1757 1.05008 22.4309 0.998538 22.6887 0.998538C22.9464 0.998538 23.2016 1.05008 23.4395 1.15017C23.6773 1.25026 23.8931 1.39691 24.0743 1.58163L44.4201 22.0813C44.6038 22.2639 44.7496 22.4815 44.8492 22.7213C44.9487 22.9612 45 23.2186 45 23.4786C45 23.7386 44.9487 23.996 44.8492 24.2359C44.7496 24.4758 44.6038 24.6933 44.4201 24.876L36.4717 32.8722C36.2896 33.0558 36.0734 33.2015 35.8355 33.3008C35.5975 33.4002 35.3425 33.4514 35.0849 33.4514C34.8273 33.4514 34.5722 33.4002 34.3342 33.3008C34.0963 33.2015 33.8801 33.0558 33.698 32.8722L24.0743 23.1756C23.7067 22.8055 23.2083 22.5977 22.6887 22.5977C22.169 22.5977 21.6707 22.8055 21.3031 23.1756Z" fill="#7EE49C"/>
</svg>
