<svg width="2488" height="2116" viewBox="0 0 2488 2116" fill="none" xmlns="http://www.w3.org/2000/svg">
<path d="M1166.74 1543.2L630.293 2083.58C620.142 2093.81 608.088 2101.93 594.82 2107.47C581.553 2113.01 567.331 2115.86 552.969 2115.86C538.606 2115.86 524.385 2113.01 511.117 2107.47C497.849 2101.93 485.795 2093.81 475.644 2083.58L32.3359 1637.99C22.0934 1627.81 13.9606 1615.68 8.40961 1602.31C2.85883 1588.94 -5.54081e-05 1574.59 -5.47746e-05 1560.1C-5.4141e-05 1545.6 2.85883 1531.25 8.40962 1517.88C13.9606 1504.51 22.0935 1492.38 32.3359 1482.21L1166.74 339.503C1176.85 329.206 1188.88 321.032 1202.14 315.452C1215.4 309.873 1229.63 307 1244 307C1258.37 307 1272.6 309.873 1285.86 315.452C1299.12 321.032 1311.15 329.206 1321.26 339.503L2455.66 1482.21C2465.91 1492.38 2474.04 1504.51 2479.59 1517.88C2485.14 1531.25 2488 1545.6 2488 1560.1C2488 1574.59 2485.14 1588.94 2479.59 1602.31C2474.04 1615.68 2465.91 1627.81 2455.66 1637.99L2012.49 2083.71C2002.34 2093.95 1990.29 2102.07 1977.02 2107.61C1963.75 2113.15 1949.53 2116 1935.17 2116C1920.8 2116 1906.58 2113.15 1893.32 2107.61C1880.05 2102.07 1867.99 2093.95 1857.84 2083.71L1321.26 1543.2C1300.76 1522.58 1272.97 1510.99 1244 1510.99C1215.03 1510.99 1187.24 1522.58 1166.74 1543.2Z" fill="#7EE49C"/>
<path d="M1205.85 552.382L1205.85 552.384L964.576 795.537L964.574 795.539C960.517 799.631 955.702 802.875 950.406 805.088C945.109 807.3 939.433 808.439 933.702 808.439C927.972 808.439 922.296 807.3 916.999 805.088C911.703 802.875 906.888 799.631 902.831 795.539L902.825 795.533L703.443 595.029L703.432 595.017L703.421 595.006C699.331 590.94 696.081 586.093 693.862 580.745C691.643 575.397 690.5 569.657 690.5 563.858C690.5 558.059 691.643 552.319 693.862 546.972C696.081 541.624 699.331 536.777 703.421 532.71L703.434 532.697L703.447 532.684L1213.66 18.4994L1213.67 18.4879L1213.68 18.4764C1217.71 14.3627 1222.52 11.0991 1227.81 8.87247C1233.1 6.6459 1238.77 5.49998 1244.5 5.49998C1250.23 5.49998 1255.9 6.6459 1261.19 8.87247C1266.48 11.0991 1271.29 14.3627 1275.32 18.4763L1275.33 18.4879L1275.34 18.4994L1785.55 532.684L1785.57 532.697L1785.58 532.71C1789.67 536.777 1792.92 541.624 1795.14 546.972C1797.36 552.319 1798.5 558.06 1798.5 563.858C1798.5 569.657 1797.36 575.398 1795.14 580.745C1792.92 586.093 1789.67 590.94 1785.58 595.006L1785.57 595.018L1785.56 595.03L1586.23 795.596L1586.23 795.601C1582.17 799.693 1577.36 802.937 1572.06 805.149C1566.77 807.362 1561.09 808.5 1555.36 808.5C1549.63 808.5 1543.95 807.362 1538.66 805.149C1533.36 802.937 1528.54 799.693 1524.49 795.601L1524.49 795.599L1283.15 552.384L1283.15 552.382C1272.9 542.065 1259 536.261 1244.5 536.261C1230 536.261 1216.1 542.065 1205.85 552.382Z" stroke="#7EE49C" strokeOpacity="0.49" strokeWidth="11"/>
</svg>
