<svg width="26" height="22" viewBox="0 0 26 22" fill="none" xmlns="http://www.w3.org/2000/svg">
<path d="M13.1055 19.0801C10.4215 19.0801 7.73744 19.0842 5.05342 19.0734C4.77931 19.0734 4.69584 19.1325 4.71781 19.3921C4.74504 19.7124 4.72747 20.0352 4.72396 20.3563C4.71605 21.135 4.1608 21.6999 3.34461 21.7357C2.86315 21.7565 2.37819 21.7557 1.89849 21.7357C1.08318 21.7016 0.519139 21.135 0.518261 20.3588C0.514746 16.8939 0.514746 13.4291 0.518261 9.96424C0.51996 9.8301 0.546116 9.69725 0.595575 9.57155C1.53271 7.02352 2.46985 4.47549 3.40699 1.92746C3.75841 0.982353 4.48675 0.484009 5.53839 0.484009C10.6101 0.484009 15.6823 0.484009 20.7552 0.484009C21.8094 0.484009 22.5334 0.983186 22.883 1.9283C23.8202 4.47633 24.7573 7.02435 25.6945 9.57238C25.7467 9.71921 25.7723 9.87337 25.77 10.0283C25.77 13.441 25.77 16.854 25.77 20.2673C25.77 21.1933 25.1998 21.7357 24.2229 21.7407C23.8284 21.7407 23.4322 21.7465 23.0394 21.7407C22.1494 21.7265 21.5678 21.1666 21.5634 20.3263C21.5634 20.0052 21.5441 19.6824 21.5687 19.3621C21.5872 19.125 21.5081 19.0759 21.2656 19.0767C18.5394 19.0867 15.8229 19.0801 13.1055 19.0801ZM22.9243 8.43842C22.9241 8.40376 22.9202 8.36921 22.9129 8.33525C22.2505 6.45252 21.5828 4.57061 20.9265 2.68538C20.8659 2.50984 20.7736 2.4749 20.597 2.4749C15.6243 2.47878 10.6519 2.47878 5.67984 2.4749C5.47777 2.4749 5.39606 2.53813 5.33632 2.7145C5.07978 3.47242 4.80918 4.22535 4.54561 4.97994C4.14323 6.12639 3.74172 7.27283 3.33319 8.44008L22.9243 8.43842ZM22.9472 13.1099C22.9496 12.8476 22.897 12.5875 22.7923 12.3446C22.6877 12.1017 22.5331 11.881 22.3376 11.6952C22.142 11.5094 21.9094 11.3623 21.6533 11.2624C21.3972 11.1624 21.1226 11.1117 20.8457 11.1132C20.2954 11.1232 19.7711 11.337 19.3854 11.7088C18.9997 12.0807 18.7833 12.5808 18.7826 13.102C18.7819 13.6232 18.997 14.1239 19.3817 14.4967C19.7664 14.8694 20.2901 15.0845 20.8404 15.0958C21.117 15.0981 21.3913 15.0484 21.6475 14.9496C21.9037 14.8507 22.1366 14.7047 22.3328 14.52C22.5289 14.3352 22.6844 14.1155 22.7901 13.8734C22.8959 13.6314 22.9499 13.3718 22.9489 13.1099H22.9472ZM3.33231 13.1032C3.32998 13.3654 3.38264 13.6253 3.48723 13.868C3.59182 14.1107 3.74626 14.3313 3.94159 14.5171C4.13692 14.7028 4.36925 14.85 4.62511 14.9501C4.88097 15.0501 5.15527 15.1011 5.43208 15.1C5.9824 15.0903 6.50681 14.8768 6.89277 14.5052C7.27873 14.1336 7.49548 13.6335 7.49652 13.1123C7.49755 12.5911 7.28279 12.0903 6.8983 11.7173C6.51382 11.3443 5.99027 11.1289 5.43999 11.1173C5.16341 11.115 4.8891 11.1647 4.63297 11.2636C4.37684 11.3625 4.14399 11.5085 3.94792 11.6932C3.75186 11.878 3.59648 12.0977 3.4908 12.3398C3.38512 12.5818 3.33125 12.8413 3.33231 13.1032Z" fill="#EDFAFB"/>
</svg>
