<svg width="57" height="56" viewBox="0 0 57 56" fill="none" xmlns="http://www.w3.org/2000/svg">
<circle cx="28.8105" cy="28" r="28" fill="#7EE49C"/>
<path d="M28.9028 40.9981H16.4248C15.3557 40.9981 14.8165 40.4553 14.8133 39.3759C14.8133 38.9874 14.8041 38.5983 14.8192 38.2098C14.8478 37.4712 15.2996 36.9416 16.0145 36.8483C16.2695 36.8148 16.2302 36.6705 16.2302 36.5136C16.2302 33.371 16.2302 30.2286 16.2302 27.0864C16.2302 25.9043 16.7213 25.0148 17.7673 24.4638C18.2132 24.229 18.6946 24.1785 19.1836 24.1785C21.6243 24.1785 24.0645 24.1702 26.5047 24.1867C26.8244 24.1867 26.8746 24.0945 26.8729 23.796C26.86 21.4742 26.8638 19.1523 26.867 16.8311C26.867 16.0996 27.2374 15.6392 27.8736 15.5596C28.161 15.5239 28.4127 15.6271 28.657 15.7692C29.1891 16.0804 29.7175 16.3987 30.255 16.7021C30.7402 16.9732 30.964 17.37 30.9602 17.9385C30.9489 19.8817 30.9629 21.8259 30.9489 23.7691C30.9489 24.0819 31.0028 24.1851 31.3382 24.1823C33.7573 24.1647 36.1765 24.1746 38.5956 24.1719C39.3127 24.1719 39.9828 24.3069 40.557 24.781C41.2957 25.3907 41.5933 26.1891 41.5911 27.1407C41.5836 30.2401 41.5911 33.3417 41.5836 36.4384C41.5836 36.6881 41.6116 36.8132 41.9027 36.8532C42.505 36.9356 42.9541 37.4432 43.0037 38.1011C43.0457 38.6286 43.0446 39.1587 43.0004 39.686C42.9271 40.5053 42.3594 40.9959 41.5383 40.997C39.2997 41.0013 37.061 41.0013 34.8221 40.997L28.9028 40.9981ZM17.6886 30.0184C17.6886 32.2579 17.6934 34.4277 17.6826 36.597C17.6826 36.8763 17.8444 36.8126 17.9889 36.8132C25.2645 36.8132 32.5405 36.8158 39.8168 36.8209C40.0864 36.8209 40.1165 36.7248 40.1155 36.4916C40.1079 34.4513 40.1117 32.411 40.109 30.3713C40.109 30.2813 40.1446 30.1819 40.0492 30.0596C39.7375 30.4437 39.441 30.8163 39.1326 31.1807C37.9562 32.5696 35.9554 32.5125 34.8609 31.0622C34.6156 30.7367 34.3757 30.4091 34.1266 30.0859C33.4953 29.2628 32.6429 29.2414 31.9851 30.0371C31.6439 30.4497 31.3247 30.8833 30.9661 31.2795C29.7924 32.5767 27.824 32.467 26.7829 31.06C26.5468 30.7411 26.3117 30.4217 26.0745 30.104C25.4431 29.2584 24.5821 29.2309 23.9136 30.0393C23.5518 30.4783 23.2164 30.9381 22.8353 31.3563C22.1678 32.0894 21.3327 32.3666 20.36 32.2041C19.581 32.0735 19.017 31.6137 18.5437 31.0001C18.2924 30.6742 18.0514 30.3317 17.6897 30.0184H17.6886ZM28.9363 25.6601H19.9002C19.6139 25.6601 19.3276 25.6552 19.0413 25.6601C18.1959 25.6777 17.7015 26.1858 17.6934 27.0386C17.6934 27.3948 17.7015 27.752 17.6897 28.1071C17.6837 28.2903 17.7193 28.3957 17.915 28.4588C18.3111 28.5882 18.6645 28.8263 18.9362 29.147C19.23 29.4867 19.5114 29.8379 19.7988 30.1858C20.4269 30.954 21.2728 30.9606 21.9085 30.1968C22.2649 29.7687 22.5997 29.3187 22.9679 28.9044C24.1395 27.577 26.109 27.6713 27.1689 29.0965C27.418 29.4318 27.6601 29.7731 27.913 30.1057C28.506 30.8816 29.4064 30.8997 30.0237 30.149C30.3235 29.7852 30.6135 29.4137 30.9122 29.0487C32.1188 27.5737 34.1029 27.6088 35.2621 29.1267C35.5219 29.4674 35.7699 29.8176 36.0341 30.1545C36.5916 30.8679 37.4731 30.8822 38.0581 30.1929C38.2656 29.9476 38.4635 29.6941 38.6635 29.4428C39.0102 29.0081 39.4157 28.6525 39.9467 28.4747C40.0917 28.4259 40.1386 28.3436 40.1354 28.1916C40.1262 27.7926 40.1354 27.3931 40.1316 26.9936C40.14 26.6896 40.0448 26.3919 39.8621 26.1513C39.5553 25.7611 39.1396 25.6574 38.6732 25.6574C35.4269 25.6592 32.1812 25.6601 28.9363 25.6601ZM28.8991 38.2872C24.9737 38.2872 21.0485 38.2872 17.1235 38.2872C16.8507 38.2872 16.4949 38.1664 16.3272 38.3388C16.1596 38.5111 16.3067 38.8743 16.2733 39.1493C16.234 39.4533 16.3531 39.5115 16.634 39.5109C24.6544 39.5032 32.6743 39.5005 40.694 39.5027C40.977 39.5027 41.3496 39.6256 41.5199 39.4527C41.6903 39.2799 41.5415 38.899 41.5739 38.6126C41.6051 38.3415 41.5135 38.2778 41.2504 38.2784C37.132 38.2879 33.0149 38.2903 28.8991 38.2855V38.2872ZM28.3281 19.5689C28.3281 19.8312 28.3281 20.0326 28.3281 20.234C28.3319 20.5879 28.2203 21.0127 28.375 21.2766C28.5367 21.551 28.953 21.6734 29.2581 21.8616C29.2759 21.8726 29.2969 21.8797 29.312 21.8918C29.4463 21.9905 29.5142 21.9818 29.5115 21.7881C29.5051 21.3362 29.5051 20.8844 29.5115 20.4326C29.5165 20.38 29.5051 20.3271 29.4788 20.2815C29.4526 20.2359 29.4129 20.1999 29.3654 20.1785C29.0382 19.9909 28.713 19.7944 28.3281 19.5689ZM28.3281 22.3269C28.3281 22.6749 28.3281 22.9745 28.3281 23.2741C28.3281 23.5649 28.2246 23.9694 28.3702 24.1187C28.5572 24.3118 28.953 24.1554 29.257 24.1829C29.4409 24.1993 29.5326 24.1543 29.5158 23.9392C29.501 23.7016 29.501 23.4634 29.5158 23.2258C29.5239 23.1624 29.5114 23.098 29.4802 23.0425C29.4491 22.9869 29.401 22.9432 29.3433 22.918C29.0177 22.738 28.7006 22.5443 28.3281 22.3253V22.3269ZM29.5045 19.2511V18.1256C29.5045 18.0499 29.5072 17.9747 29.4285 17.9292C29.0754 17.725 28.7228 17.5192 28.3265 17.2887C28.3265 17.708 28.3303 18.0696 28.3265 18.4313C28.3238 18.4734 28.334 18.5153 28.3558 18.5513C28.3775 18.5873 28.4096 18.6155 28.4478 18.6321C28.7837 18.8264 29.1196 19.0245 29.5045 19.2495V19.2511Z" fill="#EDFAFB"/>
<path d="M31.2468 11.9579C30.9405 12.2607 30.5955 12.4778 30.2516 12.6941C30.1998 12.7268 30.148 12.7594 30.0963 12.7923C29.6816 13.0549 29.5508 13.6089 29.7543 14.1524C29.8395 14.3801 29.919 14.6078 29.8442 14.8472C29.7543 15.1364 29.5587 15.327 29.2689 15.3663C28.963 15.4073 28.7256 15.266 28.5681 14.9918C27.9055 13.8372 28.2543 12.2216 29.3453 11.5152C29.8683 11.1767 30.3562 10.8266 30.7254 10.2919C30.9869 9.91631 31.4252 9.91464 31.7578 10.221C33.5093 11.8366 33.1081 14.8909 31.0078 15.9303C30.6449 16.1104 30.2558 15.9962 30.0665 15.6533C29.8745 15.3031 29.9567 14.8943 30.2997 14.656C30.682 14.3923 31.058 14.1297 31.2542 13.6704C31.4926 13.1119 31.5303 12.5479 31.2468 11.9579Z" fill="#EDFAFB"/>
<path d="M31.2468 11.9579C30.9405 12.2607 30.5955 12.4778 30.2516 12.6941C30.1998 12.7268 30.148 12.7594 30.0963 12.7923C29.6816 13.0549 29.5508 13.6089 29.7543 14.1524C29.8395 14.3801 29.919 14.6078 29.8442 14.8472C29.7543 15.1364 29.5587 15.327 29.2689 15.3663C28.963 15.4073 28.7256 15.266 28.5681 14.9918C27.9055 13.8372 28.2543 12.2216 29.3453 11.5152C29.8683 11.1767 30.3562 10.8266 30.7254 10.2919C30.9869 9.91631 31.4252 9.91464 31.7578 10.221C33.5093 11.8366 33.1081 14.8909 31.0078 15.9303C30.6449 16.1104 30.2558 15.9962 30.0665 15.6533C29.8745 15.3031 29.9567 14.8943 30.2997 14.656C30.682 14.3923 31.058 14.1297 31.2542 13.6704C31.4926 13.1119 31.5303 12.5479 31.2468 11.9579Z" stroke="#29424D"/>
</svg>
