<svg width="505" height="87" viewBox="0 0 505 87" fill="none" xmlns="http://www.w3.org/2000/svg">
<path d="M280.376 67.9676C281.133 68.4715 281.889 68.9754 282.393 69.9833C282.897 70.7391 283.149 71.7469 283.149 72.7547C283.149 73.7626 282.897 74.5184 282.393 75.5262C281.889 76.2821 281.133 77.038 280.376 77.5419C279.62 78.0458 278.612 78.2977 277.604 78.2977H273.318V67.7157H277.604C278.612 67.4637 279.62 67.4637 280.376 67.9676ZM279.872 76.5341C280.628 76.0301 281.133 75.5262 281.385 75.0223C281.889 74.2665 281.889 73.5106 281.889 72.7547C281.889 71.9989 281.637 71.243 281.385 70.4872C280.88 69.7313 280.376 69.2274 279.872 68.9754C279.116 68.4715 278.36 68.4715 277.604 68.4715H274.327V77.2899H277.604C278.612 77.038 279.368 76.786 279.872 76.5341Z" fill="#2EC58D"/>
<path d="M295.748 78.0452L293.48 74.5178C293.228 74.5178 292.976 74.5178 292.724 74.5178H289.699V78.0452H288.69V67.4631H292.724C293.984 67.4631 294.992 67.7151 295.748 68.4709C296.505 68.9749 296.757 69.9827 296.757 70.9905C296.757 71.9983 296.505 72.5022 296.001 73.2581C295.496 73.762 294.992 74.2659 294.236 74.5178L296.757 78.2971H295.748V78.0452ZM292.472 73.51C293.48 73.51 294.236 73.2581 294.74 72.7542C295.244 72.2503 295.496 71.7463 295.496 70.7385C295.496 69.9827 295.244 69.2268 294.74 68.7229C294.236 68.219 293.48 67.967 292.472 67.967H289.447V73.2581H292.472V73.51Z" fill="#2EC58D"/>
<path d="M302.571 67.4631H303.58V78.0452H302.571V67.4631Z" fill="#2EC58D"/>
<path d="M308.363 67.4631H309.372L313.153 77.0374L316.934 67.4631H317.942L313.657 78.0452H312.649L308.363 67.4631Z" fill="#2EC58D"/>
<path d="M322.973 67.4631H330.031V68.219H323.981V71.9983H329.527V73.0061H323.981V77.0374H330.283V78.0452H322.973V67.4631Z" fill="#2EC58D"/>
<path d="M351.202 67.4631L347.169 74.2659V78.0452H346.16V74.2659L341.875 67.4631H342.883L346.412 73.2581L349.941 67.4631H351.202Z" fill="#2EC58D"/>
<path d="M362.798 67.967C363.554 68.4709 364.31 69.2268 364.814 69.9827C365.319 70.7385 365.571 71.7463 365.571 72.7542C365.571 73.762 365.319 74.7698 364.814 75.5257C364.31 76.2815 363.554 77.0374 362.798 77.5413C362.042 78.0452 361.033 78.2971 360.025 78.2971C359.017 78.2971 358.009 78.0452 357.252 77.5413C356.496 77.0374 355.74 76.2815 355.236 75.5257C354.732 74.7698 354.479 73.762 354.479 72.7542C354.479 71.7463 354.732 70.7385 355.236 69.9827C355.74 69.2268 356.496 68.4709 357.252 67.967C358.009 67.4631 359.017 67.2112 360.025 67.2112C361.033 67.2112 362.042 67.4631 362.798 67.967ZM357.756 68.7229C357 69.2268 356.496 69.7307 355.992 70.2346C355.488 70.9905 355.488 71.7464 355.488 72.5022C355.488 73.2581 355.74 74.0139 355.992 74.7698C356.244 75.5257 357 76.0296 357.756 76.5335C358.513 77.0374 359.269 77.0374 360.025 77.0374C360.781 77.0374 361.538 76.7854 362.294 76.5335C363.05 76.0296 363.554 75.5257 364.058 74.7698C364.562 74.0139 364.562 73.2581 364.562 72.5022C364.562 71.7464 364.31 70.9905 364.058 70.2346C363.554 69.4788 363.05 68.9749 362.294 68.7229C361.538 68.219 360.781 68.219 360.025 68.219C359.269 68.219 358.513 68.471 357.756 68.7229Z" fill="#2EC58D"/>
<path d="M372.896 76.2815C373.401 76.7854 374.409 77.2893 375.417 77.2893C376.425 77.2893 377.182 77.0374 377.938 76.2815C378.442 75.7776 378.946 74.7698 378.946 73.762V67.4631H379.954V73.762C379.954 75.0218 379.45 76.2815 378.694 77.0374C377.938 77.7932 376.93 78.2971 375.417 78.2971C373.905 78.2971 372.896 77.7932 372.14 77.0374C371.384 76.2815 370.88 75.2737 370.88 73.762V67.4631H371.888V73.762C371.888 74.7698 372.14 75.5257 372.896 76.2815Z" fill="#2EC58D"/>
<path d="M392.804 78.0452L390.535 74.5178C390.283 74.5178 390.031 74.5178 389.779 74.5178H386.754V78.0452H385.746V67.4631H389.779C391.04 67.4631 392.048 67.7151 392.804 68.4709C393.56 68.9749 393.812 69.9827 393.812 70.9905C393.812 71.9983 393.56 72.5022 393.056 73.2581C392.552 73.762 392.048 74.2659 391.292 74.5178L393.812 78.2971H392.804V78.0452ZM389.779 73.51C390.788 73.51 391.544 73.2581 392.048 72.7542C392.552 72.2503 392.804 71.7463 392.804 70.7385C392.804 69.9827 392.552 69.2268 392.048 68.7229C391.544 68.219 390.788 67.967 389.779 67.967H386.754V73.2581H389.779V73.51Z" fill="#2EC58D"/>
<path d="M413.711 68.4712C413.207 68.2192 412.451 68.2192 411.947 68.2192C411.191 68.2192 410.434 68.4712 409.678 68.7232C408.922 69.2271 408.418 69.731 408.166 70.2349C407.662 70.9907 407.662 71.7466 407.662 72.5025C407.662 73.2583 407.914 74.0142 408.166 74.77C408.67 75.5259 409.174 76.0298 409.678 76.2818C410.434 76.7857 411.191 76.7857 411.947 76.7857C412.451 76.7857 413.207 76.7857 413.711 76.5337C414.215 76.2818 414.72 76.0298 415.224 75.5259L415.98 76.2818C415.476 76.7857 414.72 77.0376 414.215 77.5415C413.459 77.7935 412.955 78.0454 412.199 78.0454C411.191 78.0454 410.182 77.7935 409.426 77.2896C408.67 76.7857 407.914 76.0298 407.41 75.2739C406.905 74.5181 406.653 73.5103 406.653 72.5025C406.653 71.4946 406.905 70.4868 407.41 69.731C407.914 68.9751 408.67 68.2192 409.426 67.7153C410.182 67.2114 411.191 66.9595 412.199 66.9595C412.955 66.9595 413.711 67.2114 414.215 67.4634C414.972 67.7153 415.476 68.2192 415.98 68.4712L415.476 69.2271C414.72 68.9751 414.215 68.7232 413.711 68.4712Z" fill="#2EC58D"/>
<path d="M421.015 67.4631H422.023V72.2503H428.577V67.4631H429.585V78.0452H428.829V73.2581H422.275V78.0452H421.267V67.4631H421.015Z" fill="#2EC58D"/>
<path d="M443.728 67.967C444.484 68.4709 445.24 69.2268 445.744 69.9827C446.248 70.7385 446.5 71.7463 446.5 72.7542C446.5 73.762 446.248 74.7698 445.744 75.5257C445.24 76.2815 444.484 77.0374 443.728 77.5413C442.971 78.0452 441.963 78.2971 440.955 78.2971C439.946 78.2971 438.938 78.0452 438.182 77.5413C437.426 77.0374 436.67 76.2815 436.165 75.5257C435.661 74.7698 435.409 73.762 435.409 72.7542C435.409 71.7463 435.661 70.7385 436.165 69.9827C436.67 69.2268 437.426 68.4709 438.182 67.967C438.938 67.4631 439.946 67.2112 440.955 67.2112C441.963 67.2112 442.719 67.4631 443.728 67.967ZM438.686 68.7229C437.93 69.2268 437.426 69.7307 436.922 70.2346C436.417 70.9905 436.417 71.7464 436.417 72.5022C436.417 73.2581 436.67 74.0139 436.922 74.7698C437.426 75.5257 437.93 76.0296 438.686 76.5335C439.442 77.0374 440.199 77.0374 440.955 77.0374C441.711 77.0374 442.467 76.7854 443.223 76.5335C443.98 76.0296 444.484 75.5257 444.988 74.7698C445.492 74.0139 445.492 73.2581 445.492 72.5022C445.492 71.7464 445.24 70.9905 444.988 70.2346C444.484 69.4788 443.98 68.9749 443.223 68.7229C442.467 68.219 441.711 68.219 440.955 68.219C440.199 68.219 439.442 68.471 438.686 68.7229Z" fill="#2EC58D"/>
<path d="M451.793 67.4631H452.801V78.0452H451.793V67.4631Z" fill="#2EC58D"/>
<path d="M465.654 68.4712C465.15 68.2192 464.393 68.2192 463.889 68.2192C463.133 68.2192 462.377 68.4712 461.621 68.7232C460.864 69.2271 460.36 69.731 460.108 70.2349C459.604 70.9907 459.604 71.7466 459.604 72.5025C459.604 73.2583 459.856 74.0142 460.108 74.77C460.612 75.5259 461.116 76.0298 461.621 76.2818C462.377 76.7857 463.133 76.7857 463.889 76.7857C464.393 76.7857 465.15 76.7857 465.654 76.5337C466.158 76.2818 466.662 76.0298 467.166 75.5259L467.922 76.2818C467.418 76.7857 466.662 77.0376 466.158 77.5415C465.402 77.7935 464.897 78.0454 464.141 78.0454C463.133 78.0454 462.125 77.7935 461.368 77.2896C460.612 76.7857 459.856 76.0298 459.352 75.2739C458.848 74.5181 458.596 73.5103 458.596 72.5025C458.596 71.4946 458.848 70.4868 459.352 69.731C459.856 68.9751 460.612 68.2192 461.368 67.7153C462.125 67.2114 463.133 66.9595 464.141 66.9595C464.897 66.9595 465.654 67.2114 466.158 67.4634C466.914 67.7153 467.418 68.2192 467.922 68.4712L467.418 69.2271C466.662 68.9751 466.158 68.7232 465.654 68.4712Z" fill="#2EC58D"/>
<path d="M472.966 67.4631H480.024V68.219H473.974V71.9983H479.52V73.0061H473.974V77.0374H480.276V78.0452H472.966V67.4631Z" fill="#2EC58D"/>
<path d="M115.739 19.5916C106.916 6.74196 92.8003 0.191162 73.8949 0.191162C57.7623 0.191162 39.6132 7.74978 24.2368 21.1033C9.36461 33.953 0.290039 49.8261 0.290039 63.4316H13.9019C13.9019 54.1093 21.212 41.7635 33.3114 31.4334C45.915 20.5994 61.0393 14.0486 73.8949 14.0486C79.6926 14.0486 84.734 14.8045 89.0192 16.0643C89.0192 16.0643 89.2713 16.0643 89.2713 16.3162C101.119 21.6072 107.168 31.1815 110.193 40.2518C111.958 46.8026 112.966 54.6132 112.966 63.6835H126.578C126.578 44.535 123.049 30.1737 115.739 19.5916Z" fill="#2EC58D"/>
<path d="M160.369 55.1198C162.386 55.1198 163.898 54.6159 165.663 53.8601C167.175 53.1042 168.688 51.8444 169.696 50.5847L175.494 55.1198C173.729 57.3874 171.461 59.1511 168.94 60.4109C166.419 61.6706 163.394 62.4265 160.369 62.4265C157.849 62.4265 155.328 61.9226 152.807 60.9148C150.539 59.907 148.522 58.6472 146.758 56.8835C144.993 55.1198 143.481 53.1042 142.472 50.8366C141.464 48.569 140.96 46.0495 140.96 43.278C140.96 40.7585 141.464 38.2389 142.472 35.7194C143.481 33.4518 144.741 31.4362 146.758 29.6725C148.522 27.9088 150.539 26.6491 152.807 25.6412C155.076 24.6334 157.597 24.1295 160.369 24.1295C163.394 24.1295 166.419 24.8854 168.94 26.1451C171.461 27.4049 173.729 29.1686 175.494 31.6881L169.696 36.2233C168.688 34.7116 167.175 33.7038 165.663 32.9479C164.151 32.192 162.386 31.6881 160.369 31.6881C158.857 31.6881 157.345 31.9401 155.832 32.6959C154.32 33.1999 153.059 34.2077 152.051 35.2155C151.043 36.2233 150.035 37.4831 149.53 38.9948C149.026 40.5065 148.522 42.0182 148.522 43.53C148.522 45.0417 148.774 46.5534 149.53 48.0651C150.035 49.5769 151.043 50.8366 152.051 51.8444C153.059 52.8523 154.32 53.8601 155.832 54.364C157.093 54.8679 158.605 55.1198 160.369 55.1198Z" fill="#8C959D"/>
<path d="M196.671 24.1295C199.444 24.1295 201.965 24.6334 204.233 25.6412C206.502 26.6491 208.771 28.1608 210.535 29.9245C212.3 31.6881 213.812 33.7038 214.82 36.2233C215.829 38.4909 216.333 41.0104 216.333 43.7819V62.6785H208.771V59.1511C207.006 60.4109 205.242 61.4187 203.225 62.1745C201.208 62.9304 199.192 63.1824 196.923 63.1824C194.15 63.1824 191.63 62.6785 189.361 61.6706C187.092 60.6628 184.824 59.1511 183.311 57.3874C181.547 55.6237 180.286 53.6081 179.026 51.3405C178.018 49.0729 177.514 46.5534 177.514 43.7819C177.514 41.0104 178.018 38.4909 179.026 36.2233C180.034 33.9557 181.547 31.6881 183.059 29.9245C184.572 28.1608 186.84 26.901 189.109 25.6412C191.378 24.6334 193.898 24.1295 196.671 24.1295ZM196.671 55.6237C198.436 55.6237 199.948 55.3718 201.208 54.6159C202.721 53.8601 203.981 53.1042 204.989 52.0964C205.998 51.0886 207.006 49.8288 207.51 48.3171C208.266 46.8054 208.518 45.2936 208.518 43.7819C208.518 42.0182 208.266 40.5065 207.51 39.2467C206.754 37.735 205.998 36.4753 204.989 35.4674C203.981 34.4596 202.721 33.4518 201.208 32.9479C199.696 32.192 198.184 31.9401 196.671 31.9401C195.159 31.9401 193.394 32.192 192.134 32.9479C190.621 33.7038 189.361 34.4596 188.353 35.4674C187.344 36.4753 186.336 37.735 185.832 39.2467C185.076 40.7585 184.824 42.2702 184.824 43.7819C184.824 45.2936 185.076 46.8054 185.832 48.3171C186.588 49.8288 187.344 51.0886 188.353 52.0964C189.361 53.1042 190.621 54.112 192.134 54.6159C193.394 55.1198 194.907 55.6237 196.671 55.6237Z" fill="#8C959D"/>
<path d="M247.828 26.901C249.592 27.9088 250.852 29.4205 252.113 30.9323L247.828 34.2077L246.315 35.4674C245.559 34.2077 244.299 33.1999 243.038 32.444C241.778 31.6881 240.265 31.4362 238.753 31.4362C237.493 31.4362 236.232 31.6881 235.224 32.192C234.216 32.6959 233.207 33.4518 232.199 34.2077C231.443 34.9635 230.687 35.9713 230.183 37.2311C229.678 38.2389 229.426 39.4987 229.426 40.7585V54.6159V62.4265H221.864V40.7585V24.1295H229.426V26.901C230.687 25.8932 232.199 25.3893 233.712 24.8854C235.224 24.3815 236.989 24.1295 238.501 24.1295C240.265 24.1295 241.778 24.3815 243.29 24.8854C244.803 25.3893 246.315 26.1451 247.828 26.901Z" fill="#8C959D"/>
<path d="M271.033 24.1295C273.805 24.1295 276.326 24.6334 278.595 25.6412C280.863 26.6491 282.88 28.1608 284.644 29.9245C286.409 31.6881 287.669 33.7038 288.93 35.9713C289.938 38.2389 290.442 40.7585 290.442 43.53C290.442 46.3015 289.938 48.821 288.93 51.0886C287.921 53.3562 286.409 55.3718 284.644 57.1355C282.88 58.8992 280.863 60.1589 278.595 61.4187C276.326 62.4265 273.805 62.9304 271.033 62.9304C268.764 62.9304 266.747 62.6785 264.731 61.9226C262.714 61.1667 260.95 60.1589 259.185 58.8991V78.2996H251.623V43.53C251.623 40.7585 252.127 38.2389 253.135 35.9713C254.144 33.7038 255.404 31.6881 257.169 29.9245C258.933 28.1608 260.95 26.901 263.218 25.6412C265.991 24.6334 268.512 24.1295 271.033 24.1295ZM271.033 55.1198C272.545 55.1198 274.057 54.8679 275.57 54.112C277.082 53.3562 278.343 52.6003 279.351 51.5925C280.359 50.5847 281.367 49.3249 281.872 47.8132C282.628 46.3015 282.88 44.7897 282.88 43.278C282.88 41.7663 282.628 40.2546 281.872 38.7428C281.115 37.2311 280.359 35.9713 279.351 34.9635C278.343 33.9557 277.082 32.9479 275.57 32.444C274.057 31.9401 272.545 31.4362 271.033 31.4362C269.268 31.4362 267.756 31.6881 266.495 32.444C264.983 33.1999 263.722 33.9557 262.714 34.9635C261.706 35.9713 260.698 37.2311 260.193 38.7428C259.689 40.2546 259.185 41.7663 259.185 43.278C259.185 44.7897 259.437 46.3015 260.193 47.8132C260.95 49.3249 261.706 50.5847 262.714 51.5925C263.722 52.6003 264.983 53.6081 266.495 54.112C268.008 54.8679 269.52 55.1198 271.033 55.1198Z" fill="#2EC58D"/>
<path d="M295.999 9.0127H303.561V62.4269H295.999V9.0127Z" fill="#2EC58D"/>
<path d="M327.975 24.1295C330.748 24.1295 333.268 24.6334 335.537 25.6412C337.806 26.6491 340.074 28.1608 341.839 29.9245C343.603 31.6881 345.116 33.7038 346.124 36.2233C347.132 38.4909 347.636 41.0104 347.636 43.7819V62.6785H340.074V59.1511C338.31 60.4109 336.545 61.4187 334.529 62.1745C332.512 62.9304 330.496 63.1824 328.227 63.1824C325.454 63.1824 322.933 62.6785 320.665 61.6706C318.396 60.6628 316.127 59.1511 314.615 57.3874C312.851 55.6237 311.59 53.6081 310.33 51.3405C309.322 49.0729 308.817 46.5534 308.817 43.7819C308.817 41.0104 309.322 38.4909 310.33 36.2233C311.338 33.9557 312.851 31.6881 314.363 29.9245C316.127 28.1608 318.144 26.901 320.413 25.6412C322.681 24.6334 325.202 24.1295 327.975 24.1295ZM327.975 55.6237C329.739 55.6237 331.252 55.3718 332.512 54.6159C334.025 53.8601 335.285 53.1042 336.293 52.0964C337.301 51.0886 338.31 49.8288 338.814 48.3171C339.57 46.8054 339.822 45.2936 339.822 43.7819C339.822 42.0182 339.57 40.5065 338.814 39.2467C338.058 37.735 337.301 36.4753 336.293 35.4674C335.285 34.4596 334.025 33.4518 332.512 32.9479C331 32.192 329.487 31.9401 327.975 31.9401C326.462 31.9401 324.698 32.192 323.438 32.9479C321.925 33.7038 320.665 34.4596 319.656 35.4674C318.648 36.4753 317.64 37.735 317.136 39.2467C316.38 40.7585 316.127 42.2702 316.127 43.7819C316.127 45.2936 316.38 46.8054 317.136 48.3171C317.892 49.8288 318.648 51.0886 319.656 52.0964C320.665 53.1042 321.925 54.112 323.438 54.6159C324.698 55.1198 326.21 55.6237 327.975 55.6237Z" fill="#2EC58D"/>
<path d="M379.427 26.6493C381.696 28.161 383.461 30.1767 384.973 32.6962C386.233 35.2157 386.989 37.7353 386.989 40.7587V62.6787H379.427V54.6162V40.5068C379.427 39.247 379.175 37.9872 378.671 36.9794C378.167 35.7196 377.411 34.9638 376.655 33.956C375.898 33.2001 374.89 32.4442 373.63 31.9403C372.621 31.4364 371.361 31.1845 370.101 31.1845C368.84 31.1845 367.58 31.4364 366.572 31.9403C365.311 32.4442 364.555 33.2001 363.547 33.956C362.791 34.7118 362.034 35.7196 361.53 36.9794C361.026 38.2392 360.774 39.247 360.774 40.5068V54.6162V62.6787H353.212V40.7587V23.8778H360.774V26.6493C362.034 25.8934 363.547 25.1376 365.059 24.6337C366.572 24.1298 368.336 23.8778 370.101 23.8778C371.865 23.8778 373.378 24.1298 375.142 24.6337C376.655 25.1376 378.167 25.6415 379.427 26.6493Z" fill="#2EC58D"/>
<path d="M418.997 26.6493C421.265 28.161 423.03 30.1767 424.542 32.6962C425.803 35.2157 426.559 37.7353 426.559 40.7587V62.6787H418.997V54.6162V40.5068C418.997 39.247 418.745 37.9872 418.24 36.9794C417.736 35.7196 416.98 34.9638 416.224 33.956C415.468 33.2001 414.459 32.4442 413.199 31.9403C412.191 31.4364 410.93 31.1845 409.67 31.1845C408.41 31.1845 407.149 31.4364 406.141 31.9403C404.881 32.4442 404.124 33.2001 403.116 33.956C402.36 34.7118 401.604 35.7196 401.1 36.9794C400.595 38.2392 400.343 39.247 400.343 40.5068V54.6162V62.6787H392.781V40.7587V23.8778H400.343V26.6493C401.604 25.8934 403.116 25.1376 404.629 24.6337C406.141 24.1298 407.906 23.8778 409.67 23.8778C411.435 23.8778 412.947 24.1298 414.711 24.6337C416.224 25.1376 417.736 25.6415 418.997 26.6493Z" fill="#2EC58D"/>
<path d="M453.53 45.7986H438.91C439.162 47.0584 439.666 48.3182 440.422 49.578C441.178 50.8377 441.935 51.5936 442.943 52.6014C443.951 53.3573 445.212 54.1131 446.472 54.617C447.732 55.1209 448.993 55.3729 450.505 55.3729C452.27 55.3729 453.782 55.1209 455.294 54.3651C456.807 53.6092 458.067 52.8534 459.076 51.5936H460.336H467.898C467.646 52.3494 467.142 53.1053 466.89 53.6092C466.386 54.3651 466.134 54.869 465.629 55.6248C463.865 57.8924 461.596 59.6561 459.076 60.9159C456.555 62.1756 453.53 62.9315 450.505 62.9315C447.732 62.9315 445.212 62.4276 442.943 61.4198C440.674 60.412 438.658 59.1522 436.893 57.3885C435.129 55.6248 433.868 53.6092 432.86 51.3416C431.852 49.074 431.348 46.5545 431.348 43.783C431.348 41.0115 431.852 38.492 432.86 36.2244C433.868 33.9568 435.129 31.9412 436.893 30.1775C438.658 28.4138 440.674 27.1541 442.943 26.1462C445.212 25.1384 447.732 24.6345 450.505 24.6345C453.53 24.6345 456.303 25.3904 459.076 26.6502C461.596 27.9099 463.865 29.6736 465.629 32.1931C467.142 34.2088 468.402 36.4764 469.158 38.9959C469.663 40.5076 469.915 42.2713 469.915 44.035C469.915 44.7908 469.915 45.7986 469.663 46.5545H462.1H453.53V45.7986ZM450.505 31.6892C448.236 31.6892 445.968 32.1931 444.203 33.4529C442.439 34.7127 440.926 36.2244 439.918 38.24H456.807H461.092C460.84 37.7361 460.588 37.4842 460.336 36.9803C460.084 36.4764 459.832 36.2244 459.58 35.9724C458.571 34.4607 457.059 33.4529 455.547 32.697C454.034 32.1931 452.27 31.6892 450.505 31.6892Z" fill="#2EC58D"/>
<path d="M500.154 26.901C501.918 27.9088 503.179 29.4205 504.439 30.9323L500.154 34.2077L498.641 35.4674C497.885 34.2077 496.625 33.1999 495.364 32.444C494.104 31.6881 492.592 31.4362 491.079 31.4362C489.819 31.4362 488.559 31.6881 487.55 32.192C486.542 32.6959 485.534 33.4518 484.525 34.2077C483.769 34.9635 483.013 35.9713 482.509 37.2311C482.005 38.2389 481.753 39.4987 481.753 40.7585V54.6159V62.4265H474.19V40.7585V24.1295H481.753V26.901C483.013 25.8932 484.525 25.3893 486.038 24.8854C487.55 24.3815 489.315 24.1295 490.827 24.1295C492.592 24.1295 494.104 24.3815 495.617 24.8854C497.129 25.3893 498.893 26.1451 500.154 26.901Z" fill="#2EC58D"/>
<path d="M102.358 48.0618C93.2839 39.4954 79.1679 39.9993 70.5975 49.0697L65.5561 54.6126L63.2874 57.1322L61.5229 59.1478L48.6673 73.0053L48.4152 73.2572C45.1383 76.5326 40.601 77.5404 36.3158 76.2807C36.0637 76.2807 35.5596 76.0287 35.3075 76.0287C35.0554 76.0287 34.8034 75.7768 34.2992 75.5248C34.0471 75.2729 33.7951 75.2729 33.543 75.0209C33.2909 74.769 33.0389 74.517 32.7868 74.517C32.5347 74.517 32.5347 74.265 32.2826 74.265L32.0306 74.0131C27.2412 69.4779 26.9891 61.6674 31.5264 56.8802C36.0637 52.0931 43.8779 51.8411 48.6673 56.3763C50.1797 57.6361 51.188 59.3998 51.6921 60.9115L59.2543 52.849C58.246 51.3372 57.2377 49.8255 55.7253 48.5658C46.6507 39.9993 32.5347 40.5032 23.9643 49.5736C16.6542 57.3841 15.898 68.7221 21.4436 77.2885C21.4436 77.5404 21.6956 77.5404 21.6956 77.7924C21.6956 77.7924 21.6956 78.0443 21.9477 78.0443C22.1998 78.2963 22.1998 78.5483 22.4519 78.5483L22.7039 78.8002C22.956 79.0522 22.956 79.0522 23.2081 79.3041C22.7039 79.0522 22.956 79.3041 22.956 79.3041L23.2081 79.5561C23.4601 79.808 23.4601 80.06 23.7122 80.06C23.7122 80.06 23.7122 80.3119 23.9643 80.3119C23.9643 80.3119 23.9643 80.3119 24.2164 80.3119L24.4684 80.5639L24.7205 80.8158C24.9726 81.0678 24.9726 81.0678 25.2246 81.3198C25.4767 81.5717 25.4767 81.5717 25.4767 81.5717C34.5513 88.6264 47.659 87.8706 55.7253 79.3041L60.7667 74.0131L63.0354 71.4935L64.7999 69.4779L77.6555 55.3685C82.1928 50.5814 90.007 50.3294 94.7963 54.8646C99.5857 59.3998 99.8378 67.2103 95.3005 71.9975C90.7632 76.7846 82.949 77.0365 78.1596 72.5014C76.6472 71.2416 75.6389 69.4779 75.1348 67.9662L67.5726 76.0287C68.5809 77.5404 69.5892 79.0522 71.1016 80.3119C80.1762 88.8784 94.2922 88.3745 102.863 79.3041C111.937 70.7377 111.433 56.3763 102.358 48.0618Z" fill="#2EC58D"/>
</svg>
