<svg width="44" height="45" viewBox="0 0 44 45" fill="none" xmlns="http://www.w3.org/2000/svg">
<g opacity="0.5">
<path d="M33.9811 23.6969L43.4328 33.3182C43.6118 33.5002 43.7539 33.7164 43.8508 33.9544C43.9476 34.1924 43.9975 34.4474 43.9975 34.705C43.9975 34.9626 43.9476 35.2177 43.8508 35.4556C43.7539 35.6936 43.6118 35.9098 43.4328 36.0918L35.6389 44.0426C35.4608 44.2263 35.2487 44.3722 35.0149 44.4718C34.781 44.5713 34.53 44.6226 34.2765 44.6226C34.023 44.6226 33.772 44.5713 33.5381 44.4718C33.3043 44.3722 33.0922 44.2263 32.9141 44.0426L12.9269 23.6969C12.7468 23.5157 12.6038 23.2999 12.5062 23.0621C12.4087 22.8242 12.3584 22.569 12.3584 22.3113C12.3584 22.0535 12.4087 21.7983 12.5062 21.5605C12.6038 21.3226 12.7468 21.1068 12.9269 20.9257L32.9141 0.579881C33.0921 0.396182 33.3043 0.250318 33.5381 0.15076C33.772 0.0512026 34.023 -6.48231e-05 34.2765 -6.48674e-05C34.53 -6.49118e-05 34.781 0.0512024 35.0148 0.15076C35.2487 0.250317 35.4608 0.396181 35.6389 0.579881L43.4352 8.52824C43.6142 8.7103 43.7562 8.92649 43.8531 9.16445C43.95 9.40241 43.9999 9.65748 43.9999 9.91507C43.9999 10.1727 43.95 10.4277 43.8531 10.6657C43.7562 10.9036 43.6142 11.1198 43.4352 11.3019L33.9811 20.9257C33.6202 21.2932 33.4175 21.7916 33.4175 22.3113C33.4175 22.8309 33.6202 23.3293 33.9811 23.6969Z" fill="#EDFAFB"/>
<path d="M33.9811 23.6969L43.4328 33.3182C43.6118 33.5002 43.7539 33.7164 43.8508 33.9544C43.9476 34.1924 43.9975 34.4474 43.9975 34.705C43.9975 34.9626 43.9476 35.2177 43.8508 35.4556C43.7539 35.6936 43.6118 35.9098 43.4328 36.0918L35.6389 44.0426C35.4608 44.2263 35.2487 44.3722 35.0149 44.4718C34.781 44.5713 34.53 44.6226 34.2765 44.6226C34.023 44.6226 33.772 44.5713 33.5381 44.4718C33.3043 44.3722 33.0922 44.2263 32.9141 44.0426L12.9269 23.6969C12.7468 23.5157 12.6038 23.2999 12.5062 23.0621C12.4087 22.8242 12.3584 22.569 12.3584 22.3113C12.3584 22.0535 12.4087 21.7983 12.5062 21.5605C12.6038 21.3226 12.7468 21.1068 12.9269 20.9257L32.9141 0.579881C33.0921 0.396182 33.3043 0.250318 33.5381 0.15076C33.772 0.0512026 34.023 -6.48231e-05 34.2765 -6.48674e-05C34.53 -6.49118e-05 34.781 0.0512024 35.0148 0.15076C35.2487 0.250317 35.4608 0.396181 35.6389 0.579881L43.4352 8.52824C43.6142 8.7103 43.7562 8.92649 43.8531 9.16445C43.95 9.40241 43.9999 9.65748 43.9999 9.91507C43.9999 10.1727 43.95 10.4277 43.8531 10.6657C43.7562 10.9036 43.6142 11.1198 43.4352 11.3019L33.9811 20.9257C33.6202 21.2932 33.4175 21.7916 33.4175 22.3113C33.4175 22.8309 33.6202 23.3293 33.9811 23.6969Z" fill="#EDFAFB"/>
</g>
<path d="M23.1751 23.6969L32.8692 33.3182C33.0529 33.5002 33.1985 33.7164 33.2979 33.9544C33.3973 34.1924 33.4484 34.4474 33.4484 34.705C33.4484 34.9626 33.3973 35.2177 33.2979 35.4556C33.1985 35.6936 33.0529 35.9098 32.8692 36.0918L24.8755 44.0426C24.6929 44.2263 24.4753 44.3722 24.2354 44.4718C23.9956 44.5713 23.7382 44.6226 23.4782 44.6226C23.2182 44.6226 22.9607 44.5713 22.7209 44.4718C22.481 44.3722 22.2634 44.2263 22.0808 44.0426L1.58114 23.6969C1.39642 23.5157 1.24977 23.2999 1.14968 23.0621C1.04959 22.8242 0.998051 22.569 0.998051 22.3113C0.998051 22.0535 1.04959 21.7983 1.14968 21.5605C1.24977 21.3226 1.39642 21.1068 1.58114 20.9257L22.0808 0.579881C22.2634 0.396182 22.481 0.250318 22.7209 0.15076C22.9607 0.0512025 23.2181 -6.49202e-05 23.4781 -6.49657e-05C23.7381 -6.50112e-05 23.9956 0.0512023 24.2354 0.15076C24.4753 0.250317 24.6929 0.396181 24.8755 0.579881L32.8717 8.52824C33.0553 8.7103 33.201 8.92649 33.3003 9.16445C33.3997 9.40241 33.4509 9.65748 33.4509 9.91507C33.4509 10.1727 33.3997 10.4277 33.3003 10.6657C33.201 10.9036 33.0553 11.1198 32.8717 11.3019L23.1751 20.9257C22.8051 21.2932 22.5972 21.7916 22.5972 22.3113C22.5972 22.8309 22.8051 23.3293 23.1751 23.6969Z" fill="#EDFAFB"/>
<path d="M23.1751 23.6969L32.8692 33.3182C33.0529 33.5002 33.1985 33.7164 33.2979 33.9544C33.3973 34.1924 33.4484 34.4474 33.4484 34.705C33.4484 34.9626 33.3973 35.2177 33.2979 35.4556C33.1985 35.6936 33.0529 35.9098 32.8692 36.0918L24.8755 44.0426C24.6929 44.2263 24.4753 44.3722 24.2354 44.4718C23.9956 44.5713 23.7382 44.6226 23.4782 44.6226C23.2182 44.6226 22.9607 44.5713 22.7209 44.4718C22.481 44.3722 22.2634 44.2263 22.0808 44.0426L1.58114 23.6969C1.39642 23.5157 1.24977 23.2999 1.14968 23.0621C1.04959 22.8242 0.998051 22.569 0.998051 22.3113C0.998051 22.0535 1.04959 21.7983 1.14968 21.5605C1.24977 21.3226 1.39642 21.1068 1.58114 20.9257L22.0808 0.579881C22.2634 0.396182 22.481 0.250318 22.7209 0.15076C22.9607 0.0512025 23.2181 -6.49202e-05 23.4781 -6.49657e-05C23.7381 -6.50112e-05 23.9956 0.0512023 24.2354 0.15076C24.4753 0.250317 24.6929 0.396181 24.8755 0.579881L32.8717 8.52824C33.0553 8.7103 33.201 8.92649 33.3003 9.16445C33.3997 9.40241 33.4509 9.65748 33.4509 9.91507C33.4509 10.1727 33.3997 10.4277 33.3003 10.6657C33.201 10.9036 33.0553 11.1198 32.8717 11.3019L23.1751 20.9257C22.8051 21.2932 22.5972 21.7916 22.5972 22.3113C22.5972 22.8309 22.8051 23.3293 23.1751 23.6969Z" fill="#EDFAFB"/>
</svg>
