<svg width="102" height="42" viewBox="0 0 102 42" fill="none" xmlns="http://www.w3.org/2000/svg">
<path d="M16.2845 0V7.92964C15.2933 6.70243 13.83 5.85283 11.6116 5.85283C10.6676 5.85283 9.81803 5.99443 9.01562 6.32483L9.34603 6.65523L10.9508 8.26004L11.0452 8.35444C11.3284 8.30724 11.6116 8.26004 11.8948 8.26004C14.4437 8.26004 16.2373 10.1953 16.2373 12.6025C16.2373 15.0569 14.4437 17.0865 11.8948 17.0865C11.6116 17.0865 11.3284 17.0393 11.0452 16.9921L9.01562 19.0217C9.81803 19.3521 10.6676 19.4937 11.5644 19.4937C13.7828 19.4937 15.2933 18.6441 16.2373 17.4169V19.3521H18.9749V0H16.2845Z" fill="#EDFAFB"/>
<path d="M27.4231 11.4228C28.9807 11.4228 30.1608 11.7532 30.7272 12.0364V11.3284C30.7272 9.67641 29.4056 8.4492 27.3287 8.4492C25.6767 8.4492 24.3551 9.39321 23.5527 10.29L21.8535 8.5908C22.8919 7.3164 24.9687 5.90039 27.3759 5.90039C31.1048 5.90039 33.4176 7.8828 33.4176 11.0924V19.3525H30.7744V17.6533C29.972 18.8805 28.4615 19.6357 26.6679 19.6357C23.7887 19.6357 21.5703 18.1725 21.5703 15.6236C21.6175 13.122 23.9775 11.4228 27.4231 11.4228ZM27.0927 17.37C29.2168 17.37 30.7272 15.9068 30.7272 14.1132C30.1608 13.83 28.8864 13.4996 27.4703 13.4996C25.7711 13.4996 24.3079 14.066 24.3079 15.482C24.3551 16.7092 25.5351 17.37 27.0927 17.37Z" fill="#EDFAFB"/>
<path d="M38.1367 0.046875C39.1279 0.046875 39.8359 0.754879 39.8359 1.74608C39.8359 2.73729 39.1279 3.44529 38.1367 3.44529C37.1455 3.44529 36.4375 2.73729 36.4375 1.74608C36.4375 0.754879 37.1455 0.046875 38.1367 0.046875ZM36.7679 19.3518V6.13571H39.5055V19.3518H36.7679Z" fill="#EDFAFB"/>
<path d="M41.9609 12.7444C41.9609 8.87401 45.0762 5.90039 49.041 5.90039C51.637 5.90039 53.8082 7.2692 55.0354 9.53481L52.9114 10.9508C52.109 9.44041 50.5986 8.4492 48.9466 8.4492C46.3978 8.4492 44.6513 10.3372 44.6513 12.7444C44.6513 15.1988 46.445 17.0868 48.8994 17.0868C50.5986 17.0868 52.0618 16.19 52.9586 14.6324L54.9882 16.0956C53.761 18.2669 51.5426 19.6829 48.8994 19.6829C44.9818 19.6357 41.9609 16.5676 41.9609 12.7444Z" fill="#EDFAFB"/>
<path d="M62.2591 11.4228C63.8167 11.4228 64.9967 11.7532 65.5631 12.0364V11.3284C65.5631 9.67641 64.2415 8.4492 62.1647 8.4492C60.5127 8.4492 59.1911 9.39321 58.3887 10.29L56.6895 8.5908C57.7279 7.3164 59.8047 5.90039 62.2119 5.90039C65.9407 5.90039 68.2535 7.8828 68.2535 11.0924V19.3525H65.6103V17.6533C64.8079 18.8805 63.2975 19.6357 61.5039 19.6357C58.6247 19.6357 56.4062 18.1725 56.4062 15.6236C56.4535 13.122 58.8135 11.4228 62.2591 11.4228ZM61.9287 17.37C64.0527 17.37 65.5631 15.9068 65.5631 14.1132C64.9967 13.83 63.7223 13.4996 62.3063 13.4996C60.6071 13.4996 59.1439 14.066 59.1439 15.482C59.1911 16.7092 60.3711 17.37 61.9287 17.37Z" fill="#EDFAFB"/>
<path d="M71.6016 19.3518V6.13574H74.3392V7.92935C75.0944 6.46614 76.3216 5.85254 77.7848 5.85254C78.8232 5.85254 79.5784 6.18294 79.5784 6.18294L79.2952 8.68455C79.1536 8.63735 78.54 8.40135 77.6904 8.40135C76.2272 8.40135 74.3392 9.15656 74.3392 12.1302V19.3518H71.6016Z" fill="#EDFAFB"/>
<path d="M25.3906 29.3584C25.3906 25.5351 28.2226 22.5615 31.9987 22.5615C34.4531 22.5615 36.4355 23.7415 37.4267 25.2991V22.7975H39.0787V34.928C39.0787 38.9872 36.2939 41.6304 31.8099 41.6304C29.497 41.6304 27.4202 40.7808 26.0042 39.2704L27.0898 38.1848C28.3642 39.5064 30.0162 40.12 31.8571 40.12C35.2555 40.12 37.4739 38.232 37.4739 35.2584V33.3704C36.4827 34.928 34.5475 36.1552 32.0459 36.1552C28.2698 36.1552 25.3906 33.1816 25.3906 29.3584ZM26.9954 29.3584C26.9954 32.3792 29.1666 34.692 32.1403 34.692C35.2083 34.692 37.5211 32.3792 37.5211 29.3584C37.5211 26.3847 35.2083 24.0719 32.1403 24.0719C29.2138 24.0247 26.9954 26.3375 26.9954 29.3584Z" fill="#EDFAFB"/>
<path d="M42.9062 22.7978H44.5583V24.8747C45.3135 23.2699 46.6351 22.5146 48.1927 22.5146C49.0423 22.5146 49.6087 22.6562 50.1279 22.8451L49.9863 24.3555C49.4199 24.1195 48.9951 23.9779 48.1455 23.9779C46.1159 23.9779 44.6055 25.4883 44.6055 28.4147V35.8251H42.9534V22.7978H42.9062Z" fill="#EDFAFB"/>
<path d="M50.9219 29.3584C50.9219 25.5351 53.8955 22.5615 57.8603 22.5615C61.8251 22.5615 64.7987 25.5351 64.7987 29.3584C64.7987 33.1816 61.8251 36.1552 57.8603 36.1552C53.8955 36.1552 50.9219 33.1816 50.9219 29.3584ZM57.8603 34.692C60.8811 34.692 63.1939 32.3792 63.1939 29.3584C63.1939 26.3375 60.9283 24.0247 57.8603 24.0247C54.7923 24.0247 52.5267 26.3375 52.5267 29.3584C52.5267 32.3792 54.8395 34.692 57.8603 34.692Z" fill="#EDFAFB"/>
<path d="M67.5469 30.8219V22.7979H69.1989V30.3027C69.1989 33.2291 70.6621 34.6451 73.3525 34.6451C75.8069 34.6451 77.7893 32.8515 77.7893 30.2083V22.7979H79.4413V35.8723H77.7893V33.6067C76.7509 35.4003 74.9101 36.1555 73.1165 36.1555C69.8125 36.1555 67.5469 34.3619 67.5469 30.8219Z" fill="#EDFAFB"/>
<path d="M91.707 34.456C91.235 34.5976 90.7158 34.692 90.1966 34.692C87.1286 34.692 84.9573 32.2846 84.9573 29.2638C84.9573 26.2902 87.1286 24.0719 90.1966 24.0719C90.763 24.0719 91.2822 24.1663 91.8014 24.3079L92.9814 23.1279C92.179 22.7503 91.2822 22.5615 90.291 22.5615C87.8366 22.5615 85.8542 23.7415 84.8629 25.2991V22.7975H83.2109V41.3472H84.8629V33.3704C85.8542 34.928 87.7894 36.1552 90.291 36.1552C91.235 36.1552 92.1318 35.9664 92.887 35.636L91.707 34.456Z" fill="#EDFAFB"/>
<path opacity="0.5" d="M94.2122 29.0286L91.8994 26.7158C91.7106 26.527 91.7106 26.2438 91.8994 26.055L93.7874 24.167C93.9762 23.9782 94.2594 23.9782 94.4482 24.167L99.3571 29.0758C99.5459 29.2646 99.5459 29.5478 99.3571 29.7366L94.4482 34.6454C94.2594 34.8342 93.9762 34.8342 93.7874 34.6454L91.8994 32.7574C91.7106 32.5686 91.7106 32.2854 91.8994 32.0966L94.2594 29.7838C94.401 29.5006 94.401 29.2174 94.2122 29.0286Z" fill="#7EE49C"/>
<path opacity="0.5" d="M7.73955 13.0745L10.0524 15.3873C10.2412 15.5761 10.2412 15.8593 10.0524 16.0481L8.16435 17.9361C7.97555 18.1249 7.69235 18.1249 7.50355 17.9361L2.59473 13.0745C2.40592 12.8857 2.40592 12.6025 2.59473 12.4137L7.50355 7.50488C7.69235 7.31608 7.97555 7.31608 8.16435 7.50488L10.0524 9.39289C10.2412 9.58169 10.2412 9.86489 10.0524 10.0537L7.69235 12.3665C7.55075 12.6025 7.55075 12.8857 7.73955 13.0745Z" fill="#7EE49C"/>
<path d="M5.23923 13.0745L7.55204 15.3873C7.74084 15.5761 7.74084 15.8593 7.55204 16.0481L5.66403 17.9361C5.47523 18.1249 5.19203 18.1249 5.00323 17.9361L0.141601 13.0745C-0.0472002 12.8857 -0.0472002 12.6025 0.141601 12.4137L5.05043 7.50488C5.23923 7.31608 5.52243 7.31608 5.71123 7.50488L7.59924 9.39289C7.78804 9.58169 7.78804 9.86489 7.59924 10.0537L5.23923 12.3665C5.09763 12.6025 5.09763 12.8857 5.23923 13.0745Z" fill="#7EE49C"/>
<path d="M96.7122 29.0286L94.3994 26.7158C94.2106 26.527 94.2106 26.2438 94.3994 26.055L96.2874 24.167C96.4762 23.9782 96.7594 23.9782 96.9482 24.167L101.857 29.0758C102.046 29.2646 102.046 29.5478 101.857 29.7366L96.9482 34.6454C96.7594 34.8342 96.4762 34.8342 96.2874 34.6454L94.3994 32.7574C94.2106 32.5686 94.2106 32.2854 94.3994 32.0966L96.7594 29.7838C96.8538 29.5006 96.8538 29.2174 96.7122 29.0286Z" fill="#7EE49C"/>
</svg>
