<svg width="19" height="38" viewBox="0 0 19 38" fill="none" xmlns="http://www.w3.org/2000/svg">
<g clip-path="url(#clip0_704_495)">
<path d="M4.50488 0.582031L8.46972 7.10547H11.8096L8.84082 0.582031H4.50488ZM0.500977 19.6445C0.500977 25.2109 4.66113 29.3906 10.3252 29.3906C13.6455 29.3906 17.0635 27.75 18.8018 24.625L15.9502 22.5547C14.544 24.7617 12.669 25.7578 10.3252 25.7578C7.083 25.7578 4.68066 23.5508 4.50488 20.7383H19.0557C19.1729 20.1328 19.2119 19.5273 19.2119 18.9414C19.2119 13.9219 15.6572 9.85938 10.1885 9.85938C4.50488 9.85938 0.500977 14.0586 0.500977 19.6445ZM10.1494 13.3555C12.8447 13.3555 15.0518 15.2109 15.2861 17.8477H4.60254C5.09082 15.2109 7.27832 13.3555 10.1494 13.3555ZM30.8533 19.5273C30.8533 25.2891 34.9354 29.3906 40.2674 29.3906C43.451 29.3906 45.5604 28.2188 46.9471 26.4414V29H50.8143V1.5H46.9471V12.8086C45.5604 11.0312 43.451 9.85938 40.2674 9.85938C34.9354 9.85938 30.8533 13.7656 30.8533 19.5273ZM40.7361 13.3359C44.3299 13.3359 46.9275 16.0703 46.9275 19.5273C46.9275 22.9844 44.3494 25.9141 40.7361 25.9141C37.1229 25.9141 34.7205 22.9844 34.7205 19.5273C34.7205 16.0703 37.1229 13.3359 40.7361 13.3359ZM55.9221 3.96094C55.9221 5.36719 56.8986 6.34375 58.3049 6.34375C59.7111 6.34375 60.7072 5.36719 60.7072 3.96094C60.7072 2.55469 59.7111 1.57812 58.3049 1.57812C56.8986 1.57812 55.9221 2.55469 55.9221 3.96094ZM60.2385 29V10.25H56.3713V29H60.2385ZM73.9205 29.3906C77.1041 29.3906 79.2916 28.1406 80.6002 26.4414V28.0234C80.6002 31.4414 78.0807 33.6875 74.233 33.6875C71.7135 33.6875 69.7018 32.5938 67.9244 30.6602L65.3854 33.1797C67.5338 35.7578 70.7174 37.2031 74.1549 37.2031C80.4635 37.2031 84.4674 33.4336 84.4674 27.5352V10.25H80.6002V12.8086C79.2135 11.0312 77.1041 9.85938 73.9205 9.85938C68.5885 9.85938 64.5065 13.7656 64.5065 19.5273C64.5065 25.2891 68.5885 29.3906 73.9205 29.3906ZM74.3893 13.3359C77.983 13.3359 80.5807 16.0703 80.5807 19.5273C80.5807 22.9844 78.0025 25.9141 74.3893 25.9141C70.776 25.9141 68.3736 22.9844 68.3736 19.5273C68.3736 16.0703 70.776 13.3359 74.3893 13.3359ZM89.4971 3.96094C89.4971 5.36719 90.4736 6.34375 91.8799 6.34375C93.2861 6.34375 94.2822 5.36719 94.2822 3.96094C94.2822 2.55469 93.2861 1.57812 91.8799 1.57812C90.4736 1.57812 89.4971 2.55469 89.4971 3.96094ZM93.8135 29V10.25H89.9463V29H93.8135ZM100.484 13.5312V23.375C100.484 27.1836 102.945 29.3906 106.871 29.3906C108.375 29.3906 110.035 29.0586 110.972 28.5703L110.464 25.25C109.546 25.6406 108.316 25.8945 107.417 25.8945C105.503 25.8945 104.351 24.8984 104.351 22.9062V13.5312H110.269V10.25H104.312V4.23438H100.542V10.25H97.144V13.5312H100.484ZM112.975 23.668C112.975 27.3398 116.158 29.3906 120.221 29.3906C122.74 29.3906 124.908 28.3359 126.06 26.5781V29H129.85V17.2617C129.85 12.7109 126.51 9.85938 121.236 9.85938C117.818 9.85938 114.81 11.832 113.365 13.668L115.807 16.0898C116.92 14.8203 118.853 13.4922 121.178 13.4922C124.088 13.4922 125.982 15.25 125.982 17.5938V18.6094C125.123 18.1992 123.502 17.7305 121.256 17.7305C116.334 17.7305 112.975 20.1523 112.975 23.668ZM116.881 23.5312C116.881 21.5 118.912 20.6797 121.353 20.6797C123.385 20.6797 125.182 21.168 125.982 21.5781C125.982 24.1367 123.834 26.2266 120.787 26.2266C118.58 26.2266 116.881 25.2305 116.881 23.5312ZM139.02 1.5H135.153V29H139.02V1.5ZM143.19 19.6445C143.19 25.2109 147.35 29.3906 153.014 29.3906C156.335 29.3906 159.753 27.75 161.491 24.625L158.639 22.5547C157.233 24.7617 155.358 25.7578 153.014 25.7578C149.772 25.7578 147.37 23.5508 147.194 20.7383H161.745C161.862 20.1328 161.901 19.5273 161.901 18.9414C161.901 13.9219 158.346 9.85938 152.878 9.85938C147.194 9.85938 143.19 14.0586 143.19 19.6445ZM147.292 17.8477C147.78 15.2109 149.967 13.3555 152.839 13.3555C155.534 13.3555 157.741 15.2109 157.975 17.8477H147.292Z" fill="#EDFAFB"/>
</g>
<defs>
<clipPath id="clip0_704_495">
<rect width="19" height="38" fill="white"/>
</clipPath>
</defs>
</svg>
