<svg width="152" height="44" viewBox="0 0 152 44" fill="none" xmlns="http://www.w3.org/2000/svg">
<path d="M16.4337 7.58398V19.7074H5.29595V7.58398H0.0117188V36.5242H5.29738V24.7942H16.4323V36.5242H21.7194V7.58398H16.4337ZM38.6378 27.1703C38.6378 28.3302 38.177 29.4427 37.3568 30.2629C36.5366 31.0832 35.4241 31.544 34.2641 31.544C33.1041 31.544 31.9916 31.0832 31.1714 30.2629C30.3512 29.4427 29.8904 28.3302 29.8904 27.1703V14.7736H24.8765V27.1703C24.8765 29.6575 25.8646 32.0429 27.6233 33.8017C29.3821 35.5605 31.7675 36.5486 34.2548 36.5486C36.7421 36.5486 39.1275 35.5605 40.8862 33.8017C42.645 32.0429 43.6331 29.6575 43.6331 27.1703V14.7736H38.6378V27.1703ZM75.7891 16.0511C75.7891 13.5091 77.4699 12.7037 79.311 12.7037C80.7958 12.7037 82.7556 13.8338 84.0387 15.2042L87.3217 11.3333C85.6824 9.11604 82.3579 7.58398 79.6357 7.58398C74.1955 7.58398 70.2617 10.7697 70.2617 16.0511C70.2617 25.8499 82.2377 22.74 82.2377 28.2245C82.2377 29.9154 80.5955 31.4088 78.7159 31.4088C75.7505 31.4088 74.7892 29.9597 73.4273 28.4262L69.7824 32.2156C72.1141 35.0766 74.9894 36.53 78.4326 36.53C83.601 36.53 87.758 33.3056 87.758 28.2646C87.758 17.3871 75.7805 20.7674 75.7805 16.0511M149.88 31.9009C146.917 31.9009 146.075 30.6192 146.075 28.6565V19.9663H150.681V15.5633H146.075V9.75404L140.991 12.0357V29.7366C140.991 34.2641 144.115 36.5457 148.398 36.5457C149.07 36.5571 149.743 36.5028 150.403 36.3855L151.644 31.8194C151.084 31.858 150.442 31.8966 149.88 31.8966M57.7234 14.9181C55.2401 14.9181 53.5063 15.6391 51.8298 17.2827V7.75707H46.8088V25.4136C46.8088 32.0225 51.5866 36.5514 56.9567 36.5514C62.9132 36.5514 68.1531 31.9424 68.1531 25.7369C68.1531 19.6087 63.3309 14.9224 57.7234 14.9224M57.6919 31.4975C56.9436 31.4975 56.2026 31.3501 55.5113 31.0637C54.8199 30.7774 54.1917 30.3576 53.6626 29.8285C53.1335 29.2993 52.7137 28.6712 52.4274 27.9798C52.141 27.2884 51.9936 26.5475 51.9936 25.7991C51.9936 25.0508 52.141 24.3098 52.4274 23.6185C52.7137 22.9271 53.1335 22.2989 53.6626 21.7698C54.1917 21.2406 54.8199 20.8209 55.5113 20.5345C56.2026 20.2482 56.9436 20.1008 57.6919 20.1008C59.2032 20.1008 60.6526 20.7011 61.7213 21.7698C62.7899 22.8384 63.3903 24.2878 63.3903 25.7991C63.3903 27.3104 62.7899 28.7598 61.7213 29.8285C60.6526 30.8971 59.2032 31.4975 57.6919 31.4975ZM112.254 25.4737C112.254 19.2568 107.025 14.6592 101.057 14.6592C95.6886 14.6592 90.9094 19.1867 90.9094 25.797V43.4635H95.9304V33.925C97.6041 35.5658 99.3407 36.2896 101.821 36.2896C107.429 36.2896 112.254 31.6033 112.254 25.4737ZM107.499 25.4108C107.499 26.9221 106.898 28.3715 105.83 29.4401C104.761 30.5088 103.312 31.1091 101.8 31.1091C100.289 31.1091 98.8397 30.5088 97.771 29.4401C96.7024 28.3715 96.102 26.9221 96.102 25.4108C96.102 23.8995 96.7024 22.4501 97.771 21.3814C98.8397 20.3128 100.289 19.7124 101.8 19.7124C103.312 19.7124 104.761 20.3128 105.83 21.3814C106.898 22.4501 107.499 23.8995 107.499 25.4108Z" fill="black"/>
<path d="M128.487 14.4169V9.3716C129.154 9.05999 129.718 8.56543 130.115 7.94548C130.512 7.32553 130.724 6.6057 130.727 5.86976V5.75389C130.727 3.60815 128.988 1.86868 126.842 1.86868H126.726C125.696 1.86868 124.708 2.27801 123.979 3.00663C123.25 3.73525 122.841 4.72346 122.841 5.75389V5.86976C122.844 6.6057 123.057 7.32553 123.453 7.94548C123.85 8.56543 124.414 9.05999 125.081 9.3716V14.4169C123.165 14.7103 121.36 15.5049 119.85 16.72L106.013 5.94271C106.111 5.58652 106.163 5.22031 106.169 4.85268C106.17 3.98681 105.915 3.13989 105.436 2.41904C104.956 1.6982 104.273 1.13581 103.474 0.803018C102.674 0.470227 101.794 0.381983 100.945 0.549449C100.095 0.716914 99.3145 1.13256 98.7012 1.74383C98.0879 2.35509 97.6697 3.13449 97.4995 3.98346C97.3293 4.83243 97.4146 5.71282 97.7448 6.51327C98.075 7.31371 98.6351 7.99825 99.3544 8.48031C100.074 8.96236 100.92 9.22026 101.786 9.2214C102.543 9.21783 103.286 9.0156 103.941 8.6349L117.567 19.2377C116.343 21.0868 115.704 23.2618 115.734 25.4792C115.764 27.6966 116.462 29.8534 117.736 31.6686L113.591 35.8142C113.256 35.7071 112.907 35.6502 112.556 35.6454C111.845 35.646 111.15 35.8572 110.56 36.2524C109.969 36.6477 109.509 37.2091 109.237 37.8659C108.965 38.5226 108.894 39.2452 109.033 39.9422C109.172 40.6393 109.514 41.2796 110.017 41.7822C110.519 42.2847 111.16 42.627 111.857 42.7658C112.554 42.9046 113.276 42.8337 113.933 42.562C114.59 42.2902 115.151 41.8299 115.546 41.2392C115.942 40.6485 116.153 39.9538 116.153 39.2431C116.149 38.8914 116.092 38.5424 115.985 38.2074L120.084 34.1062C121.421 35.1354 122.976 35.845 124.63 36.1806C126.283 36.5161 127.992 36.4688 129.624 36.0421C131.256 35.6154 132.769 34.8207 134.047 33.719C135.325 32.6172 136.334 31.2376 136.996 29.6858C137.658 28.134 137.956 26.4512 137.868 24.7663C137.779 23.0814 137.306 21.4391 136.485 19.9653C135.664 18.4915 134.516 17.2252 133.13 16.2635C131.743 15.3018 130.155 14.6701 128.487 14.4169ZM126.788 31.0106C126.03 31.0315 125.276 30.9002 124.57 30.6247C123.864 30.3491 123.22 29.9348 122.677 29.4063C122.133 28.8777 121.702 28.2457 121.407 27.5474C121.112 26.8491 120.96 26.0988 120.96 25.3409C120.96 24.5829 121.112 23.8326 121.407 23.1343C121.702 22.4361 122.133 21.804 122.677 21.2755C123.22 20.7469 123.864 20.3326 124.57 20.0571C125.276 19.7815 126.03 19.6503 126.788 19.6711C128.256 19.7226 129.648 20.3419 130.668 21.3987C131.689 22.4555 132.26 23.8673 132.261 25.3367C132.262 26.8061 131.692 28.2185 130.672 29.2763C129.653 30.3341 128.262 30.9549 126.793 31.0078" fill="#E77B3A"/>
</svg>
