<svg width="152" height="44" viewBox="0 0 152 44" fill="none" xmlns="http://www.w3.org/2000/svg">
<path d="M16.4328 7.58423V19.7076H5.29497V7.58423H0.0107422V36.5245H5.2964V24.7945H16.4313V36.5245H21.7184V7.58423H16.4328ZM38.6368 27.1705C38.6368 28.3305 38.176 29.443 37.3558 30.2632C36.5356 31.0834 35.4231 31.5442 34.2631 31.5442C33.1031 31.5442 31.9907 31.0834 31.1704 30.2632C30.3502 29.443 29.8894 28.3305 29.8894 27.1705V14.7739H24.8755V27.1705C24.8755 29.6578 25.8636 32.0432 27.6224 33.802C29.3811 35.5607 31.7665 36.5488 34.2538 36.5488C36.7411 36.5488 39.1265 35.5607 40.8853 33.802C42.644 32.0432 43.6321 29.6578 43.6321 27.1705V14.7739H38.6368V27.1705ZM75.7881 16.0513C75.7881 13.5093 77.4689 12.704 79.31 12.704C80.7948 12.704 82.7546 13.834 84.0377 15.2044L87.3207 11.3335C85.6814 9.11628 82.3569 7.58423 79.6347 7.58423C74.1945 7.58423 70.2607 10.7699 70.2607 16.0513C70.2607 25.8502 82.2367 22.7403 82.2367 28.2248C82.2367 29.9156 80.5946 31.409 78.7149 31.409C75.7495 31.409 74.7882 29.96 73.4264 28.4265L69.7815 32.2158C72.1132 35.0768 74.9885 36.5302 78.4316 36.5302C83.6 36.5302 87.757 33.3059 87.757 28.2648C87.757 17.3874 75.7795 20.7676 75.7795 16.0513M149.879 31.9011C146.916 31.9011 146.074 30.6194 146.074 28.6568V19.9666H150.68V15.5635H146.074V9.75428L140.99 12.0359V29.7368C140.99 34.2643 144.114 36.5459 148.397 36.5459C149.069 36.5574 149.742 36.503 150.402 36.3857L151.643 31.8196C151.083 31.8582 150.441 31.8968 149.879 31.8968M57.7224 14.9184C55.2391 14.9184 53.5054 15.6393 51.8288 17.283V7.75732H46.8078V25.4139C46.8078 32.0227 51.5856 36.5517 56.9557 36.5517C62.9123 36.5517 68.1521 31.9426 68.1521 25.7372C68.1521 19.6089 63.33 14.9226 57.7224 14.9226M57.691 31.4977C56.9426 31.4977 56.2017 31.3503 55.5103 31.064C54.8189 30.7776 54.1908 30.3579 53.6616 29.8287C53.1325 29.2996 52.7127 28.6714 52.4264 27.98C52.14 27.2887 51.9926 26.5477 51.9926 25.7994C51.9926 25.0511 52.14 24.3101 52.4264 23.6187C52.7127 22.9274 53.1325 22.2992 53.6616 21.77C54.1908 21.2409 54.8189 20.8211 55.5103 20.5348C56.2017 20.2484 56.9426 20.101 57.691 20.101C59.2023 20.101 60.6517 20.7014 61.7203 21.77C62.789 22.8387 63.3893 24.2881 63.3893 25.7994C63.3893 27.3107 62.789 28.7601 61.7203 29.8287C60.6517 30.8974 59.2023 31.4977 57.691 31.4977ZM112.253 25.4739C112.253 19.257 107.024 14.6594 101.056 14.6594C95.6877 14.6594 90.9084 19.1869 90.9084 25.7972V43.4638H95.9294V33.9253C97.6031 35.566 99.3397 36.2899 101.82 36.2899C107.428 36.2899 112.253 31.6036 112.253 25.4739ZM107.498 25.411C107.498 26.9223 106.897 28.3717 105.829 29.4403C104.76 30.509 103.311 31.1094 101.799 31.1094C100.288 31.1094 98.8387 30.509 97.7701 29.4403C96.7014 28.3717 96.1011 26.9223 96.1011 25.411C96.1011 23.8997 96.7014 22.4503 97.7701 21.3816C98.8387 20.313 100.288 19.7126 101.799 19.7126C103.311 19.7126 104.76 20.313 105.829 21.3816C106.897 22.4503 107.498 23.8997 107.498 25.411Z" fill="black"/>
<path d="M128.484 14.4172V9.37184C129.151 9.06024 129.715 8.56568 130.112 7.94573C130.509 7.32578 130.721 6.60594 130.724 5.87V5.75413C130.724 3.6084 128.985 1.86892 126.839 1.86892H126.723C125.693 1.86892 124.705 2.27825 123.976 3.00687C123.247 3.73549 122.838 4.72371 122.838 5.75413V5.87C122.841 6.60594 123.054 7.32578 123.45 7.94573C123.847 8.56568 124.412 9.06024 125.078 9.37184V14.4172C123.162 14.7106 121.357 15.5051 119.847 16.7203L106.01 5.94296C106.109 5.58676 106.16 5.22056 106.166 4.85292C106.167 3.98705 105.912 3.14013 105.433 2.41929C104.953 1.69844 104.27 1.13605 103.471 0.803262C102.671 0.470471 101.791 0.382227 100.942 0.549693C100.092 0.717158 99.3115 1.13281 98.6983 1.74407C98.085 2.35533 97.6668 3.13474 97.4966 3.98371C97.3263 4.83268 97.4117 5.71306 97.7419 6.51351C98.0721 7.31396 98.6322 7.9985 99.3515 8.48055C100.071 8.9626 100.917 9.22051 101.783 9.22164C102.54 9.21807 103.284 9.01584 103.938 8.63514L117.564 19.2379C116.34 21.0871 115.701 23.2621 115.731 25.4794C115.761 27.6968 116.459 29.8537 117.733 31.6689L113.589 35.8145C113.254 35.7073 112.905 35.6504 112.553 35.6457C111.842 35.6462 111.147 35.8575 110.557 36.2527C109.966 36.6479 109.506 37.2094 109.234 37.8661C108.962 38.5229 108.891 39.2454 109.03 39.9425C109.169 40.6396 109.511 41.2798 110.014 41.7824C110.516 42.285 111.157 42.6273 111.854 42.7661C112.551 42.9049 113.273 42.8339 113.93 42.5622C114.587 42.2905 115.148 41.8302 115.544 41.2394C115.939 40.6487 116.15 39.9541 116.151 39.2433C116.146 38.8917 116.089 38.5426 115.982 38.2077L120.082 34.1064C121.418 35.1357 122.973 35.8453 124.627 36.1808C126.28 36.5164 127.989 36.469 129.621 36.0423C131.253 35.6156 132.766 34.821 134.044 33.7192C135.322 32.6175 136.331 31.2378 136.993 29.686C137.655 28.1342 137.953 26.4514 137.865 24.7665C137.776 23.0816 137.303 21.4394 136.482 19.9656C135.661 18.4917 134.513 17.2255 133.127 16.2637C131.74 15.302 130.152 14.6704 128.484 14.4172ZM126.785 31.0109C126.027 31.0317 125.273 30.9005 124.567 30.6249C123.861 30.3494 123.217 29.9351 122.674 29.4065C122.13 28.878 121.699 28.2459 121.404 27.5476C121.109 26.8494 120.957 26.0991 120.957 25.3411C120.957 24.5831 121.109 23.8329 121.404 23.1346C121.699 22.4363 122.13 21.8043 122.674 21.2757C123.217 20.7472 123.861 20.3329 124.567 20.0573C125.273 19.7818 126.027 19.6505 126.785 19.6714C128.253 19.7228 129.645 20.3421 130.666 21.3989C131.686 22.4557 132.257 23.8675 132.258 25.3369C132.259 26.8063 131.689 28.2187 130.67 29.2765C129.65 30.3344 128.259 30.9551 126.791 31.008" fill="#AAAAAA"/>
</svg>
