<svg width="46" height="47" viewBox="0 0 46 47" fill="none" xmlns="http://www.w3.org/2000/svg">
<path opacity="0.1" d="M23 46.6183C35.7025 46.6183 46 36.1824 46 23.3091C46 10.4359 35.7025 0 23 0C10.2975 0 0 10.4359 0 23.3091C0 36.1824 10.2975 46.6183 23 46.6183Z" fill="white"/>
<path d="M26.7188 26L27.1562 23.125H24.375V21.25C24.375 20.4375 24.75 19.6875 26 19.6875H27.2812V17.2188C27.2812 17.2188 26.125 17 25.0312 17C22.75 17 21.25 18.4062 21.25 20.9062V23.125H18.6875V26H21.25V33H24.375V26H26.7188Z" fill="white"/>
</svg>
