<svg width="46" height="47" viewBox="0 0 46 47" fill="none" xmlns="http://www.w3.org/2000/svg">
<path opacity="0.1" d="M23 46.6183C35.7025 46.6183 46 36.1824 46 23.3091C46 10.4359 35.7025 0 23 0C10.2975 0 0 10.4359 0 23.3091C0 36.1824 10.2975 46.6183 23 46.6183Z" fill="white"/>
<path d="M28 13H18C15.2386 13 13 15.2386 13 18V28C13 30.7614 15.2386 33 18 33H28C30.7614 33 33 30.7614 33 28V18C33 15.2386 30.7614 13 28 13Z" stroke="white" strokeWidth="2" stroke-linecap="round" stroke-linejoin="round"/>
<path d="M27.0036 22.3703C27.127 23.2025 26.9849 24.0525 26.5974 24.7993C26.2099 25.5461 25.5968 26.1517 24.8452 26.53C24.0937 26.9082 23.2421 27.0399 22.4114 26.9062C21.5807 26.7726 20.8134 26.3804 20.2185 25.7855C19.6235 25.1905 19.2313 24.4232 19.0977 23.5925C18.964 22.7619 19.0957 21.9102 19.4739 21.1587C19.8522 20.4072 20.4578 19.794 21.2046 19.4065C21.9514 19.019 22.8014 18.8769 23.6336 19.0003C24.4825 19.1262 25.2685 19.5218 25.8753 20.1286C26.4822 20.7355 26.8777 21.5214 27.0036 22.3703Z" stroke="white" strokeWidth="2" stroke-linecap="round" stroke-linejoin="round"/>
<path d="M28.5 17.5H28.51" stroke="white" strokeWidth="2" stroke-linecap="round" stroke-linejoin="round"/>
</svg>
