<svg width="46" height="47" viewBox="0 0 46 47" fill="none" xmlns="http://www.w3.org/2000/svg">
<path opacity="0.1" d="M23 46.6183C35.7025 46.6183 46 36.1824 46 23.3091C46 10.4359 35.7025 0 23 0C10.2975 0 0 10.4359 0 23.3091C0 36.1824 10.2975 46.6183 23 46.6183Z" fill="white"/>
<path d="M19.125 30V20.6562H16.2188V30H19.125ZM17.6562 19.4062C18.5938 19.4062 19.3438 18.625 19.3438 17.6875C19.3438 16.7812 18.5938 16.0312 17.6562 16.0312C16.75 16.0312 16 16.7812 16 17.6875C16 18.625 16.75 19.4062 17.6562 19.4062ZM29.9688 30H30V24.875C30 22.375 29.4375 20.4375 26.5 20.4375C25.0938 20.4375 24.1562 21.2188 23.75 21.9375H23.7188V20.6562H20.9375V30H23.8438V25.375C23.8438 24.1562 24.0625 23 25.5625 23C27.0625 23 27.0938 24.375 27.0938 25.4688V30H29.9688Z" fill="white"/>
</svg>
