<svg width="35" height="41" viewBox="0 0 35 41" fill="none" xmlns="http://www.w3.org/2000/svg">
<path d="M33.214 17.1187C33.214 29.2096 17.107 39.5732 17.107 39.5732C17.107 39.5732 1 29.2096 1 17.1187C1 12.9958 2.69698 9.04174 5.71763 6.1264C8.73828 3.21106 12.8352 1.57324 17.107 1.57324C21.3788 1.57324 25.4757 3.21106 28.4964 6.1264C31.517 9.04174 33.214 12.9958 33.214 17.1187Z" fill="#7EE49C" stroke="#7EE49C" strokeOpacity="0.49" strokeWidth="2" strokeLinecap="round" strokeLinejoin="round"/>
<path d="M17.1026 20C20.4385 20 23.1428 17.5376 23.1428 14.5C23.1428 11.4624 20.4385 9 17.1026 9C13.7668 9 11.0625 11.4624 11.0625 14.5C11.0625 17.5376 13.7668 20 17.1026 20Z" fill="#29424D" stroke="#29424D" strokeWidth="2" strokeLinecap="round" strokeLinejoin="round"/>
</svg>
