<svg width="143" height="79" viewBox="0 0 143 79" fill="none" xmlns="http://www.w3.org/2000/svg">
<path d="M17.7931 6.65154C17.8339 6.59166 17.9993 5.97454 18.8372 5.89625C18.8372 5.89625 19.2583 5.86631 19.7439 6.0206C19.7439 6.0206 19.4667 6.7897 18.3302 6.92786L17.6964 6.99234L17.7931 6.65154ZM129.814 41.7838C129.526 42.5529 128.304 43.4993 126.877 44.022C125.376 44.5493 122.209 44.5655 120.591 43.9967C120.591 43.9967 120.245 43.6075 119.13 43.2414C116.483 42.4055 115.62 41.8276 114.288 40.4874C113.338 39.5594 112.287 38.3666 111.291 37.2452C110.831 36.7409 109.739 35.5849 107.808 35.2257C105.814 34.8619 100.892 34.4589 99.0724 33.7566C97.8564 33.3007 96.3912 32.421 94.5908 29.5127C93.7207 28.1196 93.0568 27.712 91.8022 26.86C91.8022 26.86 92.7625 27.6683 93.2674 28.6538C93.985 30.0815 94.3416 31.1016 94.7326 31.8684C95.1473 32.6421 95.5984 33.3076 96.3246 33.9316C97.2162 34.7053 97.8027 34.8734 98.8189 35.1014C99.7793 35.304 103.09 35.4652 105.924 35.5734C108.712 35.7001 109.909 36.6189 110.775 37.4018C111.581 38.1202 112.852 40.1949 113.755 41.0469C114.949 42.1684 114.979 42.1983 116.369 43.1148C117.078 43.5845 117.697 43.9023 118.267 44.1164C119.562 44.927 119.029 46.3247 119.029 46.3247C118.653 47.4438 117.332 47.8399 115.789 47.6119C113.469 47.3886 111.46 45.3115 109.776 43.824C108.846 43.0065 108.5 42.5921 106.717 41.2634C103.994 39.2347 97.56 39.4097 97.56 39.4097L92.8699 39.3683C83.7241 39.511 80.3747 31.6335 79.453 29.9687C79.135 29.3976 78.8471 28.9278 78.5614 28.5502C78.1403 27.9285 75.835 24.7208 73.3794 23.5879C73.3794 23.5879 75.7384 25.7754 75.4913 26.9682C74.9993 26.9682 74.4085 26.9936 73.7296 27.0235C64.5085 27.309 62.5814 26.7541 61.1183 26.4409C59.6595 26.1347 57.2404 25.3564 54.8492 24.1797C54.8492 24.1797 55.1113 21.7595 54.166 19.7401C54.166 19.7401 61.7779 22.6069 67.8364 21.7895C67.8364 21.7895 58.0589 21.2852 51.9574 16.0857C51.9574 16.0857 53.4613 21.5799 52.2797 23.8941C52.2797 23.8941 50.6705 28.0781 42.4592 25.285C42.4592 25.285 38.6651 23.703 35.7346 23.703C35.7346 23.703 33.526 23.8043 33.2553 25.0317C33.2553 25.0317 33.1092 25.6189 33.6893 25.9113C33.6893 25.9113 34.336 26.1047 34.0202 26.6205C33.526 27.461 32.8385 28.0966 32.1446 28.4627C29.8501 28.3522 30.0305 26.3396 30.0305 26.3396C30.0735 25.6189 30.2948 25.1215 30.4774 24.6356C31.9319 21.1908 36.9893 20.6819 36.9893 20.6819C42.384 20.1108 48.0344 21.5016 48.0344 21.5016C43.991 20.4654 42.6096 19.7078 41.4666 18.6785C39.8983 17.2923 38.4524 12.6063 38.4524 12.6063C37.8336 14.9067 38.6028 17.2186 39.1184 18.4137C38.3578 17.1012 37.2535 15.9959 36.2953 15.1577C33.7903 13.03 30.1831 12.3369 30.1831 12.3369C29.1475 12.1435 28.735 10.9875 28.735 10.9875C27.388 8.34172 25.8798 8.22889 25.8798 8.22889C26.6274 9.32497 26.5501 10.8194 26.5501 10.8194C26.5501 13.5734 23.2286 14.4899 23.2286 14.4899C20.7493 17.1288 20.3175 17.0805 19.8341 17.1127C19.3442 17.1426 18.9962 16.6084 18.9962 16.6084C18.8308 16.3643 19.0929 16.1363 19.0929 16.1363C19.5226 15.8485 19.9071 15.4939 19.9071 15.4939C22.3263 13.4053 22.6657 12.3484 22.4681 10.9092C22.0813 8.00552 19.8878 8.21967 19.8878 8.21967C18.863 8.21967 18.3581 9.05555 18.3581 9.05555C17.9671 9.55984 17.0948 11.1349 17.0948 11.1349C16.3343 12.4866 15.6511 12.2885 15.6511 12.2885C14.8132 12.3484 14.2031 11.5379 14.2031 11.5379L14.1171 11.4481C13.5005 10.7342 14.0398 9.8638 14.0398 9.8638C15.056 7.92263 16.8327 7.73611 17.0605 7.71308C17.3161 7.70156 18.1196 7.6463 18.1196 7.6463C20.1327 7.48281 21.4218 5.44032 21.4218 5.44032C20.5817 5.00741 19.0929 5.23537 19.0929 5.23537C17.6148 5.33209 17.228 7.00845 17.228 7.00845C15.9755 7.19728 16.0271 6.15876 16.287 5.88243C16.5083 5.61993 17.2603 4.30739 22.1265 3.52678C22.1265 3.52678 24.711 2.96952 29.2893 3.51526C29.4569 3.53368 29.6073 3.69487 29.3989 3.96429C28.821 4.69654 27.0227 6.29001 24.1224 5.5094C24.1224 5.5094 24.0772 6.75746 27.2354 7.36307C27.2354 7.36307 30.0735 8.02394 34.712 12.0007C34.712 12.0007 32.4754 7.5565 28.576 6.18869C28.576 6.18869 28.2946 6.00447 28.5438 5.71664C28.5438 5.71664 30.3893 3.95277 33.6377 4.13238C33.6377 4.13238 44.3734 4.72648 50.4191 11.4734C50.4191 11.4734 50.2043 10.3451 49.289 8.71936L49.2074 8.38547C49.2074 8.38547 49.289 8.09763 50.3267 8.31869C50.3267 8.31869 54.166 9.00259 63.0712 12.4866C63.0712 12.4866 69.7335 14.985 73.3794 16.6038C78.8428 19.0193 92.5412 24.9672 101.193 30.0999C102.723 30.998 109.168 34.3991 109.168 34.3991C113.98 37.5998 118.415 39.914 118.415 39.914C122.759 42.067 125.936 41.0769 125.936 41.0769C126.942 40.6693 128.871 39.5594 129.632 40.3446C130.018 40.7591 130.027 41.2841 129.814 41.7838ZM130.891 39.9854C130.343 38.5646 128.495 38.9123 128.495 38.9123C127.651 38.9607 126.602 39.914 125.118 40.2249C121.968 40.9272 119.553 39.7759 119.553 39.7759C114.87 37.5445 111.725 35.1106 109.671 33.8602C107.608 32.5891 100.009 28.3245 92.4188 24.2326C92.4188 24.2326 83.7133 19.4522 70.8249 13.76C70.8249 13.76 45.9826 1.69843 28.1055 1.69843C28.1055 1.69843 18.8372 1.56027 15.707 5.38966C15.707 5.38966 15.1484 5.87552 15.4169 6.47653L15.3396 6.75746C15.3396 6.75746 13.9624 7.72459 12.8388 9.11543C12.8388 9.11543 12.2394 9.77399 12.7142 10.7595C12.7142 10.7595 13.3115 11.8741 13.6831 12.3484C14.0849 12.8251 14.8454 13.654 16.0163 13.532C16.5255 13.4767 16.532 13.3409 16.532 13.3409C17.0691 13.9212 17.9993 13.9649 17.9993 13.9649C17.9112 13.5942 17.561 12.8965 17.5267 12.4866C17.4966 12.0352 17.6577 11.5931 17.6577 11.5931C17.8597 11.1073 18.2206 10.4717 18.5858 10.1655C18.9189 9.89604 19.7439 9.60129 20.3497 10.0641C20.8374 10.4234 21.3616 11.5931 20.7794 13.1659C20.7794 13.1659 20.1069 14.384 19.4989 14.5268L19.3357 14.5383C18.9812 14.5268 18.1991 14.0593 18.1991 14.0593C18.1991 14.0593 18.1648 14.1514 18.2528 14.5774C18.3001 14.8146 18.371 15.084 18.4376 15.2913L18.2743 15.4386C18.2743 15.4386 17.7802 15.8485 17.9993 16.4702C17.9993 16.4702 18.487 18.4022 19.819 18.4022C20.9985 18.4321 21.9782 17.2393 21.9782 17.2393C24.522 14.3126 28.1055 13.9096 28.1055 13.9096C32.0715 13.6218 37.7241 17.9716 39.2709 19.222C33.3993 19.146 31.0317 21.573 31.0317 21.573C27.7382 24.3178 29.0143 27.6406 29.0143 27.6406C29.2399 28.3545 29.9274 28.8887 30.3721 29.0982C30.9844 29.3792 31.5065 29.3976 31.9792 29.3377C32.3358 29.2963 32.7204 29.1581 32.903 29.013C33.3627 28.7298 34.1641 28.168 34.5508 27.5739C34.8043 27.2699 35.0707 26.5422 34.8924 25.8422C34.8924 25.8422 34.7829 25.285 35.2705 25.1652C35.2705 25.1652 36.8131 24.7392 39.9606 26.2383C39.9606 26.2383 43.368 28.3545 47.798 28.7736C47.798 28.7736 52.8297 29.3377 54.0457 26.4064C54.0457 26.4064 56.9375 27.6775 61.1763 28.1979C61.1763 28.1979 65.2862 28.6538 71.9829 28.1081C73.3042 27.9999 74.8554 28.1242 74.8554 28.1242C76.9844 28.3913 78.3487 29.5841 78.8923 30.5236C81.0751 34.3323 83.7047 41.8068 94.3996 41.5029L99.2615 41.3647C102.198 41.3647 104.598 41.4016 106.946 42.7371C107.976 43.3197 110.7 46.2165 112.378 47.1975C117.319 50.7643 120.198 49.1018 120.198 49.1018C121.893 48.0494 121.751 46.1866 121.337 45.125C120.827 44.9569 127.468 46.1751 130.321 42.1983C130.981 41.2979 131.101 40.4828 130.891 39.9854Z" fill="#231F20"/>
<path d="M90.066 68.1449C89.2195 71.8362 86.6091 73.4043 82.2392 73.4043C79.2787 73.4043 76.6748 72.7572 75.3277 71.325C73.8775 69.796 73.6562 67.6913 73.6562 65.4347V54.3978H76.9777V65.2597C76.9777 67.7005 77.1797 69.1604 78.0734 70.2381C79.0703 71.5046 80.8299 71.8776 82.3166 71.8776C85.4533 71.8776 87.5308 70.7884 88.098 67.8387C88.2312 67.1571 88.3279 66.3189 88.3279 65.0363V54.3978H90.371V64.3017C90.371 66.1462 90.2701 67.1893 90.066 68.1449Z" fill="#4F5059"/>
<path d="M106.879 57.9601L103.042 66.5261H110.538L106.879 57.9601ZM113.271 73.0151L111.086 67.7949H102.473L100.122 73.0151H98.0234L106.684 54.4278H108.736L117.224 73.0151" fill="#4F5059"/>
<path d="M27.8054 57.9601L23.9662 66.5261H31.4707L27.8054 57.9601ZM34.2013 73.0151L32.0056 67.7949H23.4012L21.0486 73.0151H18.9453L27.6035 54.4278H29.6789L38.1566 73.0151" fill="#4F5059"/>
<path d="M56.238 73.4023C50.4974 73.4023 45.0469 71.2862 45.0469 64.157C45.0469 61.8313 46.0051 59.4503 47.4639 57.7486C49.7369 55.1097 53.2045 54.0597 56.4572 54.0597C58.4423 54.0597 60.7261 54.534 62.5029 55.5012V57.7048C60.8915 56.4153 58.7904 55.5357 56.6978 55.5357C51.9777 55.5357 48.7357 58.6904 48.7357 63.9083C48.7357 68.6473 51.6039 71.8872 56.0146 71.8872C57.1382 71.8872 58.6851 71.6684 59.7744 71.2286V64.4472H63.0743V72.0092C61.13 72.9579 58.3714 73.4023 56.238 73.4023Z" fill="#4F5059"/>
<path d="M131.451 55.6898H129.019V64.5851H131.154C132.944 64.5851 134.014 64.2213 134.839 63.4982C135.722 62.7499 136.251 61.5939 136.251 60.0212C136.251 56.8803 134.121 55.6898 131.451 55.6898ZM137.093 72.9854L132.502 65.8585H129.019V72.9854H125.695V54.398H131.979C134.532 54.398 137.084 54.8009 138.496 56.475C139.23 57.3638 139.654 58.5705 139.654 60.1455C139.654 63.0354 137.61 64.7555 135.81 65.4348L140.932 72.9854" fill="#4F5059"/>
<path d="M4.91327 76.8148C4.03886 77.2477 3.07851 77.5378 2.08594 77.5378C4.37187 75.7763 5.32362 73.9848 5.66522 71.0212C5.85643 69.384 5.85643 67.7353 5.85643 66.098V54.4003H9.16931V68.4698C9.16931 71.9031 7.93181 75.2213 4.91327 76.8148Z" fill="#4F5059"/>
</svg>
