<svg width="33" height="32" viewBox="0 0 33 32" fill="none" xmlns="http://www.w3.org/2000/svg">
<path d="M16.5977 0.0800781C7.78918 0.0800781 0.647461 7.22179 0.647461 16.0303C0.647461 24.8388 7.78918 31.9805 16.5977 31.9805C25.4062 31.9805 32.5479 24.8388 32.5479 16.0303C32.5479 7.22179 25.4062 0.0800781 16.5977 0.0800781ZM10.611 7.26167C11.7302 7.26167 12.4759 8.00734 12.4759 9.00157C12.4759 9.9958 11.7302 10.7415 10.4874 10.7415C9.36825 10.7428 8.62258 9.9958 8.62258 9.00157C8.62258 8.00734 9.36825 7.26167 10.611 7.26167ZM12.6101 22.6762H8.62258V12.0428H12.6101V22.6762ZM25.902 22.6762H22.1484V16.865C22.1484 15.2581 21.1475 14.8872 20.7727 14.8872C20.3978 14.8872 19.1457 15.1344 19.1457 16.865C19.1457 17.1123 19.1457 22.6762 19.1457 22.6762H15.2685V12.0428H19.1471V13.5261C19.6468 12.6608 20.6477 12.0428 22.5245 12.0428C24.4013 12.0428 25.902 13.5261 25.902 16.865V22.6762Z" fill="#EDFAFB"/>
</svg>
