<svg width="232" height="42" viewBox="0 0 232 42" fill="none" xmlns="http://www.w3.org/2000/svg">
<g clip-path="url(#clip0_623_401)">
<path d="M23.8196 0.988525V12.7428C22.3696 10.8537 20.2291 9.66429 16.9839 9.66429C15.6029 9.66429 14.291 9.94416 13.1172 10.4339C13.3243 10.5738 13.5315 10.7138 13.6696 10.9237L15.8791 13.1626C15.9481 13.2326 16.0172 13.3025 16.0862 13.4424C16.5005 13.3725 16.9148 13.3025 17.3981 13.3025C21.1267 13.3025 23.7505 16.1711 23.7505 19.7394C23.7505 23.3076 21.1267 26.3861 17.3981 26.3861C16.9839 26.3861 16.5005 26.3162 16.0862 26.2462C16.0172 26.3162 15.9481 26.4561 15.8791 26.5261L13.6696 28.765C13.5315 28.9049 13.3243 29.1148 13.1172 29.1848C14.291 29.6745 15.6029 29.9544 16.9839 29.9544C20.2291 29.9544 22.4386 28.695 23.8196 26.8759V29.6745H27.8243V0.988525H23.8196Z" fill="#EDFAFB"/>
<path d="M40.1166 17.9204C42.3952 17.9204 44.1214 18.4101 44.9499 18.8299V17.7804C44.9499 15.3316 43.0166 13.5125 39.9785 13.5125C37.5618 13.5125 35.6285 14.9118 34.4547 16.2412L31.969 13.7224C33.488 11.8334 36.5261 9.73438 40.0475 9.73438C45.5023 9.73438 48.8856 12.6729 48.8856 17.4306V29.6746H45.019V27.1559C43.8452 28.975 41.6356 30.0944 39.0118 30.0944C34.7999 30.0944 31.5547 27.9255 31.5547 24.1473C31.6237 20.4392 35.0761 17.9204 40.1166 17.9204ZM39.6333 26.7361C42.7404 26.7361 44.9499 24.5671 44.9499 21.9084C44.1214 21.4886 42.2571 20.9989 40.1856 20.9989C37.6999 20.9989 35.5594 21.8385 35.5594 23.9374C35.6285 25.7566 37.4237 26.7361 39.6333 26.7361Z" fill="#EDFAFB"/>
<path d="M55.7904 1.05859C57.2404 1.05859 58.2761 2.10808 58.2761 3.57737C58.2761 5.04665 57.2404 6.09614 55.7904 6.09614C54.3404 6.09614 53.3047 5.04665 53.3047 3.57737C53.3047 2.10808 54.3404 1.05859 55.7904 1.05859ZM53.788 29.6746V10.0842H57.7928V29.6746H53.788Z" fill="#EDFAFB"/>
<path d="M61.4531 19.8794C61.4531 14.1422 66.0103 9.73438 71.8103 9.73438C75.6079 9.73438 78.7841 11.7634 80.5793 15.1217L77.4722 17.2207C76.2984 14.9818 74.0888 13.5125 71.6722 13.5125C67.9436 13.5125 65.3888 16.3112 65.3888 19.8794C65.3888 23.5177 68.0126 26.3163 71.6031 26.3163C74.0888 26.3163 76.2293 24.9869 77.5412 22.6781L80.5103 24.847C78.715 28.0654 75.4698 30.1644 71.6031 30.1644C65.8031 30.0944 61.4531 25.5467 61.4531 19.8794Z" fill="#EDFAFB"/>
<path d="M91.14 17.9204C93.4186 17.9204 95.1448 18.4101 95.9734 18.8299V17.7804C95.9734 15.3316 94.04 13.5125 91.0019 13.5125C88.5853 13.5125 86.6519 14.9118 85.4781 16.2412L82.9924 13.7224C84.5115 11.8334 87.5496 9.73438 91.071 9.73438C96.5257 9.73438 99.9091 12.6729 99.9091 17.4306V29.6746H96.0424V27.1559C94.8686 28.975 92.6591 30.0944 90.0353 30.0944C85.8234 30.0944 82.5781 27.9255 82.5781 24.1473C82.5781 20.4392 86.0305 17.9204 91.14 17.9204ZM90.6567 26.7361C93.7638 26.7361 95.9734 24.5671 95.9734 21.9084C95.1448 21.4886 93.2805 20.9989 91.2091 20.9989C88.7234 20.9989 86.5829 21.8385 86.5829 23.9374C86.5829 25.7566 88.3781 26.7361 90.6567 26.7361Z" fill="#EDFAFB"/>
<path d="M104.742 29.6745V10.0841H108.747V12.7428C109.852 10.5739 111.647 9.66431 113.787 9.66431C115.306 9.66431 116.411 10.1541 116.411 10.1541L115.997 13.8623C115.79 13.7923 114.892 13.4425 113.649 13.4425C111.509 13.4425 108.747 14.5619 108.747 18.9698V29.6745H104.742Z" fill="#EDFAFB"/>
<path d="M118.141 19.7394C118.141 14.0022 122.353 9.52441 127.945 9.52441C131.605 9.52441 134.505 11.3435 136.024 13.6524V9.94421H138.441V28.1353C138.441 34.2224 134.298 38.2104 127.669 38.2104C124.217 38.2104 121.11 36.951 119.038 34.6422L120.626 33.0329C122.56 34.992 124.976 35.9715 127.669 35.9715C132.779 35.9715 136.024 33.1729 136.024 28.6951V25.8265C134.574 28.2053 131.674 30.0244 127.945 30.0244C122.353 30.0244 118.141 25.5466 118.141 19.7394ZM120.557 19.7394C120.557 24.2872 123.803 27.7855 128.153 27.7855C132.71 27.7855 136.162 24.2872 136.162 19.7394C136.162 15.2616 132.71 11.7633 128.153 11.7633C123.803 11.7633 120.557 15.2616 120.557 19.7394Z" fill="#EDFAFB"/>
<path d="M144.102 9.94421H146.518V13.0927C147.623 10.7138 149.625 9.52441 151.973 9.52441C153.216 9.52441 154.044 9.73431 154.804 10.0142L154.528 12.323C153.699 11.9732 153.078 11.7633 151.766 11.7633C148.728 11.7633 146.518 14.0722 146.518 18.48V29.6046H144.102V9.94421Z" fill="#EDFAFB"/>
<path d="M155.977 19.8093C155.977 14.0721 160.396 9.59424 166.265 9.59424C172.134 9.59424 176.553 14.0721 176.553 19.8093C176.553 25.5465 172.134 30.0243 166.265 30.0243C160.396 30.0243 155.977 25.5465 155.977 19.8093ZM166.334 27.7854C170.822 27.7854 174.205 24.2871 174.205 19.8093C174.205 15.3314 170.822 11.8331 166.334 11.8331C161.846 11.8331 158.462 15.3314 158.462 19.8093C158.462 24.2871 161.846 27.7854 166.334 27.7854Z" fill="#EDFAFB"/>
<path d="M180.695 21.9782V9.94409H183.112V21.2086C183.112 25.6164 185.252 27.7154 189.257 27.7154C192.917 27.7154 195.817 24.9868 195.817 21.0687V9.94409H198.233V29.6045H195.817V26.1762C194.298 28.8349 191.536 30.0243 188.912 30.0243C184.01 30.0243 180.695 27.2956 180.695 21.9782Z" fill="#EDFAFB"/>
<path d="M216.534 27.4356C215.844 27.6455 215.084 27.7854 214.256 27.7854C209.698 27.7854 206.246 24.2871 206.246 19.7393C206.246 15.2615 209.698 11.7632 214.256 11.7632C215.084 11.7632 215.913 11.9032 216.603 12.113L218.398 10.2939C217.225 9.73421 215.844 9.45435 214.394 9.45435C210.734 9.45435 207.834 11.2735 206.315 13.5823V9.87414H203.898V37.7206H206.315V25.8264C207.765 28.2052 210.665 30.0243 214.394 30.0243C215.775 30.0243 217.087 29.7444 218.26 29.2547L216.534 27.4356Z" fill="#EDFAFB"/>
<path opacity="0.5" d="M11.3271 20.3692L14.7104 23.7975C14.9866 24.0774 14.9866 24.4972 14.7104 24.777L11.9485 27.5757C11.6723 27.8555 11.258 27.8555 10.9818 27.5757L3.80089 20.3692C3.5247 20.0893 3.5247 19.6695 3.80089 19.3897L10.9818 12.1132C11.258 11.8334 11.6723 11.8334 11.9485 12.1132L14.7104 14.9119C14.9866 15.1917 14.9866 15.6115 14.7104 15.8914L11.258 19.3197C11.0509 19.6695 11.0509 20.0893 11.3271 20.3692Z" fill="#7EE49C"/>
<path d="M7.66429 20.3692L11.0476 23.7975C11.3238 24.0774 11.3238 24.4972 11.0476 24.777L8.28572 27.5757C8.00952 27.8555 7.59524 27.8555 7.31905 27.5757L0.207143 20.3692C-0.0690476 20.0893 -0.0690476 19.6695 0.207143 19.3897L7.3881 12.1132C7.66429 11.8334 8.07857 11.8334 8.35476 12.1132L11.1167 14.9119C11.3929 15.1917 11.3929 15.6115 11.1167 15.8914L7.66429 19.3197C7.45714 19.6695 7.45714 20.0893 7.66429 20.3692Z" fill="#7EE49C"/>
<path opacity="0.5" d="M220.676 19.3898L217.293 15.9614C217.017 15.6816 217.017 15.2618 217.293 14.9819L220.055 12.1833C220.331 11.9034 220.745 11.9034 221.022 12.1833L228.203 19.4597C228.479 19.7396 228.479 20.1594 228.203 20.4393L221.022 27.7157C220.745 27.9956 220.331 27.9956 220.055 27.7157L217.293 24.9171C217.017 24.6372 217.017 24.2174 217.293 23.9376L220.745 20.5092C220.953 20.0894 220.953 19.6696 220.676 19.3898Z" fill="#7EE49C"/>
<path d="M224.27 19.3898L220.887 15.9614C220.611 15.6816 220.611 15.2618 220.887 14.9819L223.649 12.1833C223.925 11.9034 224.339 11.9034 224.615 12.1833L231.796 19.4597C232.073 19.7396 232.073 20.1594 231.796 20.4393L224.615 27.7157C224.339 27.9956 223.925 27.9956 223.649 27.7157L220.887 24.9171C220.611 24.6372 220.611 24.2174 220.887 23.9376L224.339 20.5092C224.546 20.0894 224.546 19.6696 224.27 19.3898Z" fill="#7EE49C"/>
</g>
<defs>
<clipPath id="clip0_623_401">
<rect width="232" height="41" fill="white" transform="translate(0 0.988525)"/>
</clipPath>
</defs>
</svg>
