<svg width="44" height="45" viewBox="0 0 44 45" fill="none" xmlns="http://www.w3.org/2000/svg">
<path opacity="0.5" d="M33.9811 23.8205L43.4328 33.4418C43.6118 33.6238 43.7539 33.84 43.8508 34.078C43.9476 34.3159 43.9975 34.571 43.9975 34.8286C43.9975 35.0862 43.9476 35.3413 43.8508 35.5792C43.7539 35.8172 43.6118 36.0334 43.4328 36.2154L35.6389 44.1662C35.4608 44.3499 35.2487 44.4958 35.0149 44.5954C34.781 44.6949 34.53 44.7462 34.2765 44.7462C34.023 44.7462 33.772 44.6949 33.5381 44.5954C33.3043 44.4958 33.0922 44.3499 32.9141 44.1662L12.9269 23.8205C12.7468 23.6393 12.6038 23.4235 12.5062 23.1857C12.4087 22.9478 12.3584 22.6926 12.3584 22.4349C12.3584 22.1771 12.4087 21.9219 12.5062 21.6841C12.6038 21.4462 12.7468 21.2304 12.9269 21.0493L32.9141 0.703477C33.0921 0.519778 33.3043 0.373914 33.5381 0.274356C33.772 0.174799 34.023 0.123531 34.2765 0.123531C34.53 0.123531 34.781 0.174799 35.0148 0.274356C35.2487 0.373914 35.4608 0.519777 35.6389 0.703477L43.4352 8.65184C43.6142 8.8339 43.7562 9.05008 43.8531 9.28805C43.95 9.526 43.9999 9.78107 43.9999 10.0387C43.9999 10.2963 43.95 10.5513 43.8531 10.7893C43.7562 11.0272 43.6142 11.2434 43.4352 11.4255L33.9811 21.0492C33.6202 21.4168 33.4175 21.9152 33.4175 22.4349C33.4175 22.9545 33.6202 23.4529 33.9811 23.8205Z" fill="#7EE49C"/>
<path d="M23.1751 23.8205L32.8692 33.4418C33.0529 33.6238 33.1985 33.84 33.2979 34.078C33.3973 34.3159 33.4484 34.571 33.4484 34.8286C33.4484 35.0862 33.3973 35.3413 33.2979 35.5792C33.1985 35.8172 33.0529 36.0334 32.8692 36.2154L24.8755 44.1662C24.6929 44.3499 24.4753 44.4958 24.2354 44.5954C23.9956 44.6949 23.7382 44.7462 23.4782 44.7462C23.2182 44.7462 22.9607 44.6949 22.7209 44.5954C22.481 44.4958 22.2634 44.3499 22.0808 44.1662L1.58114 23.8205C1.39642 23.6393 1.24977 23.4235 1.14968 23.1857C1.04959 22.9478 0.998051 22.6926 0.998051 22.4349C0.998051 22.1771 1.04959 21.9219 1.14968 21.6841C1.24977 21.4462 1.39642 21.2304 1.58114 21.0493L22.0808 0.703477C22.2634 0.519778 22.481 0.373914 22.7209 0.274356C22.9607 0.174799 23.2181 0.123531 23.4781 0.123531C23.7381 0.123531 23.9956 0.174798 24.2354 0.274356C24.4753 0.373914 24.6929 0.519777 24.8755 0.703477L32.8717 8.65184C33.0553 8.8339 33.201 9.05008 33.3003 9.28805C33.3997 9.526 33.4509 9.78107 33.4509 10.0387C33.4509 10.2963 33.3997 10.5513 33.3003 10.7893C33.201 11.0272 33.0553 11.2434 32.8717 11.4255L23.1751 21.0492C22.8051 21.4168 22.5972 21.9152 22.5972 22.4349C22.5972 22.9545 22.8051 23.4529 23.1751 23.8205Z" fill="#7EE49C"/>
</svg>
