<svg width="38" height="38" viewBox="0 0 38 38" fill="none" xmlns="http://www.w3.org/2000/svg">
<path d="M36.9989 27.9529V33.3724C37.0009 33.8755 36.8977 34.3735 36.6957 34.8344C36.4938 35.2954 36.1976 35.7092 35.8261 36.0493C35.4546 36.3895 35.0161 36.6484 34.5385 36.8096C34.061 36.9708 33.555 37.0306 33.0529 36.9853C27.483 36.3813 22.1328 34.4818 17.432 31.4394C13.0586 28.6659 9.35067 24.9653 6.57161 20.6005C3.51255 15.8878 1.60883 10.5221 1.01469 4.93831C0.969459 4.43876 1.02895 3.93528 1.18936 3.45993C1.34978 2.98458 1.60762 2.54777 1.94645 2.17732C2.28529 1.80687 2.6977 1.51089 3.15744 1.30822C3.61717 1.10556 4.11415 1.00065 4.61673 1.00018H10.0469C10.9254 0.991547 11.777 1.302 12.443 1.87367C13.1091 2.44534 13.5441 3.23922 13.6671 4.10733C13.8963 5.84167 14.3213 7.54457 14.9341 9.18355C15.1777 9.83013 15.2304 10.5328 15.086 11.2084C14.9416 11.884 14.6063 12.5041 14.1196 12.9952L11.8208 15.2895C14.3975 19.8121 18.1496 23.5567 22.6812 26.1284L24.98 23.8341C25.4722 23.3484 26.0935 23.0137 26.7704 22.8696C27.4473 22.7256 28.1514 22.7782 28.7993 23.0212C30.4415 23.6328 32.1478 24.057 33.8856 24.2858C34.7648 24.4096 35.5678 24.8516 36.1419 25.5277C36.7159 26.2038 37.0209 27.067 36.9989 27.9529Z" fill="#7EE49C" stroke="#7EE49C" strokeOpacity="0.5" strokeWidth="2" stroke-linecap="round" stroke-linejoin="round"/>
</svg>
