<svg width="197" height="53" viewBox="0 0 197 53" fill="none" xmlns="http://www.w3.org/2000/svg">
<g clip-path="url(#clip0_8_9610)">
<mask id="mask0_8_9610" style="mask-type:luminance" maskUnits="userSpaceOnUse" x="-16" y="-12" width="226" height="77">
<path d="M209.917 -11.2339H-15.8203V64.6837H209.917V-11.2339Z" fill="white"/>
</mask>
<g mask="url(#mask0_8_9610)">
<path d="M22.5021 15.0913C18.9479 15.0913 16.887 16.7104 15.9014 17.7898C15.7819 16.8303 15.1547 15.601 12.7056 15.601H7.35938V21.1779H9.53969C9.89809 21.1779 10.0176 21.2978 10.0176 21.6576V47.1734H16.3494V37.6387V36.9191C17.335 37.8186 19.2167 39.0779 22.1735 39.0779C28.3561 39.0779 32.6868 34.1607 32.6868 27.0846C32.7167 19.9186 28.595 15.0913 22.5021 15.0913ZM21.2178 33.531C17.8129 33.531 16.2598 30.2628 16.2598 27.2045C16.2598 22.4072 18.8583 20.6982 21.3074 20.6982C24.2941 20.6982 26.3251 23.2767 26.3251 27.1446C26.2952 31.5821 23.7266 33.531 21.2178 33.531Z" fill="#1C2434"/>
</g>
<mask id="mask1_8_9610" style="mask-type:luminance" maskUnits="userSpaceOnUse" x="-16" y="-12" width="226" height="77">
<path d="M209.917 -11.2339H-15.8203V64.6837H209.917V-11.2339Z" fill="white"/>
</mask>
<g mask="url(#mask1_8_9610)">
<path d="M41.223 32.5419V19.0195C41.223 16.7407 40.118 15.6313 37.8779 15.6313H32.2031V21.2082H34.3834C34.7418 21.2082 34.8613 21.3282 34.8613 21.688V35.1505C34.8613 37.4592 35.9365 38.5386 38.2064 38.5386H43.8812V32.9917H41.7009C41.3724 33.0216 41.223 32.8717 41.223 32.5419Z" fill="#1C2434"/>
</g>
<mask id="mask2_8_9610" style="mask-type:luminance" maskUnits="userSpaceOnUse" x="-16" y="-12" width="226" height="77">
<path d="M209.917 -11.2339H-15.8203V64.6837H209.917V-11.2339Z" fill="white"/>
</mask>
<g mask="url(#mask2_8_9610)">
<path d="M57.7716 15.0913C54.2174 15.0913 52.1566 16.7104 51.1411 17.7898C51.0216 16.8303 50.3944 15.601 47.9453 15.601H42.6289V21.1779H44.8092C45.1676 21.1779 45.2871 21.2978 45.2871 21.6576V47.1734H51.6787V37.6387V36.9191C52.6643 37.8186 54.5758 39.0779 57.5028 39.0779C63.6853 39.0779 68.0161 34.1607 68.0161 27.0846C68.0161 19.9186 63.8944 15.0913 57.7716 15.0913ZM56.4873 33.531C53.0825 33.531 51.5294 30.2628 51.5294 27.2045C51.5294 22.4072 54.1278 20.6982 56.5769 20.6982C59.5637 20.6982 61.5946 23.2767 61.5946 27.1446C61.5946 31.5821 59.026 33.531 56.4873 33.531Z" fill="#1C2434"/>
</g>
<mask id="mask3_8_9610" style="mask-type:luminance" maskUnits="userSpaceOnUse" x="-16" y="-12" width="226" height="77">
<path d="M209.917 -11.2339H-15.8203V64.6837H209.917V-11.2339Z" fill="white"/>
</mask>
<g mask="url(#mask3_8_9610)">
<path d="M79.9362 15.0913C73.0966 15.0913 68.3477 20.0385 68.3477 27.0846C68.3477 34.0407 73.4848 39.0779 80.5932 39.0779C86.1784 39.0779 89.5833 35.7498 89.7326 35.6298L90.0014 35.39L87.2536 30.8025L86.8355 31.1923C86.8056 31.2223 84.2968 33.531 80.9815 33.531C77.8156 33.531 75.4859 31.5821 74.9185 28.5238H89.9417L89.9716 28.104C89.9716 28.0441 90.1209 26.6948 90.1209 26.0352C90.1209 19.4988 86.0291 15.0913 79.9362 15.0913ZM75.1574 23.7865C75.8443 21.5377 77.5767 20.2484 79.9362 20.2484C81.8477 20.2484 83.3112 21.7176 83.58 23.7865H75.1574Z" fill="#1C2434"/>
</g>
<mask id="mask4_8_9610" style="mask-type:luminance" maskUnits="userSpaceOnUse" x="-16" y="-12" width="226" height="77">
<path d="M209.917 -11.2339H-15.8203V64.6837H209.917V-11.2339Z" fill="white"/>
</mask>
<g mask="url(#mask4_8_9610)">
<path d="M113.173 32.5418V10.3842C113.173 8.10547 112.068 6.99609 109.798 6.99609H104.123V12.573H106.303C106.662 12.573 106.781 12.6929 106.781 13.0527V17.0705C105.855 16.2309 104.034 15.1216 100.868 15.1216C94.715 15.1216 90.4141 20.0688 90.4141 27.1149C90.4141 34.2809 94.5357 39.1082 100.629 39.1082C104.123 39.1082 106.154 37.4891 107.14 36.3497C107.259 37.3392 107.916 38.5985 110.276 38.5985H115.771V33.0516H113.651C113.292 33.0216 113.173 32.8717 113.173 32.5418ZM101.853 33.5313C98.8366 33.5313 96.8953 31.0127 96.8953 27.0849C96.8953 23.277 98.9262 20.7284 101.943 20.7284C105.378 20.7284 106.901 23.9067 106.901 27.0549C106.901 31.8522 104.302 33.5313 101.853 33.5313Z" fill="#1C2434"/>
</g>
<mask id="mask5_8_9610" style="mask-type:luminance" maskUnits="userSpaceOnUse" x="-16" y="-12" width="226" height="77">
<path d="M209.917 -11.2339H-15.8203V64.6837H209.917V-11.2339Z" fill="white"/>
</mask>
<g mask="url(#mask5_8_9610)">
<path d="M129.9 15.3013C127.272 15.3013 124.823 16.8304 123.389 19.2591V18.7493C123.389 16.6805 122.254 15.6011 120.014 15.6011H114.578V21.178H116.758C117.117 21.178 117.236 21.2979 117.236 21.6577V38.5383H123.568V29.3634C123.568 28.1641 123.718 26.9947 124.016 25.9153C124.972 22.7371 127.511 21.6277 129.542 21.6277C130.258 21.6277 130.796 21.7177 130.796 21.7177L131.334 21.8076V15.4812L130.945 15.4212C130.945 15.3912 130.408 15.3013 129.9 15.3013Z" fill="#1C2434"/>
</g>
<mask id="mask6_8_9610" style="mask-type:luminance" maskUnits="userSpaceOnUse" x="-16" y="-12" width="226" height="77">
<path d="M209.917 -11.2339H-15.8203V64.6837H209.917V-11.2339Z" fill="white"/>
</mask>
<g mask="url(#mask6_8_9610)">
<path d="M140.353 32.5419V19.0195C140.353 16.7407 139.248 15.6313 137.008 15.6313H131.871V21.2082H133.514C133.872 21.2082 133.992 21.3282 133.992 21.688V35.1505C133.992 37.4592 135.067 38.5386 137.337 38.5386H143.012V32.9917H140.831C140.503 33.0216 140.353 32.8717 140.353 32.5419Z" fill="#1C2434"/>
</g>
<mask id="mask7_8_9610" style="mask-type:luminance" maskUnits="userSpaceOnUse" x="-16" y="-12" width="226" height="77">
<path d="M209.917 -11.2339H-15.8203V64.6837H209.917V-11.2339Z" fill="white"/>
</mask>
<g mask="url(#mask7_8_9610)">
<path d="M164.278 15.6313H160.903C158.932 15.6313 157.857 16.321 157.229 18L153.108 29.5736C152.958 29.9933 152.839 30.4731 152.719 30.9528C152.6 30.503 152.451 29.9933 152.301 29.5736L148.18 18C147.552 16.291 146.537 15.6313 144.506 15.6313H140.922V21.2082H141.848C142.356 21.2082 142.505 21.3881 142.624 21.688L149.016 38.5686H156.154L162.546 21.688C162.665 21.3881 162.815 21.2082 163.322 21.2082H164.308V15.6313H164.278Z" fill="#1C2434"/>
</g>
<mask id="mask8_8_9610" style="mask-type:luminance" maskUnits="userSpaceOnUse" x="-16" y="-12" width="226" height="77">
<path d="M209.917 -11.2339H-15.8203V64.6837H209.917V-11.2339Z" fill="white"/>
</mask>
<g mask="url(#mask8_8_9610)">
<path d="M175.214 15.0913C168.374 15.0913 163.625 20.0385 163.625 27.0846C163.625 34.0407 168.762 39.0779 175.871 39.0779C181.456 39.0779 184.861 35.7498 185.01 35.6298L185.279 35.39L182.531 30.8025L182.113 31.1923C182.083 31.2223 179.574 33.531 176.289 33.531C173.123 33.531 170.793 31.5821 170.226 28.5238H185.249L185.279 28.104C185.279 28.0441 185.398 26.6948 185.398 26.0352C185.398 19.4988 181.306 15.0913 175.214 15.0913ZM170.435 23.7865C171.122 21.5377 172.854 20.2484 175.214 20.2484C177.125 20.2484 178.589 21.7176 178.857 23.7865H170.435Z" fill="#1C2434"/>
</g>
<mask id="mask9_8_9610" style="mask-type:luminance" maskUnits="userSpaceOnUse" x="-16" y="-12" width="226" height="77">
<path d="M209.917 -11.2339H-15.8203V64.6837H209.917V-11.2339Z" fill="white"/>
</mask>
<g mask="url(#mask9_8_9610)">
<path d="M40.7777 6.96582H35.1328V12.9325H40.7777V6.96582Z" fill="#1C2434"/>
</g>
<mask id="mask10_8_9610" style="mask-type:luminance" maskUnits="userSpaceOnUse" x="-16" y="-12" width="226" height="77">
<path d="M209.917 -11.2339H-15.8203V64.6837H209.917V-11.2339Z" fill="white"/>
</mask>
<g mask="url(#mask10_8_9610)">
<path d="M139.934 6.96582H134.289V12.9325H139.934V6.96582Z" fill="#1C2434"/>
</g>
<mask id="mask11_8_9610" style="mask-type:luminance" maskUnits="userSpaceOnUse" x="-16" y="-12" width="226" height="77">
<path d="M209.917 -11.2339H-15.8203V64.6837H209.917V-11.2339Z" fill="white"/>
</mask>
<g mask="url(#mask11_8_9610)">
<path d="M185.273 15.631H186.11V17.9097H186.737V15.631H187.573V15.0913H185.273V15.631Z" fill="#1C2434"/>
</g>
<mask id="mask12_8_9610" style="mask-type:luminance" maskUnits="userSpaceOnUse" x="-16" y="-12" width="226" height="77">
<path d="M209.917 -11.2339H-15.8203V64.6837H209.917V-11.2339Z" fill="white"/>
</mask>
<g mask="url(#mask12_8_9610)">
<path d="M190.057 15.0913L189.429 17.0402L188.772 15.0913H187.906V17.9097H188.474V15.9308H188.504L189.191 17.9097H189.668L190.355 15.9308V17.9097H190.923V15.0913H190.057Z" fill="#1C2434"/>
</g>
</g>
<defs>
<clipPath id="clip0_8_9610">
<rect width="196.454" height="52.4513" fill="white" transform="translate(0.40625 0.466797)"/>
</clipPath>
</defs>
</svg>
