<svg width="197" height="53" viewBox="0 0 197 53" fill="none" xmlns="http://www.w3.org/2000/svg">
<mask id="mask0_623_791" style="mask-type:luminance" maskUnits="userSpaceOnUse" x="-16" y="-12" width="226" height="77">
<path d="M209.916 -11.2334H-15.8213V64.6842H209.916V-11.2334Z" fill="white"/>
</mask>
<g mask="url(#mask0_623_791)">
<path d="M22.5001 15.0918C18.9459 15.0918 16.8851 16.7109 15.8995 17.7903C15.78 16.8308 15.1528 15.6015 12.7037 15.6015H7.35742V21.1784H9.53773C9.89614 21.1784 10.0156 21.2983 10.0156 21.6581V47.1739H16.3475V37.6392V36.9196C17.3331 37.8191 19.2147 39.0784 22.1716 39.0784C28.3541 39.0784 32.6849 34.1612 32.6849 27.0851C32.7147 19.9191 28.5931 15.0918 22.5001 15.0918ZM21.2158 33.5315C17.811 33.5315 16.2579 30.2633 16.2579 27.205C16.2579 22.4077 18.8563 20.6987 21.3054 20.6987C24.2922 20.6987 26.3231 23.2772 26.3231 27.1451C26.2933 31.5826 23.7247 33.5315 21.2158 33.5315Z" fill="#4F5059"/>
</g>
<mask id="mask1_623_791" style="mask-type:luminance" maskUnits="userSpaceOnUse" x="-16" y="-12" width="226" height="77">
<path d="M209.916 -11.2334H-15.8213V64.6842H209.916V-11.2334Z" fill="white"/>
</mask>
<g mask="url(#mask1_623_791)">
<path d="M41.224 32.5422V19.0197C41.224 16.741 40.1189 15.6316 37.8789 15.6316H32.2041V21.2085H34.3844C34.7428 21.2085 34.8623 21.3284 34.8623 21.6882V35.1507C34.8623 37.4594 35.9375 38.5388 38.2074 38.5388H43.8822V32.9919H41.7019C41.3734 33.0219 41.224 32.872 41.224 32.5422Z" fill="#4F5059"/>
</g>
<mask id="mask2_623_791" style="mask-type:luminance" maskUnits="userSpaceOnUse" x="-16" y="-12" width="226" height="77">
<path d="M209.916 -11.2334H-15.8213V64.6842H209.916V-11.2334Z" fill="white"/>
</mask>
<g mask="url(#mask2_623_791)">
<path d="M57.7706 15.0918C54.2164 15.0918 52.1556 16.7109 51.1401 17.7903C51.0206 16.8308 50.3934 15.6015 47.9443 15.6015H42.6279V21.1784H44.8082C45.1666 21.1784 45.2861 21.2983 45.2861 21.6581V47.1739H51.6777V37.6392V36.9196C52.6633 37.8191 54.5748 39.0784 57.5018 39.0784C63.6844 39.0784 68.0151 34.1612 68.0151 27.0851C68.0151 19.9191 63.8934 15.0918 57.7706 15.0918ZM56.4863 33.5315C53.0815 33.5315 51.5284 30.2633 51.5284 27.205C51.5284 22.4077 54.1268 20.6987 56.5759 20.6987C59.5627 20.6987 61.5937 23.2772 61.5937 27.1451C61.5937 31.5826 59.0251 33.5315 56.4863 33.5315Z" fill="#4F5059"/>
</g>
<mask id="mask3_623_791" style="mask-type:luminance" maskUnits="userSpaceOnUse" x="-16" y="-12" width="226" height="77">
<path d="M209.916 -11.2334H-15.8213V64.6842H209.916V-11.2334Z" fill="white"/>
</mask>
<g mask="url(#mask3_623_791)">
<path d="M79.9352 15.0918C73.0956 15.0918 68.3467 20.039 68.3467 27.0851C68.3467 34.0412 73.4839 39.0784 80.5923 39.0784C86.1774 39.0784 89.5823 35.7503 89.7317 35.6303L90.0005 35.3905L87.2527 30.803L86.8345 31.1928C86.8047 31.2228 84.2958 33.5315 80.9805 33.5315C77.8146 33.5315 75.485 31.5826 74.9175 28.5243H89.9407L89.9706 28.1045C89.9706 28.0446 90.1199 26.6953 90.1199 26.0357C90.1199 19.4993 86.0281 15.0918 79.9352 15.0918ZM75.1564 23.7869C75.8434 21.5382 77.5757 20.2489 79.9352 20.2489C81.8467 20.2489 83.3102 21.7181 83.579 23.7869H75.1564Z" fill="#4F5059"/>
</g>
<mask id="mask4_623_791" style="mask-type:luminance" maskUnits="userSpaceOnUse" x="-16" y="-12" width="226" height="77">
<path d="M209.916 -11.2334H-15.8213V64.6842H209.916V-11.2334Z" fill="white"/>
</mask>
<g mask="url(#mask4_623_791)">
<path d="M113.174 32.5423V10.3847C113.174 8.10596 112.069 6.99658 109.799 6.99658H104.124V12.5735H106.304C106.663 12.5735 106.782 12.6934 106.782 13.0532V17.071C105.856 16.2314 104.035 15.122 100.869 15.122C94.7159 15.122 90.415 20.0693 90.415 27.1154C90.415 34.2814 94.5367 39.1087 100.63 39.1087C104.124 39.1087 106.155 37.4896 107.141 36.3502C107.26 37.3396 107.917 38.5989 110.277 38.5989H115.772V33.052H113.652C113.293 33.0221 113.174 32.8721 113.174 32.5423ZM101.854 33.5318C98.8376 33.5318 96.8962 31.0132 96.8962 27.0854C96.8962 23.2775 98.9272 20.7289 101.944 20.7289C105.379 20.7289 106.902 23.9071 106.902 27.0554C106.902 31.8527 104.303 33.5318 101.854 33.5318Z" fill="#4F5059"/>
</g>
<mask id="mask5_623_791" style="mask-type:luminance" maskUnits="userSpaceOnUse" x="-16" y="-12" width="226" height="77">
<path d="M209.916 -11.2334H-15.8213V64.6842H209.916V-11.2334Z" fill="white"/>
</mask>
<g mask="url(#mask5_623_791)">
<path d="M129.899 15.302C127.271 15.302 124.822 16.8311 123.388 19.2598V18.7501C123.388 16.6812 122.253 15.6018 120.013 15.6018H114.577V21.1787H116.757C117.116 21.1787 117.235 21.2987 117.235 21.6585V38.539H123.567V29.3642C123.567 28.1648 123.717 26.9955 124.015 25.9161C124.971 22.7379 127.51 21.6285 129.541 21.6285C130.257 21.6285 130.795 21.7184 130.795 21.7184L131.333 21.8084V15.4819L130.944 15.4219C130.944 15.392 130.407 15.302 129.899 15.302Z" fill="#4F5059"/>
</g>
<mask id="mask6_623_791" style="mask-type:luminance" maskUnits="userSpaceOnUse" x="-16" y="-12" width="226" height="77">
<path d="M209.916 -11.2334H-15.8213V64.6842H209.916V-11.2334Z" fill="white"/>
</mask>
<g mask="url(#mask6_623_791)">
<path d="M140.351 32.5422V19.0197C140.351 16.741 139.246 15.6316 137.006 15.6316H131.869V21.2085H133.512C133.87 21.2085 133.99 21.3284 133.99 21.6882V35.1507C133.99 37.4594 135.065 38.5388 137.335 38.5388H143.01V32.9919H140.829C140.501 33.0219 140.351 32.872 140.351 32.5422Z" fill="#4F5059"/>
</g>
<mask id="mask7_623_791" style="mask-type:luminance" maskUnits="userSpaceOnUse" x="-16" y="-12" width="226" height="77">
<path d="M209.916 -11.2334H-15.8213V64.6842H209.916V-11.2334Z" fill="white"/>
</mask>
<g mask="url(#mask7_623_791)">
<path d="M164.278 15.6316H160.903C158.932 15.6316 157.857 16.3212 157.229 18.0003L153.108 29.5738C152.958 29.9936 152.839 30.4733 152.719 30.953C152.6 30.5033 152.451 29.9936 152.301 29.5738L148.18 18.0003C147.552 16.2912 146.537 15.6316 144.506 15.6316H140.922V21.2085H141.848C142.356 21.2085 142.505 21.3884 142.624 21.6882L149.016 38.5688H156.154L162.546 21.6882C162.665 21.3884 162.815 21.2085 163.322 21.2085H164.308V15.6316H164.278Z" fill="#4F5059"/>
</g>
<mask id="mask8_623_791" style="mask-type:luminance" maskUnits="userSpaceOnUse" x="-16" y="-12" width="226" height="77">
<path d="M209.916 -11.2334H-15.8213V64.6842H209.916V-11.2334Z" fill="white"/>
</mask>
<g mask="url(#mask8_623_791)">
<path d="M175.212 15.0918C168.372 15.0918 163.623 20.039 163.623 27.0851C163.623 34.0412 168.76 39.0784 175.869 39.0784C181.454 39.0784 184.859 35.7503 185.008 35.6303L185.277 35.3905L182.529 30.803L182.111 31.1928C182.081 31.2228 179.572 33.5315 176.287 33.5315C173.121 33.5315 170.791 31.5826 170.224 28.5243H185.247L185.277 28.1045C185.277 28.0446 185.396 26.6953 185.396 26.0357C185.396 19.4993 181.304 15.0918 175.212 15.0918ZM170.433 23.7869C171.12 21.5382 172.852 20.2489 175.212 20.2489C177.123 20.2489 178.587 21.7181 178.855 23.7869H170.433Z" fill="#4F5059"/>
</g>
<mask id="mask9_623_791" style="mask-type:luminance" maskUnits="userSpaceOnUse" x="-16" y="-12" width="226" height="77">
<path d="M209.916 -11.2334H-15.8213V64.6842H209.916V-11.2334Z" fill="white"/>
</mask>
<g mask="url(#mask9_623_791)">
<path d="M40.7767 6.96655H35.1318V12.9332H40.7767V6.96655Z" fill="#4F5059"/>
</g>
<mask id="mask10_623_791" style="mask-type:luminance" maskUnits="userSpaceOnUse" x="-16" y="-12" width="226" height="77">
<path d="M209.916 -11.2334H-15.8213V64.6842H209.916V-11.2334Z" fill="white"/>
</mask>
<g mask="url(#mask10_623_791)">
<path d="M139.936 6.96631H134.291V12.933H139.936V6.96631Z" fill="#4F5059"/>
</g>
<mask id="mask11_623_791" style="mask-type:luminance" maskUnits="userSpaceOnUse" x="-16" y="-12" width="226" height="77">
<path d="M209.916 -11.2334H-15.8213V64.6842H209.916V-11.2334Z" fill="white"/>
</mask>
<g mask="url(#mask11_623_791)">
<path d="M185.274 15.6315H186.111V17.9102H186.738V15.6315H187.574V15.0918H185.274V15.6315Z" fill="#4F5059"/>
</g>
<mask id="mask12_623_791" style="mask-type:luminance" maskUnits="userSpaceOnUse" x="-16" y="-12" width="226" height="77">
<path d="M209.916 -11.2334H-15.8213V64.6842H209.916V-11.2334Z" fill="white"/>
</mask>
<g mask="url(#mask12_623_791)">
<path d="M190.055 15.0918L189.428 17.0407L188.77 15.0918H187.904V17.9102H188.472V15.9313H188.502L189.189 17.9102H189.666L190.353 15.9313V17.9102H190.921V15.0918H190.055Z" fill="#4F5059"/>
</g>
</svg>
