<svg width="705" height="124" viewBox="0 0 705 124" fill="none" xmlns="http://www.w3.org/2000/svg">
<g clip-path="url(#clip0_875_514)">
<path d="M72.3827 0V35.5495C67.9764 29.8362 61.472 26.2389 51.6104 26.2389C47.4139 26.2389 43.4273 27.0853 39.8604 28.5666C40.4898 28.9898 41.1193 29.413 41.5389 30.0478L48.2532 36.8191C48.463 37.0307 48.6729 37.2423 48.8827 37.6655C50.1416 37.4539 51.4005 37.2423 52.8693 37.2423C64.1996 37.2423 72.1729 45.9181 72.1729 56.7099C72.1729 67.5017 64.1996 76.8123 52.8693 76.8123C51.6104 76.8123 50.1416 76.6007 48.8827 76.3891C48.6729 76.6007 48.463 77.0239 48.2532 77.2355L41.5389 84.0068C41.1193 84.43 40.4898 85.0648 39.8604 85.2764C43.4273 86.7577 47.4139 87.6041 51.6104 87.6041C61.472 87.6041 68.1862 83.7952 72.3827 78.2935V86.7577H84.5523V0H72.3827Z" fill="#EDFAFB"/>
<path d="M121.906 51.2093C128.83 51.2093 134.075 52.6906 136.593 53.9602V50.7861C136.593 43.38 130.718 37.8783 121.486 37.8783C114.142 37.8783 108.267 42.1104 104.7 46.1308L97.1466 38.5131C101.763 32.7998 110.995 26.4517 121.696 26.4517C138.272 26.4517 148.553 35.339 148.553 49.7281V86.7588H136.803V79.1411C133.236 84.6428 126.522 88.0284 118.548 88.0284C105.749 88.0284 95.8877 81.4687 95.8877 70.0421C96.0975 58.8271 106.589 51.2093 121.906 51.2093ZM120.437 77.8715C129.879 77.8715 136.593 71.3117 136.593 63.2708C134.075 62.0011 128.41 60.5199 122.115 60.5199C114.562 60.5199 108.057 63.0592 108.057 69.4073C108.267 74.909 113.723 77.8715 120.437 77.8715Z" fill="#EDFAFB"/>
<path d="M169.535 0.212891C173.941 0.212891 177.089 3.38695 177.089 7.83064C177.089 12.2743 173.941 15.4484 169.535 15.4484C165.129 15.4484 161.981 12.2743 161.981 7.83064C161.981 3.38695 165.129 0.212891 169.535 0.212891ZM163.45 86.759V27.5098H175.62V86.759H163.45Z" fill="#EDFAFB"/>
<path d="M186.743 57.1343C186.743 39.7827 200.591 26.4517 218.216 26.4517C229.757 26.4517 239.408 32.5882 244.864 42.7452L235.422 49.0933C231.855 42.322 225.14 37.8783 217.797 37.8783C206.466 37.8783 198.703 46.3424 198.703 57.1343C198.703 68.1377 206.676 76.6018 217.587 76.6018C225.14 76.6018 231.645 72.5813 235.632 65.5984L244.654 72.1581C239.199 81.8919 229.337 88.2401 217.587 88.2401C199.962 88.0284 186.743 74.2742 186.743 57.1343Z" fill="#EDFAFB"/>
<path d="M276.955 51.2093C283.879 51.2093 289.125 52.6906 291.643 53.9602V50.7861C291.643 43.38 285.768 37.8783 276.536 37.8783C269.192 37.8783 263.317 42.1104 259.75 46.1308L252.196 38.5131C256.812 32.7998 266.045 26.4517 276.746 26.4517C293.321 26.4517 303.603 35.339 303.603 49.7281V86.7588H291.853V79.1411C288.286 84.6428 281.571 88.0284 273.598 88.0284C260.799 88.0284 250.938 81.4687 250.938 70.0421C250.937 58.8271 261.429 51.2093 276.955 51.2093ZM275.487 77.8715C284.929 77.8715 291.643 71.3117 291.643 63.2708C289.125 62.0011 283.46 60.5199 277.165 60.5199C269.612 60.5199 263.107 63.0592 263.107 69.4073C263.107 74.909 268.563 77.8715 275.487 77.8715Z" fill="#EDFAFB"/>
<path d="M318.29 86.7575V27.5084H330.46V35.5493C333.817 28.9896 339.272 26.2388 345.777 26.2388C350.393 26.2388 353.75 27.72 353.75 27.72L352.491 38.935C351.861 38.7234 349.134 37.6654 345.357 37.6654C338.853 37.6654 330.46 41.0511 330.46 54.3821V86.7575H318.29Z" fill="#EDFAFB"/>
<path d="M359.005 56.7096C359.005 39.3581 371.804 25.8154 388.8 25.8154C399.92 25.8154 408.733 31.3171 413.349 38.3001V27.0851H420.692V82.1021C420.692 100.512 408.103 112.573 387.96 112.573C377.469 112.573 368.027 108.764 361.733 101.781L366.558 96.9144C372.433 102.839 379.777 105.802 387.96 105.802C403.487 105.802 413.349 97.3376 413.349 83.795V75.1192C408.942 82.3137 400.13 87.8154 388.8 87.8154C371.804 87.8154 359.005 74.2728 359.005 56.7096ZM366.349 56.7096C366.349 70.4639 376.21 81.0441 389.429 81.0441C403.277 81.0441 413.768 70.4639 413.768 56.7096C413.768 43.167 403.277 32.5868 389.429 32.5868C376.21 32.5868 366.349 43.167 366.349 56.7096Z" fill="#EDFAFB"/>
<path d="M437.895 27.0865H445.238V36.6087C448.595 29.4142 454.68 25.8169 461.814 25.8169C465.591 25.8169 468.109 26.4517 470.417 27.2981L469.578 34.2811C467.06 33.223 465.171 32.5882 461.185 32.5882C451.953 32.5882 445.238 39.5712 445.238 52.9022V86.5473H437.895V27.0865Z" fill="#EDFAFB"/>
<path d="M473.98 56.9206C473.98 39.569 487.409 26.0264 505.244 26.0264C523.079 26.0264 536.507 39.569 536.507 56.9206C536.507 74.2721 523.079 87.8148 505.244 87.8148C487.409 87.8148 473.98 74.2721 473.98 56.9206ZM505.454 81.0434C519.092 81.0434 529.373 70.4632 529.373 56.9206C529.373 43.3779 519.092 32.7977 505.454 32.7977C491.815 32.7977 481.534 43.3779 481.534 56.9206C481.534 70.4632 491.815 81.0434 505.454 81.0434Z" fill="#EDFAFB"/>
<path d="M549.096 63.4809V27.085H556.439V61.1532C556.439 74.4843 562.944 80.8324 575.114 80.8324C586.234 80.8324 595.047 72.5798 595.047 60.73V27.085H602.39V86.5457H595.047V76.1771C590.431 84.2181 582.038 87.8153 574.064 87.8153C559.167 87.8153 549.096 79.5628 549.096 63.4809Z" fill="#EDFAFB"/>
<path d="M658.003 79.9862C655.905 80.6211 653.597 81.0443 651.079 81.0443C637.23 81.0443 626.739 70.4641 626.739 56.7098C626.739 43.1671 637.23 32.5869 651.079 32.5869C653.597 32.5869 656.114 33.0101 658.213 33.645L663.668 28.1433C660.101 26.4504 655.905 25.604 651.498 25.604C640.378 25.604 631.565 31.1057 626.949 38.0886V26.8736H619.605V111.092H626.949V75.1194C631.355 82.3139 640.168 87.8156 651.498 87.8156C655.695 87.8156 659.681 86.9692 663.248 85.488L658.003 79.9862Z" fill="#EDFAFB"/>
<path opacity="0.5" d="M34.4209 58.6144L44.7021 68.9829C45.5414 69.8294 45.5414 71.099 44.7021 71.9454L36.3093 80.4096C35.47 81.256 34.2111 81.256 33.3718 80.4096L11.5504 58.6144C10.7111 57.7679 10.7111 56.4983 11.5504 55.6519L33.3718 33.6451C34.2111 32.7986 35.47 32.7986 36.3093 33.6451L44.7021 42.1092C45.5414 42.9556 45.5414 44.2253 44.7021 45.0717L34.2111 55.4403C33.5816 56.4983 33.5816 57.7679 34.4209 58.6144Z" fill="#7EE49C"/>
<path d="M23.2902 58.6144L33.5714 68.9829C34.4107 69.8294 34.4107 71.099 33.5714 71.9454L25.1786 80.4096C24.3393 81.256 23.0804 81.256 22.2411 80.4096L0.629464 58.6144C-0.209821 57.7679 -0.209821 56.4983 0.629464 55.6519L22.4509 33.6451C23.2902 32.7986 24.5491 32.7986 25.3884 33.6451L33.7812 42.1092C34.6205 42.9556 34.6205 44.2253 33.7812 45.0717L23.2902 55.4403C22.6607 56.4983 22.6607 57.7679 23.2902 58.6144Z" fill="#7EE49C"/>
<path opacity="0.5" d="M670.59 55.6527L660.309 45.2841C659.47 44.4377 659.47 43.1681 660.309 42.3216L668.702 33.8575C669.541 33.0111 670.8 33.0111 671.639 33.8575L693.461 55.8643C694.3 56.7107 694.3 57.9803 693.461 58.8268L671.639 80.8336C670.8 81.68 669.541 81.68 668.702 80.8336L660.309 72.3694C659.47 71.523 659.47 70.2534 660.309 69.407L670.8 59.0384C671.43 57.7687 671.43 56.4991 670.59 55.6527Z" fill="#7EE49C"/>
<path d="M681.511 55.6527L671.23 45.2841C670.391 44.4377 670.391 43.1681 671.23 42.3216L679.623 33.8575C680.462 33.0111 681.721 33.0111 682.56 33.8575L704.382 55.8643C705.221 56.7107 705.221 57.9803 704.382 58.8268L682.56 80.8336C681.721 81.68 680.462 81.68 679.623 80.8336L671.23 72.3694C670.391 71.523 670.391 70.2534 671.23 69.407L681.721 59.0384C682.351 57.7687 682.351 56.4991 681.511 55.6527Z" fill="#7EE49C"/>
</g>
<defs>
<clipPath id="clip0_875_514">
<rect width="705" height="124" fill="white"/>
</clipPath>
</defs>
</svg>
