<svg width="15" height="15" viewBox="0 0 15 15" fill="none" xmlns="http://www.w3.org/2000/svg">
<path fill-rule="evenodd" clip-rule="evenodd" d="M11.7834 4.0319C11.8368 3.97852 11.8792 3.91513 11.9082 3.84536C11.9371 3.77559 11.9521 3.7008 11.9521 3.62525C11.9521 3.54971 11.9373 3.4749 11.9084 3.4051C11.8796 3.33529 11.8372 3.27185 11.7839 3.2184C11.7305 3.16495 11.6671 3.12254 11.5973 3.09359C11.5276 3.06464 11.4528 3.04972 11.3772 3.04967C11.3017 3.04962 11.2269 3.06446 11.1571 3.09332C11.0873 3.12219 11.0238 3.16452 10.9704 3.2179L7.50137 6.6869L4.03337 3.2179C3.92542 3.10996 3.77902 3.04932 3.62637 3.04932C3.47371 3.04932 3.32731 3.10996 3.21937 3.2179C3.11142 3.32584 3.05078 3.47225 3.05078 3.6249C3.05078 3.77756 3.11142 3.92396 3.21937 4.0319L6.68837 7.4999L3.21937 10.9679C3.16592 11.0213 3.12352 11.0848 3.09459 11.1546C3.06567 11.2245 3.05078 11.2993 3.05078 11.3749C3.05078 11.4505 3.06567 11.5253 3.09459 11.5952C3.12352 11.665 3.16592 11.7285 3.21937 11.7819C3.32731 11.8898 3.47371 11.9505 3.62637 11.9505C3.70195 11.9505 3.7768 11.9356 3.84663 11.9067C3.91647 11.8777 3.97992 11.8353 4.03337 11.7819L7.50137 8.3129L10.9704 11.7819C11.0783 11.8897 11.2247 11.9502 11.3772 11.9501C11.5298 11.95 11.6761 11.8893 11.7839 11.7814C11.8917 11.6735 11.9522 11.5271 11.9521 11.3745C11.952 11.222 11.8913 11.0757 11.7834 10.9679L8.31437 7.4999L11.7834 4.0319Z" fill="white"/>
</svg>
