<svg width="53" height="55" viewBox="0 0 53 55" fill="none" xmlns="http://www.w3.org/2000/svg">
<path opacity="0.5" d="M12.3997 26.0931L0.881434 14.3682C0.663268 14.1463 0.490195 13.8829 0.372111 13.5929C0.254031 13.3029 0.193251 12.9921 0.193251 12.6782C0.193251 12.3642 0.254031 12.0534 0.372111 11.7634C0.490195 11.4734 0.663268 11.21 0.881434 10.9881L10.3794 1.29893C10.5964 1.07507 10.8549 0.89731 11.1399 0.775987C11.4249 0.654661 11.7308 0.592184 12.0397 0.592184C12.3486 0.592184 12.6545 0.654661 12.9395 0.775987C13.2245 0.89731 13.483 1.07507 13.6999 1.29893L38.0572 26.0931C38.2767 26.3139 38.4509 26.5769 38.5698 26.8667C38.6888 27.1566 38.75 27.4676 38.75 27.7817C38.75 28.0958 38.6888 28.4068 38.5698 28.6966C38.4509 28.9865 38.2767 29.2494 38.0572 29.4702L13.7 54.2644C13.483 54.4883 13.2245 54.6661 12.9395 54.7874C12.6545 54.9087 12.3486 54.9712 12.0397 54.9712C11.7308 54.9712 11.4249 54.9087 11.1399 54.7874C10.8549 54.6661 10.5964 54.4883 10.3794 54.2644L0.878519 44.5782C0.660352 44.3564 0.487283 44.0929 0.369203 43.8029C0.251119 43.5129 0.190339 43.2021 0.190339 42.8882C0.190339 42.5743 0.251119 42.2635 0.369203 41.9735C0.487283 41.6835 0.660352 41.42 0.878518 41.1982L12.3997 29.4702C12.8395 29.0223 13.0865 28.4149 13.0865 27.7817C13.0865 27.1484 12.8395 26.5411 12.3997 26.0931Z" fill="#7EE49C"/>
<path d="M25.5649 26.0931L13.7513 14.3682C13.5275 14.1463 13.35 13.8829 13.2289 13.5929C13.1078 13.3029 13.0454 12.9921 13.0454 12.6782C13.0454 12.3642 13.1078 12.0534 13.2289 11.7634C13.35 11.4734 13.5275 11.21 13.7513 10.9881L23.4928 1.29893C23.7153 1.07507 23.9805 0.89731 24.2728 0.775988C24.5651 0.654661 24.8788 0.592184 25.1956 0.592184C25.5125 0.592184 25.8262 0.654661 26.1185 0.775987C26.4108 0.89731 26.6759 1.07507 26.8985 1.29893L51.8802 26.0931C52.1053 26.3139 52.2841 26.5769 52.406 26.8667C52.528 27.1566 52.5908 27.4676 52.5908 27.7817C52.5908 28.0958 52.528 28.4068 52.406 28.6966C52.2841 28.9865 52.1053 29.2494 51.8802 29.4702L26.8985 54.2644C26.6759 54.4883 26.4108 54.6661 26.1185 54.7874C25.8262 54.9087 25.5125 54.9712 25.1956 54.9712C24.8788 54.9712 24.5651 54.9087 24.2728 54.7874C23.9805 54.6661 23.7153 54.4883 23.4928 54.2644L13.7483 44.5782C13.5245 44.3564 13.347 44.0929 13.2259 43.8029C13.1048 43.5129 13.0425 43.2021 13.0425 42.8882C13.0425 42.5743 13.1048 42.2635 13.2259 41.9735C13.347 41.6835 13.5245 41.42 13.7483 41.1982L25.5649 29.4702C26.0159 29.0223 26.2692 28.4149 26.2692 27.7817C26.2692 27.1484 26.0159 26.5411 25.5649 26.0931Z" fill="#7EE49C"/>
</svg>
