<svg width="180" height="126" viewBox="0 0 180 126" fill="none" xmlns="http://www.w3.org/2000/svg">
<mask id="mask0_623_885" style="mask-type:luminance" maskUnits="userSpaceOnUse" x="0" y="0" width="180" height="126">
<path d="M0 0.0424805H179.582V125.267H0V0.0424805Z" fill="#00A1E0"/>
</mask>
<g mask="url(#mask0_623_885)">
<path fillRule="evenodd" clipRule="evenodd" d="M74.5629 13.7514C80.3596 7.72744 88.4276 3.99708 97.3407 3.99708C109.225 3.99708 119.524 10.5878 125.07 20.408C129.993 18.2112 135.325 17.077 140.718 17.0797C162.109 17.0797 179.473 34.5452 179.473 56.0969C179.473 77.6486 162.109 95.1141 140.718 95.1141C138.103 95.1141 135.555 94.8518 133.059 94.3561C128.206 102.99 118.93 108.856 108.366 108.856C104.066 108.864 99.8199 107.89 95.9542 106.009C91.0355 117.542 79.5806 125.649 66.244 125.649C52.3132 125.649 40.4952 116.883 35.9396 104.559C33.912 104.986 31.8453 105.2 29.7731 105.199C13.2014 105.199 -0.201172 91.6223 -0.201172 74.9477C-0.201172 63.7435 5.8333 53.9892 14.786 48.7166C12.8867 44.3489 11.909 39.6375 11.914 34.876C11.914 15.6311 27.5613 0.0769043 46.84 0.0769043C58.1298 0.0769043 68.2313 5.44836 74.5695 13.7856" fill="#4F5059"/>
</g>
<path fillRule="evenodd" clipRule="evenodd" d="M25.9764 65.1587C25.8635 65.4527 26.0167 65.514 26.053 65.566C26.3903 65.8099 26.733 65.9865 27.0763 66.1849C28.9117 67.1538 30.6415 67.4372 32.4506 67.4372C36.1346 67.4372 38.4256 65.4797 38.4256 62.3293V62.2674C38.4256 59.3543 35.8375 58.2932 33.4211 57.5352L33.1048 57.4331C31.276 56.8412 29.6981 56.3258 29.6981 55.1263V55.065C29.6981 54.0369 30.6224 53.2789 32.0485 53.2789C33.633 53.2789 35.5213 53.8055 36.7295 54.4718C36.7295 54.4718 37.0873 54.7025 37.2174 54.3578C37.288 54.1713 37.904 52.5256 37.9701 52.3411C38.04 52.148 37.9172 52.0023 37.7911 51.9272C36.4047 51.0835 34.49 50.5102 32.5093 50.5102L32.1416 50.5115C28.7678 50.5115 26.4108 52.548 26.4108 55.4611V55.5237C26.4108 58.595 29.0121 59.5968 31.4417 60.2888L31.8326 60.4101C33.602 60.9532 35.1337 61.4251 35.1337 62.6641V62.7261C35.1337 63.8663 34.1368 64.7165 32.539 64.7165C31.9178 64.7165 29.9377 64.7059 27.792 63.3522C27.5325 63.2013 27.3846 63.0925 27.1846 62.9706C27.079 62.9067 26.8149 62.7913 26.7 63.1367L25.9737 65.1535M79.9142 65.1535C79.8013 65.4474 79.9545 65.5087 79.9921 65.5608C80.3282 65.8046 80.6722 65.9813 81.0155 66.1796C82.8509 67.1485 84.5807 67.4319 86.3897 67.4319C90.0738 67.4319 92.3648 65.4744 92.3648 62.3241V62.2621C92.3648 59.349 89.7833 58.2879 87.3603 57.53L87.044 57.4278C85.2152 56.8359 83.6372 56.3206 83.6372 55.121V55.0597C83.6372 54.0316 84.5616 53.2737 85.9876 53.2737C87.5722 53.2737 89.4538 53.8003 90.6686 54.4666C90.6686 54.4666 91.0265 54.6973 91.1572 54.3526C91.2272 54.166 91.8439 52.5203 91.9033 52.3358C91.9739 52.1427 91.8505 51.997 91.725 51.9219C90.3385 51.0783 88.4239 50.5049 86.4432 50.5049L86.0748 50.5062C82.701 50.5062 80.344 52.5427 80.344 55.4558V55.5185C80.344 58.5897 82.9453 59.5915 85.375 60.2836L85.7651 60.4048C87.5412 60.9479 89.0663 61.4198 89.0663 62.6589V62.7208C89.0663 63.861 88.0693 64.7112 86.4716 64.7112C85.849 64.7112 83.8637 64.7007 81.7246 63.3469C81.4651 63.196 81.3132 63.0919 81.1165 62.9653C81.0498 62.9232 80.7388 62.8019 80.6325 63.1314L79.9063 65.1482M116.747 58.9793C116.747 60.7588 116.414 62.1626 115.763 63.1578C115.114 64.1398 114.132 64.6209 112.766 64.6209C111.399 64.6209 110.422 64.1438 109.782 63.1644C109.136 62.1758 108.811 60.7653 108.811 58.9858C108.811 57.2063 109.138 55.8091 109.782 54.8271C110.421 53.8517 111.393 53.3837 112.766 53.3837C114.139 53.3837 115.116 53.8563 115.763 54.8271C116.418 55.8091 116.747 57.2063 116.747 58.9858M119.824 55.6839C119.521 54.6623 119.051 53.766 118.424 53.0146C117.796 52.2633 117.004 51.6569 116.06 51.222C115.123 50.7837 114.014 50.5629 112.759 50.5629C111.505 50.5629 110.402 50.785 109.458 51.222C108.521 51.6596 107.722 52.2633 107.094 53.0146C106.469 53.766 105.998 54.6623 105.695 55.6839C105.394 56.6989 105.242 57.8061 105.242 58.9858C105.242 60.1656 105.394 61.2728 105.695 62.2878C105.996 63.3094 106.467 64.2057 107.094 64.9571C107.722 65.7084 108.521 66.3082 109.458 66.7366C110.402 67.1636 111.511 67.3811 112.759 67.3811C114.007 67.3811 115.116 67.1636 116.054 66.7366C116.991 66.3095 117.79 65.7084 118.417 64.9571C119.044 64.2057 119.513 63.3094 119.817 62.2878C120.117 61.2728 120.269 60.1656 120.269 58.9858C120.269 57.8127 120.117 56.6989 119.817 55.6839M145.104 64.12C145.003 63.8215 144.711 63.9342 144.711 63.9342C144.264 64.1049 143.786 64.263 143.278 64.3421C142.766 64.4225 142.195 64.4628 141.595 64.4628C140.109 64.4628 138.921 64.0205 138.076 63.1446C137.224 62.268 136.748 60.8576 136.755 58.9463C136.76 57.2063 137.181 55.9014 137.937 54.8996C138.683 53.911 139.832 53.3969 141.35 53.3969C142.618 53.3969 143.588 53.5439 144.605 53.8615C144.605 53.8615 144.846 53.9663 144.962 53.6493C145.232 52.9046 145.431 52.3707 145.721 51.5535C145.803 51.3195 145.602 51.2206 145.529 51.1923C145.13 51.0368 144.189 50.7817 143.476 50.6743C142.809 50.5728 142.036 50.52 141.165 50.52C139.871 50.52 138.722 50.7408 137.738 51.1785C136.754 51.6154 135.923 52.2198 135.262 52.9711C134.602 53.7225 134.1 54.6188 133.764 55.6404C133.43 56.6554 133.262 57.7692 133.262 58.9489C133.262 61.493 133.948 63.5559 135.309 65.0651C136.669 66.581 138.715 67.3455 141.383 67.3455C142.961 67.3455 144.578 67.0272 145.74 66.5678C145.74 66.5678 145.962 66.4611 145.866 66.2027L145.106 64.12M150.487 57.2657C150.634 56.2771 150.906 55.4532 151.332 54.8139C151.971 53.8385 152.943 53.3046 154.31 53.3046C155.677 53.3046 156.581 53.8411 157.228 54.8139C157.657 55.4565 157.845 56.31 157.915 57.2657L150.454 57.2643L150.487 57.2657ZM160.853 55.0907C160.591 54.1087 159.942 53.1135 159.519 52.6587C158.846 51.9403 158.192 51.4329 157.538 51.156C156.595 50.7555 155.58 50.5499 154.554 50.5517C153.253 50.5517 152.072 50.7711 151.114 51.2173C150.157 51.6668 149.352 52.2784 148.718 53.043C148.085 53.8075 147.609 54.7104 147.305 55.7452C147.001 56.7667 146.848 57.8872 146.848 59.0603C146.848 60.2598 147.007 61.3737 147.32 62.3821C147.636 63.397 148.145 64.2868 148.832 65.0249C149.519 65.7697 150.397 66.3497 151.453 66.7583C152.503 67.1636 153.777 67.3739 155.236 67.3693C158.247 67.3594 159.831 66.6904 160.478 66.3279C160.594 66.2633 160.703 66.152 160.567 65.831L159.887 63.9263C159.782 63.6422 159.495 63.745 159.495 63.745C158.749 64.0231 157.692 64.5227 155.216 64.5161C153.599 64.5135 152.404 64.037 151.651 63.2903C150.885 62.5257 150.502 61.4119 150.443 59.8301L160.874 59.838C160.874 59.838 161.149 59.8354 161.178 59.5678C161.189 59.4571 161.535 57.4324 160.867 55.0927L160.853 55.0907ZM67.1006 57.2657C67.2478 56.2771 67.5198 55.4532 67.9456 54.8139C68.5847 53.8385 69.5566 53.3046 70.9233 53.3046C72.2899 53.3046 73.1944 53.8411 73.8415 54.8139C74.27 55.4565 74.4575 56.31 74.5281 57.2657L67.0675 57.2643L67.1006 57.2657ZM77.4661 55.0907C77.2047 54.1087 76.555 53.1135 76.1324 52.6587C75.459 51.9403 74.8054 51.4329 74.1518 51.156C73.2081 50.7555 72.193 50.5499 71.1675 50.5517C69.8669 50.5517 68.6851 50.7711 67.7278 51.2173C66.7704 51.6668 65.965 52.2784 65.3312 53.043C64.6993 53.8075 64.222 54.7104 63.9183 55.7452C63.6152 56.7667 63.4627 57.8872 63.4627 59.0603C63.4627 60.2598 63.6205 61.3737 63.9354 62.3821C64.251 63.397 64.7607 64.2868 65.4407 65.0249C66.1274 65.7697 67.0055 66.3497 68.0618 66.7583C69.1116 67.1636 70.3792 67.3739 71.8449 67.3693C74.8556 67.3594 76.4401 66.6904 77.0871 66.3279C77.202 66.2633 77.3116 66.152 77.1749 65.831L76.4949 63.9263C76.3899 63.6422 76.1021 63.745 76.1021 63.745C75.356 64.0231 74.2997 64.5227 71.8238 64.5161C70.2129 64.5135 69.0112 64.037 68.2586 63.2903C67.4927 62.5257 67.1098 61.4119 67.0504 59.8301L77.482 59.838C77.482 59.838 77.7566 59.8354 77.785 59.5678C77.7962 59.4571 78.1422 57.4324 77.4734 55.0927L77.4661 55.0907ZM44.5868 64.0541C44.1782 63.7285 44.1214 63.6488 43.986 63.4372C43.7794 63.1189 43.6737 62.6661 43.6737 62.0861C43.6737 61.1766 43.9774 60.5175 44.6047 60.076C44.5981 60.0773 45.5026 59.2982 47.6285 59.3246C48.5748 59.3415 49.5188 59.4219 50.4543 59.5652V64.2907H50.4556C50.4556 64.2907 49.1351 64.5748 47.643 64.6644C45.5237 64.7916 44.5862 64.0554 44.5928 64.0574L44.5868 64.0541ZM48.7331 56.7384C48.3105 56.7074 47.7625 56.6923 47.1089 56.6923C46.2176 56.6923 45.3527 56.803 44.5472 57.0205C43.7351 57.2393 43.0023 57.5781 42.3751 58.0289C41.7461 58.4768 41.2288 59.0631 40.8632 59.7425C40.4941 60.4279 40.3059 61.232 40.3059 62.1415C40.3059 63.0642 40.4664 63.8617 40.7833 64.5142C41.0938 65.1614 41.5613 65.7209 42.1433 66.1421C42.7224 66.5626 43.4374 66.8736 44.2627 67.0582C45.0813 67.2447 46.0057 67.339 47.0224 67.339C48.092 67.339 49.1549 67.2493 50.1849 67.076C51.0621 66.9249 51.936 66.7553 52.806 66.5672C53.1533 66.4874 53.5388 66.3826 53.5388 66.3826C53.7963 66.3174 53.7765 66.0426 53.7765 66.0426L53.7706 56.5519C53.7706 54.4692 53.2134 52.9204 52.1134 51.9647C51.0174 51.0091 49.4131 50.5279 47.3334 50.5279C46.5543 50.5279 45.2933 50.6334 44.5406 50.7843C44.5406 50.7843 42.2694 51.2246 41.3319 51.9575C41.3319 51.9575 41.1259 52.084 41.2382 52.3707L41.9776 54.3479C42.0694 54.6043 42.3196 54.5167 42.3196 54.5167C42.3196 54.5167 42.3982 54.4857 42.4906 54.431C44.4911 53.3435 47.0264 53.3765 47.0264 53.3765C48.1488 53.3765 49.0203 53.6038 49.6013 54.0487C50.1697 54.4844 50.4596 55.1428 50.4596 56.5268V56.9664C49.5682 56.8373 48.743 56.7628 48.743 56.7628L48.7331 56.7384ZM132.582 51.3801C132.597 51.3454 132.605 51.308 132.605 51.2701C132.605 51.2323 132.598 51.1948 132.583 51.1598C132.568 51.1249 132.547 51.0933 132.52 51.0668C132.493 51.0403 132.461 51.0196 132.425 51.0058C132.248 50.9385 131.362 50.752 130.682 50.7099C129.375 50.6281 128.649 50.8483 127.995 51.1409C127.35 51.4315 126.635 51.8988 126.239 52.4393L126.238 51.1738C126.238 50.9998 126.114 50.8595 125.939 50.8595H123.271C123.098 50.8595 122.973 50.9998 122.973 51.1738V66.6621C122.973 66.7458 123.006 66.826 123.066 66.8851C123.125 66.9443 123.205 66.9776 123.289 66.9778H126.022C126.106 66.9776 126.186 66.9443 126.246 66.8851C126.305 66.8259 126.338 66.7457 126.338 66.6621V58.885C126.338 57.8437 126.453 56.8089 126.682 56.1564C126.908 55.5112 127.215 54.9965 127.593 54.6274C127.954 54.2709 128.396 54.0064 128.881 53.8563C129.336 53.7259 129.807 53.6598 130.28 53.6599C130.825 53.6599 131.422 53.7996 131.422 53.7996C131.623 53.822 131.735 53.6994 131.803 53.5188C131.982 53.0436 132.489 51.6207 132.588 51.3373" fill="#FFFFFE"/>
<path fillRule="evenodd" clipRule="evenodd" d="M107.048 44.2319C106.71 44.13 106.367 44.0486 106.019 43.9881C105.551 43.9101 105.078 43.8735 104.603 43.8786C102.72 43.8786 101.235 44.4099 100.192 45.4591C99.1572 46.5004 98.4527 48.0868 98.0995 50.1741L97.972 50.8787H95.6078C95.6078 50.8787 95.3193 50.8668 95.2585 51.1812L94.8703 53.343C94.8432 53.5499 94.9324 53.6791 95.2097 53.6778H97.5112L95.176 66.6899C94.9931 67.7378 94.7838 68.5999 94.5521 69.253C94.3236 69.8976 94.1005 70.3807 93.8258 70.7313C93.5597 71.0707 93.3075 71.3205 92.8725 71.4662C92.5133 71.5868 92.1 71.6421 91.6471 71.6421C91.3949 71.6421 91.0595 71.6 90.8119 71.5505C90.5643 71.5018 90.4356 71.4464 90.25 71.3686C90.25 71.3686 89.98 71.2658 89.8737 71.536C89.7872 71.7568 89.1739 73.4408 89.1012 73.649C89.0273 73.8547 89.131 74.0168 89.2617 74.0636C89.568 74.173 89.7958 74.2429 90.2131 74.3411C90.7927 74.4775 91.2813 74.486 91.7388 74.486C92.6975 74.486 93.571 74.3516 94.2952 74.0906C95.0241 73.8276 95.6586 73.3696 96.2198 72.7494C96.8266 72.0804 97.2082 71.3798 97.5733 70.4242C97.9344 69.4771 98.2421 68.3013 98.4883 66.9311L100.835 53.6778H104.265C104.265 53.6778 104.555 53.6883 104.615 53.3752L105.003 51.2135C105.03 51.0065 104.941 50.8774 104.663 50.8787H101.333C101.35 50.8035 101.501 49.6343 101.883 48.5337C102.046 48.0638 102.353 47.6848 102.613 47.4245C102.856 47.1765 103.155 46.9907 103.486 46.8827C103.847 46.771 104.225 46.7168 104.603 46.7219C104.917 46.7219 105.225 46.7595 105.459 46.8082C105.782 46.8768 105.907 46.913 105.992 46.9381C106.331 47.0415 106.377 46.9414 106.443 46.7773L107.24 44.5944C107.322 44.3598 107.122 44.2609 107.048 44.2319ZM60.5194 66.7175C60.5194 66.8915 60.3953 67.0332 60.221 67.0332H57.4592C57.2843 67.0332 57.1602 66.8915 57.1602 66.7175V44.5278C57.1602 44.3545 57.2843 44.2141 57.4592 44.2141H60.221C60.3953 44.2141 60.5194 44.3545 60.5194 44.5278V66.7175Z" fill="#FFFFFE"/>
</svg>
