<svg width="44" height="45" viewBox="0 0 44 45" fill="none" xmlns="http://www.w3.org/2000/svg">
<g opacity="0.5">
<path d="M33.7931 23.8864L43.2448 33.5077C43.4238 33.6898 43.5659 33.9059 43.6628 34.1439C43.7597 34.3819 43.8095 34.6369 43.8095 34.8945C43.8095 35.1521 43.7597 35.4072 43.6628 35.6451C43.5659 35.8831 43.4238 36.0993 43.2448 36.2813L35.4509 44.2321C35.2729 44.4158 35.0607 44.5617 34.8269 44.6613C34.593 44.7608 34.342 44.8121 34.0885 44.8121C33.835 44.8121 33.584 44.7608 33.3502 44.6613C33.1163 44.5617 32.9042 44.4158 32.7261 44.2321L12.7389 23.8864C12.5588 23.7052 12.4158 23.4894 12.3183 23.2516C12.2207 23.0137 12.1704 22.7585 12.1704 22.5008C12.1704 22.243 12.2207 21.9878 12.3183 21.75C12.4158 21.5121 12.5588 21.2964 12.7389 21.1152L32.7261 0.769395C32.9042 0.585696 33.1163 0.439832 33.3501 0.340274C33.584 0.240717 33.835 0.189449 34.0885 0.189449C34.342 0.189449 34.593 0.240717 34.8269 0.340274C35.0607 0.439832 35.2729 0.585695 35.4509 0.769395L43.2472 8.71776C43.4262 8.89981 43.5683 9.116 43.6651 9.35396C43.762 9.59192 43.8119 9.84699 43.8119 10.1046C43.8119 10.3622 43.762 10.6172 43.6651 10.8552C43.5683 11.0932 43.4262 11.3094 43.2472 11.4914L33.7931 21.1152C33.4322 21.4828 33.2296 21.9811 33.2296 22.5008C33.2296 23.0204 33.4322 23.5188 33.7931 23.8864Z" fill="#EDFAFB"/>
<path d="M33.7931 23.8864L43.2448 33.5077C43.4238 33.6898 43.5659 33.9059 43.6628 34.1439C43.7597 34.3819 43.8095 34.6369 43.8095 34.8945C43.8095 35.1521 43.7597 35.4072 43.6628 35.6451C43.5659 35.8831 43.4238 36.0993 43.2448 36.2813L35.4509 44.2321C35.2729 44.4158 35.0607 44.5617 34.8269 44.6613C34.593 44.7608 34.342 44.8121 34.0885 44.8121C33.835 44.8121 33.584 44.7608 33.3502 44.6613C33.1163 44.5617 32.9042 44.4158 32.7261 44.2321L12.7389 23.8864C12.5588 23.7052 12.4158 23.4894 12.3183 23.2516C12.2207 23.0137 12.1704 22.7585 12.1704 22.5008C12.1704 22.243 12.2207 21.9878 12.3183 21.75C12.4158 21.5121 12.5588 21.2964 12.7389 21.1152L32.7261 0.769395C32.9042 0.585696 33.1163 0.439832 33.3501 0.340274C33.584 0.240717 33.835 0.189449 34.0885 0.189449C34.342 0.189449 34.593 0.240717 34.8269 0.340274C35.0607 0.439832 35.2729 0.585695 35.4509 0.769395L43.2472 8.71776C43.4262 8.89981 43.5683 9.116 43.6651 9.35396C43.762 9.59192 43.8119 9.84699 43.8119 10.1046C43.8119 10.3622 43.762 10.6172 43.6651 10.8552C43.5683 11.0932 43.4262 11.3094 43.2472 11.4914L33.7931 21.1152C33.4322 21.4828 33.2296 21.9811 33.2296 22.5008C33.2296 23.0204 33.4322 23.5188 33.7931 23.8864Z" fill="#EDFAFB"/>
</g>
<path d="M22.9876 23.8864L32.6817 33.5077C32.8654 33.6898 33.011 33.9059 33.1104 34.1439C33.2098 34.3819 33.2609 34.6369 33.2609 34.8945C33.2609 35.1521 33.2098 35.4072 33.1104 35.6451C33.011 35.8831 32.8654 36.0993 32.6817 36.2813L24.688 44.2321C24.5054 44.4158 24.2878 44.5617 24.0479 44.6613C23.8081 44.7608 23.5507 44.8121 23.2907 44.8121C23.0307 44.8121 22.7732 44.7608 22.5334 44.6613C22.2935 44.5617 22.0759 44.4158 21.8933 44.2321L1.39364 23.8864C1.20892 23.7052 1.06227 23.4894 0.96218 23.2516C0.862089 23.0137 0.810551 22.7585 0.810551 22.5008C0.810551 22.243 0.862089 21.9878 0.96218 21.75C1.06227 21.5121 1.20892 21.2964 1.39364 21.1152L21.8933 0.769395C22.0759 0.585696 22.2935 0.439832 22.5334 0.340274C22.7732 0.240717 23.0306 0.189449 23.2906 0.189449C23.5506 0.189449 23.8081 0.240716 24.0479 0.340274C24.2878 0.439832 24.5054 0.585695 24.688 0.769395L32.6842 8.71776C32.8678 8.89981 33.0135 9.116 33.1128 9.35396C33.2122 9.59192 33.2634 9.84699 33.2634 10.1046C33.2634 10.3622 33.2122 10.6172 33.1128 10.8552C33.0135 11.0932 32.8678 11.3094 32.6842 11.4914L22.9876 21.1152C22.6176 21.4828 22.4097 21.9811 22.4097 22.5008C22.4097 23.0204 22.6176 23.5188 22.9876 23.8864Z" fill="#EDFAFB"/>
<path d="M22.9876 23.8864L32.6817 33.5077C32.8654 33.6898 33.011 33.9059 33.1104 34.1439C33.2098 34.3819 33.2609 34.6369 33.2609 34.8945C33.2609 35.1521 33.2098 35.4072 33.1104 35.6451C33.011 35.8831 32.8654 36.0993 32.6817 36.2813L24.688 44.2321C24.5054 44.4158 24.2878 44.5617 24.0479 44.6613C23.8081 44.7608 23.5507 44.8121 23.2907 44.8121C23.0307 44.8121 22.7732 44.7608 22.5334 44.6613C22.2935 44.5617 22.0759 44.4158 21.8933 44.2321L1.39364 23.8864C1.20892 23.7052 1.06227 23.4894 0.96218 23.2516C0.862089 23.0137 0.810551 22.7585 0.810551 22.5008C0.810551 22.243 0.862089 21.9878 0.96218 21.75C1.06227 21.5121 1.20892 21.2964 1.39364 21.1152L21.8933 0.769395C22.0759 0.585696 22.2935 0.439832 22.5334 0.340274C22.7732 0.240717 23.0306 0.189449 23.2906 0.189449C23.5506 0.189449 23.8081 0.240716 24.0479 0.340274C24.2878 0.439832 24.5054 0.585695 24.688 0.769395L32.6842 8.71776C32.8678 8.89981 33.0135 9.116 33.1128 9.35396C33.2122 9.59192 33.2634 9.84699 33.2634 10.1046C33.2634 10.3622 33.2122 10.6172 33.1128 10.8552C33.0135 11.0932 32.8678 11.3094 32.6842 11.4914L22.9876 21.1152C22.6176 21.4828 22.4097 21.9811 22.4097 22.5008C22.4097 23.0204 22.6176 23.5188 22.9876 23.8864Z" fill="#EDFAFB"/>
</svg>
