<svg width="44" height="45" viewBox="0 0 44 45" fill="none" xmlns="http://www.w3.org/2000/svg">
<g opacity="0.5">
<path d="M33.7958 23.8546L43.2742 33.4496C43.4537 33.6312 43.5963 33.847 43.6939 34.0847C43.7914 34.3224 43.842 34.5773 43.8427 34.8349C43.8435 35.0925 43.7943 35.3477 43.6981 35.5859C43.6018 35.8241 43.4604 36.0407 43.2819 36.2233L35.5101 44.1957C35.3325 44.3799 35.1208 44.5263 34.8872 44.6265C34.6536 44.7267 34.4028 44.7787 34.1493 44.7794C33.8958 44.7801 33.6447 44.7295 33.4105 44.6306C33.1764 44.5317 32.9638 44.3865 32.7853 44.2032L12.7417 23.913C12.5611 23.7323 12.4175 23.517 12.3193 23.2794C12.221 23.0418 12.1701 22.7868 12.1693 22.529C12.1686 22.2713 12.2182 22.0159 12.3151 21.7778C12.412 21.5397 12.5544 21.3235 12.734 21.1418L32.6647 0.740663C32.8422 0.55647 33.0539 0.410018 33.2875 0.309812C33.5211 0.209606 33.7719 0.157642 34.0254 0.156938C34.2789 0.156235 34.5301 0.206805 34.7642 0.305713C34.9984 0.404621 35.2109 0.549896 35.3894 0.7331L43.2078 8.6598C43.3873 8.84135 43.5299 9.05715 43.6275 9.29484C43.725 9.53253 43.7756 9.78746 43.7763 10.045C43.777 10.3026 43.7279 10.5578 43.6316 10.7961C43.5354 11.0343 43.394 11.2509 43.2155 11.4334L33.7881 21.0834C33.4283 21.452 33.227 21.9509 33.2284 22.4706C33.2298 22.9902 33.4339 23.488 33.7958 23.8546Z" fill="#7EE49C"/>
<path d="M33.7958 23.8546L43.2742 33.4496C43.4537 33.6312 43.5963 33.847 43.6939 34.0847C43.7914 34.3224 43.842 34.5773 43.8427 34.8349C43.8435 35.0925 43.7943 35.3477 43.6981 35.5859C43.6018 35.8241 43.4604 36.0407 43.2819 36.2233L35.5101 44.1957C35.3325 44.3799 35.1208 44.5263 34.8872 44.6265C34.6536 44.7267 34.4028 44.7787 34.1493 44.7794C33.8958 44.7801 33.6447 44.7295 33.4105 44.6306C33.1764 44.5317 32.9638 44.3865 32.7853 44.2032L12.7417 23.913C12.5611 23.7323 12.4175 23.517 12.3193 23.2794C12.221 23.0418 12.1701 22.7868 12.1693 22.529C12.1686 22.2713 12.2182 22.0159 12.3151 21.7778C12.412 21.5397 12.5544 21.3235 12.734 21.1418L32.6647 0.740663C32.8422 0.55647 33.0539 0.410018 33.2875 0.309812C33.5211 0.209606 33.7719 0.157642 34.0254 0.156938C34.2789 0.156235 34.5301 0.206805 34.7642 0.305713C34.9984 0.404621 35.2109 0.549896 35.3894 0.7331L43.2078 8.6598C43.3873 8.84135 43.5299 9.05715 43.6275 9.29484C43.725 9.53253 43.7756 9.78746 43.7763 10.045C43.777 10.3026 43.7279 10.5578 43.6316 10.7961C43.5354 11.0343 43.394 11.2509 43.2155 11.4334L33.7881 21.0834C33.4283 21.452 33.227 21.9509 33.2284 22.4706C33.2298 22.9902 33.4339 23.488 33.7958 23.8546Z" fill="#7EE49C"/>
</g>
<path d="M22.9908 23.8848L32.7116 33.4792C32.8957 33.6607 33.042 33.8765 33.142 34.1142C33.2421 34.3519 33.2939 34.6068 33.2946 34.8644C33.2953 35.122 33.2449 35.3772 33.1462 35.6154C33.0475 35.8537 32.9024 36.0702 32.7193 36.2528L24.7476 44.2258C24.5655 44.41 24.3484 44.5564 24.1088 44.6567C23.8692 44.7569 23.6119 44.8089 23.3519 44.8096C23.0919 44.8103 22.8344 44.7598 22.5942 44.6609C22.3541 44.562 22.1361 44.4167 21.953 44.2335L1.39691 23.9447C1.21169 23.7641 1.06444 23.5487 0.963686 23.3111C0.862936 23.0736 0.810689 22.8185 0.809973 22.5607C0.809258 22.303 0.860088 22.0477 0.959518 21.8095C1.05895 21.5714 1.205 21.3552 1.38922 21.1735L21.8324 0.770939C22.0145 0.586733 22.2316 0.440266 22.4712 0.340043C22.7108 0.23982 22.9681 0.187838 23.2281 0.187117C23.4881 0.186395 23.7456 0.236948 23.9858 0.335839C24.2259 0.434731 24.4439 0.57999 24.627 0.763182L32.6452 8.68932C32.8294 8.87087 32.9756 9.08665 33.0757 9.32433C33.1757 9.56202 33.2276 9.81694 33.2283 10.0745C33.229 10.3321 33.1785 10.5873 33.0798 10.8256C32.9811 11.0638 32.836 11.2804 32.6529 11.463L22.9831 21.1136C22.6141 21.4822 22.4076 21.9812 22.409 22.5008C22.4105 23.0204 22.6197 23.5182 22.9908 23.8848Z" fill="#7EE49C"/>
<path d="M22.9908 23.8848L32.7116 33.4792C32.8957 33.6607 33.042 33.8765 33.142 34.1142C33.2421 34.3519 33.2939 34.6068 33.2946 34.8644C33.2953 35.122 33.2449 35.3772 33.1462 35.6154C33.0475 35.8537 32.9024 36.0702 32.7193 36.2528L24.7476 44.2258C24.5655 44.41 24.3484 44.5564 24.1088 44.6567C23.8692 44.7569 23.6119 44.8089 23.3519 44.8096C23.0919 44.8103 22.8344 44.7598 22.5942 44.6609C22.3541 44.562 22.1361 44.4167 21.953 44.2335L1.39691 23.9447C1.21169 23.7641 1.06444 23.5487 0.963686 23.3111C0.862936 23.0736 0.810689 22.8185 0.809973 22.5607C0.809258 22.303 0.860088 22.0477 0.959518 21.8095C1.05895 21.5714 1.205 21.3552 1.38922 21.1735L21.8324 0.770939C22.0145 0.586733 22.2316 0.440266 22.4712 0.340043C22.7108 0.23982 22.9681 0.187838 23.2281 0.187117C23.4881 0.186395 23.7456 0.236948 23.9858 0.335839C24.2259 0.434731 24.4439 0.57999 24.627 0.763182L32.6452 8.68932C32.8294 8.87087 32.9756 9.08665 33.0757 9.32433C33.1757 9.56202 33.2276 9.81694 33.2283 10.0745C33.229 10.3321 33.1785 10.5873 33.0798 10.8256C32.9811 11.0638 32.836 11.2804 32.6529 11.463L22.9831 21.1136C22.6141 21.4822 22.4076 21.9812 22.409 22.5008C22.4105 23.0204 22.6197 23.5182 22.9908 23.8848Z" fill="#7EE49C"/>
</svg>
