<svg width="43" height="40" viewBox="0 0 43 40" fill="none" xmlns="http://www.w3.org/2000/svg">
<path opacity="0.3" d="M27.8593 25.8596C28.0944 25.1544 28.2119 24.5667 28.2119 23.7439V11.4018C28.2119 7.64035 25.0382 4.5842 21.1593 4.5842H20.5715C17.0452 4.5842 14.1066 7.28773 14.1066 10.6965H16.6926C16.6926 8.69825 18.4558 7.05263 20.5715 7.05263H21.1593C23.6277 7.05263 25.6259 8.93333 25.6259 11.4018V23.7439C25.6259 24.4491 25.3908 25.1544 25.0382 25.8596H17.1628C16.8101 25.2719 16.5751 24.5667 16.5751 23.7439V17.6316C16.5751 16.5737 17.3979 15.7509 18.4558 15.7509C19.5137 15.7509 20.3365 16.5737 20.3365 17.6316V21.9807H22.9224V17.6316C22.9224 15.2807 20.9242 13.2825 18.4558 13.2825C15.9873 13.2825 13.9891 15.1632 13.9891 17.6316V23.7439C13.9891 24.4491 14.1066 25.1544 14.3417 25.8596H7.054C5.76102 25.8596 4.70312 24.8018 4.70312 23.5088V2.35088C4.70312 1.05789 5.76102 0 7.054 0H35.2645C36.5575 0 37.6154 1.05789 37.6154 2.35088V23.5088C37.6154 24.8018 36.5575 25.8596 35.2645 25.8596H27.8593Z" fill="#7EE49C"/>
<path d="M14.1053 19.63V23.8616C14.1053 27.623 17.2789 30.6791 21.1579 30.6791C25.0368 30.6791 28.2105 27.623 28.2105 23.8616V19.63L40.4351 10.8142C40.9053 10.4616 41.7281 10.5791 42.0807 11.0493C42.1982 11.2844 42.3158 11.5195 42.3158 11.7545V35.2633C42.3158 37.8493 40.2 39.9651 37.614 39.9651H4.70175C2.11579 39.9651 0 37.8493 0 35.2633V11.7545C0 11.0493 0.470175 10.5791 1.17544 10.5791C1.41053 10.5791 1.64561 10.6966 1.8807 10.8142L14.1053 19.63ZM16.6912 21.3931L21.1579 24.6844L25.6246 21.3931V23.744C25.6246 26.0949 23.6263 28.0931 21.1579 28.0931C18.6895 28.0931 16.6912 26.2124 16.6912 23.744V21.3931Z" fill="#7EE49C"/>
</svg>
