<svg width="30" height="22" viewBox="0 0 30 22" fill="none" xmlns="http://www.w3.org/2000/svg">
<path d="M21.5691 4.4292C23.0654 6.22561 23.8848 8.48962 23.8848 10.8276C23.8848 13.1655 23.0654 15.4295 21.5691 17.2259" stroke="#EDFAFB" stroke-width="1.63594" stroke-linecap="round" stroke-linejoin="round"/>
<path d="M24.7928 1.17749C27.134 3.83356 28.4258 7.25257 28.4258 10.7932C28.4258 14.3339 27.134 17.7529 24.7928 20.4089" stroke="#EDFAFB" stroke-width="1.63594" stroke-linecap="round" stroke-linejoin="round"/>
<path d="M18.3263 7.63928C18.9818 8.56196 19.334 9.66574 19.334 10.7976C19.334 11.9294 18.9818 13.0332 18.3263 13.9558" stroke="#EDFAFB" stroke-width="1.63594" stroke-linecap="round" stroke-linejoin="round"/>
<path d="M14.793 10.7919L14.793 10.8007" stroke="#EDFAFB" stroke-width="1.63594" stroke-linecap="round" stroke-linejoin="round"/>
<path d="M8.01683 4.4292C6.52055 6.22561 5.70117 8.48962 5.70117 10.8276C5.70117 13.1655 6.52055 15.4295 8.01683 17.2259" stroke="#EDFAFB" stroke-width="1.63594" stroke-linecap="round" stroke-linejoin="round"/>
<path d="M4.79318 1.17749C2.45193 3.83356 1.16016 7.25257 1.16016 10.7932C1.16016 14.3339 2.45193 17.7529 4.79318 20.4089" stroke="#EDFAFB" stroke-width="1.63594" stroke-linecap="round" stroke-linejoin="round"/>
<path d="M11.2596 7.63928C10.6041 8.56196 10.252 9.66574 10.252 10.7976C10.252 11.9294 10.6041 13.0332 11.2596 13.9558" stroke="#EDFAFB" stroke-width="1.63594" stroke-linecap="round" stroke-linejoin="round"/>
<path d="M14.793 10.7919L14.793 10.8007" stroke="#EDFAFB" stroke-width="1.63594" stroke-linecap="round" stroke-linejoin="round"/>
</svg>
