<svg width="197" height="177" viewBox="0 0 197 177" fill="none" xmlns="http://www.w3.org/2000/svg">
<path d="M98.5874 176.774H12.1319C4.72432 176.774 0.988776 173.014 0.966363 165.535C0.966363 162.843 0.902859 160.147 1.00745 157.455C1.20544 152.337 4.33583 148.668 9.28916 148.022C11.0561 147.79 10.7834 146.79 10.7834 145.703C10.7834 123.929 10.7834 102.156 10.7834 80.3851C10.7834 72.1952 14.1865 66.0319 21.4334 62.2145C24.5227 60.5872 27.8586 60.2374 31.2467 60.2374C48.1575 60.2374 65.0646 60.1803 81.9717 60.2944C84.1869 60.2944 84.5343 59.6556 84.5231 57.5872C84.4334 41.5002 84.4596 25.4132 84.482 9.33002C84.482 4.26173 87.0483 1.07171 91.4563 0.520392C93.4473 0.27325 95.1918 0.988056 96.884 1.97282C100.571 4.12865 104.232 6.33392 107.956 8.43652C111.318 10.3148 112.868 13.0638 112.842 17.0028C112.764 30.4663 112.861 43.9374 112.764 57.4009C112.764 59.5682 113.137 60.283 115.461 60.264C132.222 60.1423 148.984 60.2107 165.745 60.1917C170.713 60.1917 175.357 61.1271 179.335 64.4121C184.453 68.6364 186.515 74.1685 186.5 80.7615C186.448 102.236 186.5 123.726 186.447 145.182C186.447 146.912 186.642 147.779 188.659 148.056C192.832 148.627 195.943 152.144 196.287 156.702C196.578 160.357 196.571 164.03 196.265 167.683C195.757 173.36 191.823 176.759 186.134 176.766C170.624 176.797 155.112 176.797 139.6 176.766L98.5874 176.774ZM20.888 100.7C20.888 116.217 20.9217 131.251 20.847 146.281C20.847 148.216 21.9676 147.775 22.9687 147.779C73.3787 147.779 123.791 147.796 174.206 147.832C176.074 147.832 176.283 147.166 176.276 145.551C176.223 131.414 176.249 117.278 176.231 103.145C176.231 102.521 176.477 101.833 175.816 100.985C173.657 103.647 171.602 106.228 169.466 108.753C161.315 118.376 147.452 117.981 139.869 107.932C138.169 105.677 136.507 103.407 134.781 101.168C130.407 95.4645 124.501 95.3162 119.944 100.829C117.579 103.689 115.368 106.692 112.883 109.438C104.751 118.426 91.1126 117.665 83.8993 107.917C82.2631 105.708 80.6344 103.495 78.9907 101.293C74.6164 95.4341 68.6507 95.244 64.0187 100.845C61.5121 103.886 59.1886 107.073 56.5476 109.97C51.923 115.05 46.1366 116.97 39.3977 115.844C33.9998 114.939 30.0924 111.753 26.8126 107.502C25.0718 105.244 23.4021 102.871 20.8955 100.7H20.888ZM98.819 70.5032H36.2113C34.2277 70.5032 32.2441 70.469 30.2605 70.5032C24.4032 70.6249 20.9777 74.1457 20.9217 80.0543C20.9217 82.5219 20.9777 84.9971 20.8955 87.4571C20.8544 88.7271 21.101 89.4571 22.457 89.8943C25.2014 90.7908 27.6497 92.4406 29.5321 94.6622C31.568 97.0158 33.5179 99.4492 35.509 101.86C39.8609 107.183 45.722 107.228 50.1262 101.936C52.5954 98.9701 54.9151 95.8523 57.4665 92.9817C65.5839 83.7842 79.2298 84.4382 86.5739 94.3124C88.2997 96.6356 89.977 99.0005 91.729 101.305C95.8381 106.681 102.076 106.806 106.354 101.605C108.431 99.0842 110.44 96.5101 112.51 93.9817C120.87 83.7614 134.617 84.0048 142.648 94.5216C144.449 96.8827 146.167 99.3085 147.998 101.643C151.86 106.586 157.968 106.685 162.021 101.909C163.459 100.21 164.83 98.453 166.216 96.7116C168.618 93.7003 171.427 91.2365 175.106 90.0046C176.111 89.6662 176.436 89.0959 176.414 88.0427C176.35 85.2785 176.414 82.5105 176.388 79.7425C176.446 77.6359 175.786 75.5737 174.52 73.9062C172.394 71.2028 169.514 70.4842 166.283 70.4842C143.79 70.4969 121.302 70.5032 98.819 70.5032ZM98.5613 157.991C71.364 157.991 44.168 157.991 16.9732 157.991C15.083 157.991 12.6175 157.155 11.4558 158.349C10.294 159.543 11.3138 162.06 11.0822 163.964C10.8095 166.071 11.6351 166.474 13.5813 166.47C69.1513 166.417 124.719 166.398 180.284 166.413C182.245 166.413 184.826 167.265 186.007 166.067C187.187 164.869 186.156 162.231 186.38 160.246C186.597 158.368 185.962 157.927 184.139 157.93C155.604 157.996 127.078 158.013 98.5613 157.98V157.991ZM94.6053 28.2991C94.6053 30.1165 94.6053 31.5119 94.6053 32.9073C94.6315 35.3597 93.8582 38.3026 94.9303 40.1315C96.051 42.0325 98.9348 42.8804 101.049 44.1846C101.172 44.2606 101.318 44.31 101.423 44.3937C102.353 45.0781 102.824 45.0173 102.805 43.6751C102.76 40.5446 102.76 37.4142 102.805 34.2837C102.839 33.9192 102.76 33.5529 102.578 33.2369C102.397 32.9208 102.122 32.6711 101.793 32.5233C99.5251 31.2229 97.2725 29.8618 94.6053 28.2991ZM94.6053 47.4088C94.6053 49.8194 94.6053 51.8954 94.6053 53.9714C94.6053 55.9865 93.8881 58.7887 94.8967 59.8229C96.193 61.1613 98.9348 60.0777 101.042 60.2678C102.315 60.3818 102.951 60.0701 102.835 58.5796C102.732 56.9337 102.732 55.2827 102.835 53.6368C102.89 53.1973 102.804 52.7513 102.588 52.3664C102.372 51.9815 102.039 51.6787 101.639 51.5038C99.3831 50.2566 97.1866 48.9145 94.6053 47.3974V47.4088ZM102.756 26.0976V18.2994C102.756 17.7747 102.775 17.2538 102.23 16.9382C99.7828 15.5238 97.3398 14.098 94.5941 12.501C94.5941 15.4059 94.6203 17.9115 94.5941 20.4172C94.5756 20.7091 94.6465 20.9997 94.7971 21.249C94.9476 21.4982 95.1703 21.6938 95.4346 21.8088C97.7619 23.1547 100.089 24.5273 102.756 26.0862V26.0976Z" fill="#EDFAFB" fill-opacity="0.2"/>
</svg>
