<svg width="54" height="59" viewBox="0 0 54 59" fill="none" xmlns="http://www.w3.org/2000/svg">
<g clip-path="url(#clip0_1181_578)">
<path d="M40.7473 47.4567C41.3603 47.4105 41.9151 47.2 42.4326 46.8809C42.5282 46.8486 42.6168 46.8046 42.6797 46.7237C43.3906 46.3052 43.9175 45.7155 44.2927 44.9894C44.379 44.8877 44.4396 44.7721 44.4676 44.6426C44.5142 44.5293 44.5608 44.4183 44.6074 44.305C44.6564 44.2125 44.7053 44.12 44.6937 44.009C44.8359 43.4633 44.9384 42.9106 45.0014 42.3487C45.0573 41.8377 45.1902 41.3359 45.2275 40.8202C45.2298 40.7855 45.2205 40.7416 45.2741 40.73C45.3673 40.7069 45.4116 40.7694 45.4676 40.8249C45.7496 41.1023 46.0363 41.3729 46.3184 41.6504C47.8965 43.2089 49.4746 44.7697 51.048 46.3306C51.752 47.0289 52.4582 47.7273 53.1459 48.4441C53.4699 48.7817 53.8242 49.0892 53.9571 49.5864C54.1529 50.3194 53.7147 51.0686 53.1412 51.3299C53.0969 51.3507 53.0573 51.3739 53.013 51.397C52.9547 51.4178 52.8965 51.4363 52.8382 51.4571C52.1599 51.5889 51.4816 51.7207 50.8032 51.8548L50.6191 51.8803C49.7706 52.0491 48.9081 52.1508 48.069 52.3659C47.9897 52.3751 47.9105 52.3844 47.8312 52.3913C47.3953 52.4676 47.4 52.4676 47.3231 53.0457C47.2321 53.7186 47.055 54.3753 46.9384 55.0436C46.8172 55.7442 46.6913 56.4449 46.5585 57.1432C46.4629 57.6473 46.4163 58.1768 45.9804 58.5468C45.9408 58.5422 45.9221 58.5607 45.9244 58.6C45.8848 58.6277 45.8452 58.6555 45.8056 58.6832C45.7916 58.6879 45.7799 58.6925 45.7659 58.6948C45.7799 58.6948 45.7939 58.6971 45.8079 58.6994C45.393 59.0648 44.9105 59.037 44.4093 58.9538C44.2974 58.9353 44.2904 58.8035 44.1809 58.8197C44.1016 58.7642 44.0247 58.711 43.9454 58.6555C43.7403 58.4613 43.5328 58.2647 43.3277 58.0705C43.2834 57.9918 43.2205 57.9294 43.1412 57.8832L40.3184 55.069C40.069 54.7638 39.7706 54.5117 39.4792 54.2504C38.9781 53.7463 38.4792 53.2399 37.9757 52.7405C36.7613 51.5357 35.5422 50.3356 34.3254 49.1332C34.2415 49.0129 34.1389 48.9112 34.0177 48.8279C33.9851 48.7956 33.9548 48.7632 33.9221 48.7285C33.8172 48.5898 33.696 48.4672 33.5515 48.3678C33.5375 48.3539 33.5235 48.34 33.5095 48.3262C33.4279 48.2082 33.323 48.1111 33.2042 48.0302C33.1669 47.9955 33.1296 47.9608 33.0946 47.9261C33.076 47.8406 32.9268 47.8244 32.9711 47.7041C33.2182 47.5793 33.3627 47.3457 33.5562 47.1654C33.7753 46.9619 33.9967 46.7746 34.2997 46.7144L35.055 46.8208C35.4419 46.8786 35.8289 46.9364 36.2158 46.9942C36.344 47.0659 36.4792 47.0844 36.6237 47.0613C36.9198 47.1931 37.2438 47.1677 37.5538 47.2278C37.6098 47.2347 37.6657 47.244 37.7217 47.2509H37.7193C37.731 47.281 37.7473 47.3018 37.7869 47.2856C38.2624 47.3642 38.738 47.4498 39.2158 47.5191C39.3767 47.5423 39.5422 47.5215 39.7053 47.5215C39.745 47.5215 39.7823 47.5215 39.8219 47.5215C40.0946 47.5261 40.372 47.5816 40.6354 47.4613C40.675 47.4613 40.7123 47.4613 40.752 47.4613L40.7473 47.4567Z" fill="#EDFAFB"/>
<path d="M19.9449 46.7604C20.3038 46.9107 20.5276 47.2275 20.8167 47.4657C20.9099 47.6068 21.0964 47.7224 20.9379 47.9282C20.6745 48.1802 20.4064 48.4276 20.1477 48.6843C16.8773 51.9239 13.6069 55.1659 10.3388 58.4078C9.97285 58.7709 9.56259 59.009 9.02413 58.9998C8.85397 58.9975 8.72343 58.8819 8.55793 58.8819C8.44371 58.8148 8.32949 58.7454 8.21527 58.6784C8.12203 58.5905 8.02879 58.5026 7.93555 58.4148C7.79103 58.1789 7.63718 57.9477 7.59289 57.6656C7.56259 57.5337 7.53229 57.4019 7.50199 57.2701C7.47401 57.0944 7.44371 56.9187 7.41574 56.7429C7.38543 56.5718 7.3528 56.403 7.3225 56.2319C7.2549 55.885 7.21294 55.5312 7.10338 55.1936C7.14534 55.0318 7.03812 54.8907 7.03345 54.7335C7.03345 54.4907 6.93788 54.2687 6.87495 54.0398C6.89592 53.9172 6.82599 53.8108 6.80502 53.6952C6.8563 53.4385 6.66749 53.2212 6.6838 52.9714C6.57658 52.8235 6.70711 52.6269 6.57891 52.4859C6.55793 52.4257 6.51131 52.4304 6.46469 52.4373C6.34814 52.4188 6.23159 52.398 6.11504 52.3795C5.95886 52.3772 5.81434 52.2662 5.64884 52.3217C5.40408 52.2407 5.15467 52.1783 4.89359 52.2061C4.73042 52.1136 4.5486 52.1089 4.37145 52.0881C4.13835 52.0534 3.91457 51.9586 3.67448 51.9656C3.46236 51.9124 3.24791 51.8592 3.03578 51.8037C2.86562 51.769 2.69313 51.7366 2.52296 51.702C2.34348 51.6927 2.17564 51.6002 1.9915 51.628C1.79802 51.5863 1.60455 51.5447 1.41108 51.5031C1.32716 51.4175 1.20828 51.4684 1.11271 51.4268C1.05443 51.362 0.977509 51.3389 0.898255 51.325C0.877276 51.2742 0.830656 51.2649 0.784036 51.2534C0.658162 51.1447 0.532288 51.036 0.408745 50.925C0.320167 50.7793 0.23392 50.6336 0.145342 50.4903C0.119701 50.4047 0.0940596 50.3192 0.0684186 50.2336C0.0987216 50.1573 0.0287915 50.118 0.0078125 50.0602C0.0124745 49.9446 0.0171365 49.8313 0.0217985 49.7156C0.108046 49.674 0.0684186 49.6046 0.0660876 49.5399C0.119701 49.4289 0.173314 49.3156 0.226927 49.2046C0.240913 49.1792 0.252568 49.1514 0.266554 49.126C0.44371 48.8254 0.704782 48.5988 0.949537 48.356C2.81201 46.5084 4.66515 44.6516 6.54161 42.8155C7.22926 42.1426 7.9239 41.4767 8.60455 40.7945C8.70012 40.7598 8.7584 40.7506 8.81667 40.8755C8.86562 40.9772 8.79569 41.1067 8.91224 41.1784C8.9542 41.5622 8.99616 41.9484 9.03812 42.3323C8.98683 42.4248 9.09872 42.4802 9.09173 42.5635C9.07541 42.8826 9.157 43.1855 9.2549 43.4861C9.27355 43.5832 9.21993 43.6919 9.30385 43.7775C9.36912 44.1035 9.46236 44.418 9.63485 44.7047C9.67215 44.7811 9.70944 44.8597 9.74907 44.936C9.86795 45.1811 10.0055 45.4146 10.192 45.6158C10.2409 45.6759 10.2899 45.7384 10.3388 45.7985C10.5556 46.106 10.8307 46.3511 11.15 46.5477C11.3784 46.7512 11.6418 46.8992 11.9192 47.0287C11.9985 47.061 12.0777 47.0934 12.157 47.1281C12.3225 47.2229 12.495 47.3015 12.6838 47.3362C12.7607 47.431 12.8749 47.3871 12.9705 47.4125C13.178 47.4888 13.3901 47.5374 13.6139 47.505C14.3645 47.5767 15.0941 47.468 15.8283 47.3154C16.439 47.1882 17.0544 47.0888 17.6721 47.0055C18.2572 46.9269 18.847 46.8691 19.4251 46.7489C19.5999 46.7859 19.7747 46.7743 19.9495 46.7558L19.9449 46.7604Z" fill="#EDFAFB"/>
<path fill-rule="evenodd" clip-rule="evenodd" d="M7.6264 35.6639C7.37328 35.559 7.11516 35.4602 6.85706 35.3615C5.95996 35.0182 5.06304 34.6751 4.37698 34.0753C4.308 34.015 4.23926 33.9546 4.1706 33.8944L4.16976 33.8936C4.02292 33.7647 3.87648 33.6362 3.72896 33.5088C3.687 33.4625 3.64505 33.4163 3.60309 33.3677C3.38864 33.0324 3.20216 32.6832 3.09027 32.2971C2.91777 31.7074 3.00402 31.134 3.25111 30.5952C3.49754 30.0583 3.77471 29.5336 4.0491 29.0141C5.20219 26.8313 6.30596 24.7418 4.87115 22.2314C4.72862 21.9819 4.57887 21.7357 4.42909 21.4895C4.00814 20.7974 3.58703 20.105 3.3257 19.3409C2.32494 16.4064 4.4177 15.4422 6.59022 14.4413C8.31919 13.6448 10.0987 12.8249 10.4096 10.9701C10.4825 10.5368 10.5396 10.0755 10.5978 9.60507C10.9209 6.99274 11.2783 4.10296 14.5751 4.20878C15.3119 4.23233 16.0665 4.38914 16.8204 4.54582C18.5829 4.91209 20.3419 5.27762 21.8618 3.93823C22.3644 3.49659 22.8195 2.98076 23.2761 2.46333L23.2761 2.46332C23.9334 1.71828 24.5938 0.969932 25.4026 0.434998C26.8152 -0.499197 28.3327 0.206074 29.4399 1.27901C29.808 1.63623 30.1512 2.00461 30.4863 2.36426C31.9104 3.89273 33.1877 5.26365 35.6031 4.95105C36.1019 4.8866 36.6424 4.7537 37.1987 4.61689C38.9379 4.18922 40.8322 3.7234 42.0949 5.19153C42.5332 5.70025 42.7593 6.35465 42.8921 7.00905C43.0133 7.6068 43.0634 8.21629 43.1136 8.82559C43.1724 9.54096 43.2312 10.2561 43.4049 10.9516C43.9056 12.9545 45.4426 13.5941 47.0342 14.2564C48.1548 14.7228 49.3024 15.2004 50.1346 16.173C51.6572 17.9532 50.5686 19.7271 49.4907 21.4836C48.8409 22.5424 48.1951 23.5949 48.1276 24.6385C48.0418 25.9728 48.7798 27.3062 49.493 28.5948C50.7376 30.8436 51.9069 32.9562 48.4912 34.6996C48.0626 34.9185 47.5902 35.1118 47.1099 35.3084C46.0883 35.7264 45.0313 36.1589 44.2861 36.8825C43.391 37.7516 43.2664 39.2427 43.1643 40.4644C43.1536 40.5918 43.1432 40.7162 43.1322 40.8366C43.0227 42.0229 42.8735 43.2577 42.2161 44.252C40.9882 46.1099 39.0392 45.6556 37.0593 45.194C35.6042 44.8548 34.1324 44.5117 32.9178 45.0798C31.9671 45.5245 31.2874 46.3817 30.6062 47.2408C29.7356 48.3387 28.8627 49.4396 27.4189 49.6861C26.2045 49.8942 25.0343 49.1172 24.1952 48.2223C23.9248 47.9346 23.6598 47.6153 23.3897 47.29C22.6379 46.3843 21.8473 45.4319 20.7942 44.9827C20.7545 44.9279 20.6938 44.9188 20.636 44.9102L20.6264 44.9087C19.1357 44.6431 17.8136 44.9159 16.3986 45.2078L16.3982 45.2079C16.1008 45.2693 15.7993 45.3315 15.4912 45.3897C14.3374 45.6094 13.025 45.5909 12.1299 44.8347C11.1423 43.9985 11.0103 42.6065 10.8855 41.2906L10.8855 41.2905C10.8675 41.1 10.8495 40.9111 10.8292 40.7257C10.5635 38.3162 9.97372 36.6351 7.62407 35.6616L7.6264 35.6639ZM26.5 42C36.165 42 44 34.165 44 24.5C44 14.835 36.165 7 26.5 7C16.835 7 9 14.835 9 24.5C9 34.165 16.835 42 26.5 42Z" fill="#EDFAFB"/>
<circle cx="26.5" cy="24.5" r="15.5" fill="#EDFAFB"/>
<path d="M30.7188 25H28.375V32H25.25V25H22.6875V22.125H25.25V19.9062C25.25 17.4062 26.75 16 29.0312 16C30.125 16 31.2812 16.2188 31.2812 16.2188V18.6875H30C28.75 18.6875 28.375 19.4375 28.375 20.25V22.125H31.1562L30.7188 25Z" fill="#29424D"/>
</g>
<defs>
<clipPath id="clip0_1181_578">
<rect width="54" height="59" fill="white"/>
</clipPath>
</defs>
</svg>
