<svg width="197" height="215" viewBox="0 0 197 215" fill="none" xmlns="http://www.w3.org/2000/svg">
<path d="M98.5874 214.774H12.1319C4.72432 214.774 0.988776 211.014 0.966363 203.535C0.966363 200.843 0.902859 198.147 1.00745 195.455C1.20544 190.337 4.33583 186.668 9.28916 186.022C11.0561 185.79 10.7834 184.79 10.7834 183.703C10.7834 161.929 10.7834 140.156 10.7834 118.385C10.7834 110.195 14.1865 104.032 21.4334 100.214C24.5227 98.5872 27.8586 98.2374 31.2467 98.2374C48.1575 98.2374 65.0646 98.1803 81.9717 98.2944C84.1869 98.2944 84.5343 97.6556 84.5231 95.5872C84.4334 79.5002 84.4596 63.4132 84.482 47.33C84.482 42.2617 87.0483 39.0717 91.4563 38.5204C93.4473 38.2733 95.1918 38.9881 96.884 39.9728C100.571 42.1287 104.232 44.3339 107.956 46.4365C111.318 48.3148 112.868 51.0638 112.842 55.0028C112.764 68.4663 112.861 81.9374 112.764 95.4009C112.764 97.5682 113.137 98.283 115.461 98.264C132.222 98.1423 148.984 98.2107 165.745 98.1917C170.713 98.1917 175.357 99.1271 179.335 102.412C184.453 106.636 186.515 112.169 186.5 118.761C186.448 140.236 186.5 161.726 186.447 183.182C186.447 184.912 186.642 185.779 188.659 186.056C192.832 186.627 195.943 190.144 196.287 194.702C196.578 198.357 196.571 202.03 196.265 205.683C195.757 211.36 191.823 214.759 186.134 214.766C170.624 214.797 155.112 214.797 139.6 214.766L98.5874 214.774ZM20.888 138.7C20.888 154.217 20.9217 169.251 20.847 184.281C20.847 186.216 21.9676 185.775 22.9687 185.779C73.3787 185.779 123.791 185.796 174.206 185.832C176.074 185.832 176.283 185.166 176.276 183.551C176.223 169.414 176.249 155.278 176.231 141.145C176.231 140.521 176.477 139.833 175.816 138.985C173.657 141.647 171.602 144.228 169.466 146.753C161.315 156.376 147.452 155.981 139.869 145.932C138.169 143.677 136.507 141.407 134.781 139.168C130.407 133.465 124.501 133.316 119.944 138.829C117.579 141.689 115.368 144.692 112.883 147.438C104.751 156.426 91.1126 155.665 83.8993 145.917C82.2631 143.708 80.6344 141.495 78.9907 139.293C74.6164 133.434 68.6507 133.244 64.0187 138.845C61.5121 141.886 59.1886 145.073 56.5476 147.97C51.923 153.05 46.1366 154.97 39.3977 153.844C33.9998 152.939 30.0924 149.753 26.8126 145.502C25.0718 143.244 23.4021 140.871 20.8955 138.7H20.888ZM98.819 108.503H36.2113C34.2277 108.503 32.2441 108.469 30.2605 108.503C24.4032 108.625 20.9777 112.146 20.9217 118.054C20.9217 120.522 20.9777 122.997 20.8955 125.457C20.8544 126.727 21.101 127.457 22.457 127.894C25.2014 128.791 27.6497 130.441 29.5321 132.662C31.568 135.016 33.5179 137.449 35.509 139.86C39.8609 145.183 45.722 145.228 50.1262 139.936C52.5954 136.97 54.9151 133.852 57.4665 130.982C65.5839 121.784 79.2298 122.438 86.5739 132.312C88.2997 134.636 89.977 137.001 91.729 139.305C95.8381 144.681 102.076 144.806 106.354 139.605C108.431 137.084 110.44 134.51 112.51 131.982C120.87 121.761 134.617 122.005 142.648 132.522C144.449 134.883 146.167 137.309 147.998 139.643C151.86 144.586 157.968 144.685 162.021 139.909C163.459 138.21 164.83 136.453 166.216 134.712C168.618 131.7 171.427 129.236 175.106 128.005C176.111 127.666 176.436 127.096 176.414 126.043C176.35 123.278 176.414 120.51 176.388 117.743C176.446 115.636 175.786 113.574 174.52 111.906C172.394 109.203 169.514 108.484 166.283 108.484C143.79 108.497 121.302 108.503 98.819 108.503ZM98.5613 195.991C71.364 195.991 44.168 195.991 16.9732 195.991C15.083 195.991 12.6175 195.155 11.4558 196.349C10.294 197.543 11.3138 200.06 11.0822 201.964C10.8095 204.071 11.6351 204.474 13.5813 204.47C69.1513 204.417 124.719 204.398 180.284 204.413C182.245 204.413 184.826 205.265 186.007 204.067C187.187 202.869 186.156 200.231 186.38 198.246C186.597 196.368 185.962 195.927 184.139 195.93C155.604 195.996 127.078 196.013 98.5613 195.98V195.991ZM94.6053 66.2991C94.6053 68.1165 94.6053 69.5119 94.6053 70.9073C94.6315 73.3597 93.8582 76.3026 94.9303 78.1315C96.051 80.0325 98.9348 80.8804 101.049 82.1846C101.172 82.2606 101.318 82.31 101.423 82.3937C102.353 83.0781 102.824 83.0173 102.805 81.6751C102.76 78.5446 102.76 75.4142 102.805 72.2837C102.839 71.9192 102.76 71.5529 102.578 71.2369C102.397 70.9208 102.122 70.6711 101.793 70.5233C99.5251 69.2229 97.2725 67.8618 94.6053 66.2991ZM94.6053 85.4088C94.6053 87.8194 94.6053 89.8954 94.6053 91.9714C94.6053 93.9865 93.8881 96.7887 94.8967 97.8229C96.193 99.1613 98.9348 98.0777 101.042 98.2678C102.315 98.3818 102.951 98.0701 102.835 96.5796C102.732 94.9337 102.732 93.2827 102.835 91.6368C102.89 91.1973 102.804 90.7513 102.588 90.3664C102.372 89.9815 102.039 89.6787 101.639 89.5038C99.3831 88.2566 97.1866 86.9145 94.6053 85.3974V85.4088ZM102.756 64.0976V56.2994C102.756 55.7747 102.775 55.2538 102.23 54.9382C99.7828 53.5238 97.3398 52.098 94.5941 50.501C94.5941 53.4059 94.6203 55.9115 94.5941 58.4172C94.5756 58.7091 94.6465 58.9997 94.7971 59.249C94.9476 59.4982 95.1703 59.6938 95.4346 59.8088C97.7619 61.1547 100.089 62.5273 102.756 64.0862V64.0976Z" fill="#EDFAFB" fill-opacity="0.2"/>
<path d="M114.829 13.5656C112.707 15.6637 110.317 17.1676 107.934 18.6667C107.575 18.8928 107.215 19.1187 106.857 19.3466C103.984 21.1661 103.078 25.0048 104.488 28.7705C105.078 30.3482 105.629 31.9259 105.111 33.5842C104.488 35.588 103.132 36.9085 101.125 37.181C99.0052 37.4651 97.3601 36.4862 96.2694 34.5861C91.6784 26.5863 94.0953 15.3928 101.654 10.4985C105.278 8.15307 108.658 5.72704 111.216 2.02273C113.028 -0.579888 116.065 -0.591409 118.369 1.53137C130.505 12.7249 127.725 33.8875 113.173 41.0888C110.658 42.3364 107.963 41.5456 106.651 39.1695C105.321 36.7434 105.89 33.9105 108.267 32.2599C110.916 30.4327 113.521 28.6131 114.88 25.4309C116.532 21.5615 116.793 17.6538 114.829 13.5656Z" fill="#EDFAFB" fill-opacity="0.2"/>
<path d="M114.829 13.5656C112.707 15.6637 110.317 17.1676 107.934 18.6667C107.575 18.8928 107.215 19.1187 106.857 19.3466C103.984 21.1661 103.078 25.0048 104.488 28.7705C105.078 30.3482 105.629 31.9259 105.111 33.5842C104.488 35.588 103.132 36.9085 101.125 37.181C99.0052 37.4651 97.3601 36.4862 96.2694 34.5861C91.6784 26.5863 94.0953 15.3928 101.654 10.4985C105.278 8.15307 108.658 5.72704 111.216 2.02273C113.028 -0.579888 116.065 -0.591409 118.369 1.53137C130.505 12.7249 127.725 33.8875 113.173 41.0888C110.658 42.3364 107.963 41.5456 106.651 39.1695C105.321 36.7434 105.89 33.9105 108.267 32.2599C110.916 30.4327 113.521 28.6131 114.88 25.4309C116.532 21.5615 116.793 17.6538 114.829 13.5656Z" stroke="#29424D"/>
</svg>
