<svg width="281" height="87" viewBox="0 0 281 87" fill="none" xmlns="http://www.w3.org/2000/svg">
<g clip-path="url(#clip0_623_864)">
<path d="M165.009 0.294013L142.711 27.2817V25.738C142.711 17.7517 142.737 9.76861 142.675 1.78554C142.675 0.545322 143 0.25485 144.206 0.264641C151.008 0.323388 157.814 0.294013 165.009 0.294013Z" fill="#4F5059"/>
<path d="M116.844 36.8182L138.642 10.3821C139.061 10.9989 138.928 11.4917 138.928 11.9487C138.928 19.8208 138.908 27.6896 138.964 35.5617C138.964 36.7432 138.73 37.1185 137.475 37.1055C131.04 37.0337 124.605 37.0728 118.173 37.063C117.77 37.0598 117.325 37.2229 116.844 36.8182Z" fill="#4F5059"/>
<path d="M138.189 83.6492C134.204 86.7269 129.921 86.6126 126.797 83.4566C123.739 80.3724 123.401 74.9122 126.053 71.4983C128.978 67.7189 133.203 67.2555 138.332 70.2875C138.332 67.4905 138.446 64.7946 138.29 62.1282C138.192 60.4147 139.177 60.6628 140.204 60.6464C141.231 60.6301 142.115 60.4735 142.089 62.1543C141.978 69.2692 142.066 76.3841 142.004 83.499C142.004 84.2399 142.814 85.578 140.971 85.6074C138.455 85.64 138.455 85.702 138.189 83.6492ZM138.641 76.9553C138.611 73.9102 136.304 71.5538 133.34 71.5505C132.623 71.5399 131.911 71.6758 131.248 71.9501C130.585 72.2244 129.984 72.6313 129.482 73.146C128.981 73.6607 128.589 74.2725 128.33 74.9442C128.071 75.6159 127.951 76.3335 127.977 77.0532C128.016 80.1994 130.379 82.6439 133.356 82.6015C136.333 82.5591 138.667 80.0754 138.641 76.9553Z" fill="#4F5059"/>
<path d="M127.806 0.293802C131.001 0.293802 134.199 0.372136 137.387 0.257906C138.798 0.20895 138.986 0.737674 138.84 1.94199C137.995 9.01774 129.896 13.6 123.396 10.6594C119.467 8.88066 117.279 5.82908 116.704 1.56013C116.568 0.548374 116.863 0.254639 117.897 0.254639C121.199 0.336232 124.504 0.293802 127.806 0.293802Z" fill="#4F5059"/>
<path d="M71.5289 82.027C75.2697 82.027 78.7213 82.0956 82.1696 81.9911C83.4469 81.952 83.6906 82.3632 83.6386 83.5316C83.5509 85.6236 83.6386 85.6269 81.4578 85.6269C77.1808 85.6269 72.9037 85.5682 68.6266 85.6628C67.3526 85.6889 67.1153 85.2744 67.1283 84.106C67.1022 82.9183 67.4515 81.7529 68.1261 80.777C71.5224 75.8129 74.8505 70.8031 78.2013 65.8031C78.4905 65.369 78.9 64.9904 78.965 64.2691C75.6922 64.2691 72.4649 64.1908 69.2311 64.3017C67.8368 64.3507 67.4533 63.9003 67.5866 62.5785C67.6938 61.5243 67.3136 60.5158 69.1434 60.5844C73.5212 60.7508 77.9185 60.6659 82.2963 60.6203C83.3201 60.6203 83.6744 60.8422 83.6939 61.9584C83.7362 63.3026 83.3351 64.6232 82.5531 65.7149C78.8935 71.0283 75.3217 76.3938 71.5289 82.027Z" fill="#4F5059"/>
<path d="M214.014 86.022C211.134 86.0057 208.313 84.7688 206.025 82.2622C205.447 81.6291 205.408 81.2113 206.168 80.7838C206.306 80.6965 206.436 80.5982 206.558 80.49C208.388 79.0605 208.385 79.0638 210.081 80.6761C210.817 81.404 211.721 81.9385 212.712 82.2323C213.703 82.526 214.75 82.5699 215.762 82.3601C216.565 82.2261 217.308 81.8474 217.889 81.2752C218.471 80.7031 218.863 79.9652 219.012 79.1617C219.285 77.6702 218.626 76.3484 216.871 75.5716C214.859 74.6643 212.704 74.0801 210.695 73.1793C207.241 71.6388 205.869 68.9038 206.75 65.5977C207.312 63.4991 208.758 62.1512 210.634 61.2602C214.095 59.6283 219.1 60.6074 221.791 63.3326C222.405 63.9527 222.483 64.3574 221.677 64.8046C221.345 64.9898 221.036 65.2144 220.758 65.4736C219.994 66.1851 219.484 66.3646 218.593 65.3822C217.053 63.6753 214.963 63.3718 212.772 64.0409C212.137 64.2014 211.566 64.556 211.139 65.0558C210.713 65.5556 210.451 66.1759 210.39 66.8313C210.208 68.2674 210.985 69.2922 212.178 69.8372C214.336 70.8164 216.611 71.5442 218.759 72.5396C222.152 74.1127 223.559 76.9032 222.763 80.1506C221.853 83.8549 218.691 86.1102 214.014 86.022Z" fill="#4F5059"/>
<path d="M153.84 37.0692C150.59 37.0692 147.34 36.9909 144.113 37.1084C142.754 37.1573 142.614 36.6384 142.77 35.5222C143.174 32.8045 144.55 30.3275 146.64 28.5545C148.731 26.7815 151.393 25.834 154.128 25.8892C156.864 25.9444 159.486 26.9986 161.504 28.8544C163.522 30.7103 164.797 33.2408 165.092 35.9726C165.202 37.0627 164.692 37.0855 163.893 37.0822C160.542 37.0431 157.191 37.0692 153.84 37.0692Z" fill="#4F5059"/>
<path d="M95.7547 78.2998C93.7527 78.2998 91.7474 78.3259 89.7454 78.2998C88.7703 78.2802 88.6728 78.6262 89.0206 79.465C90.5059 83.0551 95.784 83.7927 98.3775 80.7476C98.6863 80.3821 98.774 79.5303 99.502 79.8501C100.354 80.1906 101.143 80.6728 101.836 81.2764C102.219 81.6419 101.602 82.151 101.322 82.5035C98.8748 85.6106 95.6182 86.4722 91.8969 85.6856C88.2341 84.9121 86.0728 82.5166 85.3318 78.8808C84.889 76.6737 85.2957 74.38 86.4699 72.4621C87.6441 70.5441 89.4986 69.1442 91.6596 68.5446C96.1187 67.2848 100.679 69.5531 102.222 73.7926C102.242 73.8448 102.268 73.8938 102.284 73.9428C103.552 77.6601 103.113 78.3096 99.3298 78.3096L95.7547 78.2998ZM93.9834 75.2287C95.3355 75.2287 96.6875 75.1993 98.0395 75.2287C98.969 75.2548 99.0145 74.9023 98.6895 74.1549C97.9485 72.448 96.252 71.4166 94.0972 71.4362C91.9976 71.4558 89.8429 72.7417 89.1993 74.3442C88.9588 74.948 89.0368 75.2417 89.7746 75.2254C91.1754 75.2091 92.5827 75.2287 93.9834 75.2287Z" fill="#4F5059"/>
<path d="M273.783 78.3001C271.781 78.3001 269.783 78.323 267.784 78.3001C266.916 78.3001 266.76 78.5482 267.098 79.3478C267.431 80.2125 267.992 80.9698 268.722 81.538C269.452 82.1061 270.322 82.4638 271.239 82.5723C273.361 82.8987 275.259 82.3439 276.565 80.5684C277.872 78.7929 278.668 80.6565 279.562 81.0057C280.823 81.5018 279.614 82.184 279.331 82.5756C277.056 85.7284 272.334 86.8609 268.502 85.2649C266.75 84.5099 265.296 83.1953 264.364 81.5252C263.433 79.8551 263.077 77.9229 263.351 76.0286C263.906 71.9554 267 68.7472 270.787 68.3262C275.262 67.8268 278.86 69.8634 280.287 73.695C280.345 73.8484 280.423 73.992 280.472 74.1487C281.558 77.7388 281.151 78.3099 277.514 78.3099L273.783 78.3001ZM277.098 75.1637C276.448 72.6147 274.885 71.4267 272.308 71.4496C269.731 71.4724 267.836 72.866 267.267 75.1637H277.098Z" fill="#4F5059"/>
<path d="M50.5808 78.3002C48.6307 78.3002 46.6807 78.3459 44.7307 78.3002C43.5444 78.261 43.4826 78.6755 43.9181 79.6253C45.5432 83.1762 50.6523 83.7408 53.2881 80.637C54.0616 79.7297 55.1536 79.8472 56.4211 81.0254C57.2694 81.812 56.3139 82.2885 55.9791 82.7193C53.6846 85.6958 49.3522 86.763 45.5594 85.3466C41.9551 84.0052 39.9141 80.8035 40.0343 76.6847C40.0958 74.8274 40.7467 73.0384 41.8921 71.5788C43.0375 70.1192 44.6173 69.0654 46.4012 68.571C50.025 67.4973 53.9478 68.8028 56.0506 71.7956C57.2141 73.4536 57.6269 75.3204 57.6301 77.3276C57.6301 78.1533 57.3051 78.3263 56.5804 78.3067C54.5816 78.2741 52.5796 78.3002 50.5808 78.3002ZM48.7835 75.229C50.0835 75.229 51.3835 75.1768 52.6836 75.229C53.9836 75.2812 53.8893 74.7917 53.4116 73.9235C52.4171 72.0893 50.8115 71.4039 48.842 71.4496C47.8617 71.4342 46.8965 71.694 46.0553 72.1997C45.2141 72.7054 44.5302 73.437 44.0807 74.3119C43.6874 75.0202 43.9832 75.2584 44.7307 75.2388C46.0794 75.2062 47.4315 75.229 48.7835 75.229Z" fill="#4F5059"/>
<path d="M155.541 78.3001C153.539 78.3001 151.534 78.3262 149.532 78.3001C148.557 78.3001 148.456 78.5971 148.804 79.462C150.243 83.0521 155.557 83.7864 158.157 80.7511C158.463 80.3954 158.525 79.524 159.269 79.8504C160.11 80.2153 160.9 80.6893 161.619 81.2603C161.944 81.5214 161.485 81.9359 161.294 82.2394C159.441 85.1082 155.525 86.5573 151.839 85.7512C148.154 84.945 145.573 82.2427 145.056 78.571C144.478 74.4783 146.603 70.5194 150.211 68.9626C153.922 67.3634 158.404 68.4567 160.77 71.5344C162.07 73.2413 162.535 75.2093 162.581 77.3242C162.6 78.1271 162.321 78.3491 161.557 78.3327C159.552 78.2707 157.546 78.3001 155.541 78.3001ZM153.76 75.2322C155.06 75.2322 156.36 75.1832 157.66 75.2322C158.752 75.2877 158.859 74.9058 158.401 74.0246C157.407 72.1088 155.775 71.3908 153.724 71.4398C151.599 71.492 150.022 72.4907 148.989 74.3412C148.683 74.8895 148.797 75.242 149.545 75.2257C150.945 75.2093 152.353 75.2289 153.76 75.2289V75.2322Z" fill="#4F5059"/>
<path d="M185.545 76.6257C187.349 74.6348 189.348 72.7875 190.895 70.6139C192.52 68.3293 194.584 68.3945 197.07 68.7307C195.136 70.8913 193.313 73.0029 191.395 75.0232C190.729 75.7249 190.745 76.1557 191.291 76.9161C193.323 79.7066 195.269 82.5558 197.418 85.6237C196.118 85.6237 195.068 85.5748 194.021 85.6237C193.329 85.6662 193.079 85.2158 192.773 84.7784L188.116 78.1661C185.99 79.7229 184.681 81.6224 185.191 84.3672C185.386 85.3887 184.918 85.6368 183.936 85.627C181.587 85.6009 181.583 85.6531 181.583 83.362C181.583 76.3548 181.632 69.3475 181.544 62.3436C181.528 60.9075 181.983 60.5942 183.27 60.7117C184.323 60.8129 185.308 60.4604 185.246 62.2783C185.09 66.9911 185.194 71.7105 185.194 76.4266L185.545 76.6257Z" fill="#4F5059"/>
<path d="M25.0478 70.5096C26.3966 69.3412 27.5601 68.5775 28.9902 68.3556C33.5402 67.6539 36.9138 70.3138 37.1153 74.9581C37.2486 78.1565 37.1153 81.368 37.1933 84.573C37.1933 85.4575 36.9041 85.7447 36.085 85.6239C35.9768 85.6173 35.8683 85.6173 35.76 85.6239C33.5207 85.6239 33.524 85.6239 33.5207 83.4503C33.5207 80.9503 33.5695 78.4503 33.4915 75.9437C33.4037 73.2707 32.3085 71.8543 30.2739 71.5377C27.3489 71.084 25.1941 72.8758 25.1258 75.9111C25.0608 78.7342 25.0576 81.5606 25.1258 84.3968C25.1518 85.4183 24.8658 85.7871 23.8681 85.6337C23.4922 85.575 23.1096 85.575 22.7338 85.6337C21.6613 85.8034 21.3883 85.3628 21.398 84.3054C21.45 78.8713 21.424 73.4404 21.424 68.0063C21.424 66.1036 21.5183 64.1976 21.3915 62.3046C21.2973 60.9469 21.827 60.7674 23.0166 60.7152C24.5701 60.6499 25.2136 60.96 25.0836 62.7159C24.9113 65.1898 25.0478 67.6865 25.0478 70.5096Z" fill="#4F5059"/>
<path d="M238.057 83.4535C236.052 85.3693 234.268 86.0644 232.145 85.9633C228.84 85.8066 226.344 83.7146 225.934 80.4508C225.476 76.7791 225.837 73.0748 225.733 69.3868C225.713 68.6982 226.058 68.6296 226.627 68.5839C229.448 68.3653 229.438 68.3489 229.448 71.1949C229.448 73.6917 229.425 76.1884 229.503 78.6852C229.581 81.1819 230.904 82.569 233.078 82.7354C235.525 82.9247 237.28 81.6454 237.68 79.1682C238.164 76.1525 237.914 73.0977 237.83 70.0689C237.781 68.3979 238.642 68.5578 239.682 68.597C240.657 68.6361 241.632 68.2706 241.574 70.0298C241.424 74.7491 241.463 79.4782 241.574 84.2008C241.6 85.5063 241.154 85.8033 240.027 85.6369C238.974 85.477 237.277 86.3255 238.057 83.4535Z" fill="#4F5059"/>
<path d="M109.332 70.5357C110.703 69.2563 112.143 68.46 113.882 68.336C118.302 68.0096 121.282 70.6206 121.451 75.0919C121.575 78.2936 121.451 81.5051 121.493 84.7101C121.493 85.575 121.204 85.8034 120.372 85.8263C117.863 85.8915 117.876 85.9307 117.86 83.3426C117.843 80.6826 117.86 78.0194 117.743 75.3628C117.629 72.9868 116.335 71.6976 114.168 71.5214C111.847 71.3353 110.076 72.5005 109.618 74.7459C109.016 77.6409 109.491 80.5945 109.351 83.5188C109.315 84.1977 109.676 85.278 109.127 85.4771C108.207 85.8034 107.102 85.6435 106.082 85.5946C105.519 85.5652 105.718 85.0136 105.718 84.6807C105.718 79.6285 105.718 74.5632 105.695 69.524C105.695 68.8419 105.844 68.4894 106.585 68.5873C106.854 68.6249 107.126 68.6249 107.395 68.5873C108.834 68.349 109.705 68.7178 109.332 70.5357Z" fill="#4F5059"/>
<path d="M171.592 68.2705C173.997 68.2705 176.012 68.8286 177.696 70.4083C178.505 71.1622 178.703 71.5995 177.511 72.2294C176.318 72.8593 175.577 73.2607 174.374 72.1087C173.24 71.0251 171.573 71.0773 170.071 71.6354C169.317 71.9161 168.771 72.4807 168.771 73.3325C168.771 74.1844 169.46 74.5205 170.13 74.7555C172.06 75.4409 174.15 75.5813 176.019 76.4722C179.149 77.9605 179.789 81.4592 177.41 83.9951C176.068 85.4246 174.365 86.0088 172.467 86.0741C169.61 86.1688 166.997 85.5519 164.991 83.2934C164.341 82.5656 164.088 81.9553 165.284 81.5408C165.639 81.4081 165.974 81.2281 166.282 81.0056C167.032 80.4703 167.533 80.4018 168.254 81.2634C169.554 82.8169 171.404 83.0748 173.302 82.6407C174.277 82.4155 175.167 81.8411 175.193 80.6825C175.219 79.625 174.368 79.2529 173.484 79.031C172.281 78.7308 171.072 78.4533 169.873 78.1498C166.392 77.2653 164.913 75.6367 165.154 72.9605C165.378 70.4572 167.822 68.4957 170.962 68.2999L171.592 68.2705Z" fill="#4F5059"/>
<path d="M7.78791 74.7885C7.78791 71.6357 7.75541 68.4829 7.78791 65.3237C7.78791 64.4 7.52465 64.0867 6.59514 64.1259C4.97011 64.1911 3.34507 64.0639 1.72004 64.165C0.264018 64.2564 0.647526 63.2479 0.706027 62.5528C0.764528 61.8576 0.0560156 60.7251 1.68105 60.7414C6.93314 60.7903 12.182 60.7675 17.4341 60.7414C18.0841 60.7414 18.3668 60.8785 18.4091 61.6291C18.5684 64.1389 18.6074 64.1226 16.1341 64.1422C14.626 64.1422 12.6207 63.6363 11.7465 64.4C10.7325 65.291 11.4475 67.3602 11.4215 68.9105C11.3792 74.0182 11.324 79.1292 11.4475 84.25C11.493 86.0516 10.4237 85.5816 9.49744 85.6208C8.57117 85.6599 7.6319 85.8819 7.71315 84.2402C7.89841 81.1038 7.78791 77.938 7.78791 74.7885Z" fill="#4F5059"/>
<path d="M257.951 62.8464C257.951 64.1226 258.061 65.366 257.921 66.5801C257.73 68.2512 258.272 68.9692 259.982 68.6526C261.207 68.4274 261.607 68.8843 261.63 70.1996C261.665 71.6715 261.223 72.1905 259.826 71.9229C258.256 71.6193 257.785 72.2492 257.915 73.8223C258.074 75.7643 257.986 77.7388 257.996 79.6807C257.996 81.231 258.646 82.1514 260.313 82.1448C262.51 82.1448 261.366 83.8191 261.539 84.7558C261.786 86.107 260.661 85.6729 260.024 85.6566C256.007 85.5554 254.463 84.0835 254.262 80.0365C254.151 77.8171 254.171 75.5848 254.262 73.3622C254.298 72.2884 254.099 71.6944 252.894 71.9196C251.616 72.1611 251.249 71.6226 251.291 70.3465C251.334 69.1781 251.33 68.3001 252.874 68.5743C253.807 68.7407 254.307 68.5188 254.294 67.3275C254.249 64.1617 254.437 64.0116 257.951 62.8464Z" fill="#4F5059"/>
<path d="M244.952 77.0469V70.8459C244.952 68.496 244.952 68.5025 247.467 68.5841C248.065 68.6037 248.64 68.4829 248.634 69.4457C248.605 74.5502 248.614 79.6547 248.634 84.7624C248.634 85.376 248.458 85.6664 247.812 85.624C247.271 85.5683 246.727 85.5683 246.187 85.624C245.169 85.7643 244.887 85.3629 244.929 84.3642C245 81.936 244.952 79.4915 244.952 77.0469Z" fill="#4F5059"/>
<path d="M246.797 65.9765C246.474 65.9825 246.154 65.9224 245.855 65.8001C245.556 65.6777 245.285 65.4956 245.059 65.2648C244.832 65.034 244.655 64.7593 244.537 64.4575C244.42 64.1557 244.365 63.833 244.375 63.5092C244.375 61.9654 245.35 60.9863 246.891 61.0222C247.212 61.0269 247.53 61.0952 247.825 61.2234C248.12 61.3515 248.386 61.5369 248.61 61.7689C248.833 62.0008 249.009 62.2749 249.127 62.5752C249.244 62.8755 249.302 63.1962 249.296 63.5189C249.263 64.1692 248.988 64.7832 248.525 65.2387C248.062 65.6942 247.445 65.9576 246.797 65.9765Z" fill="#4F5059"/>
</g>
<defs>
<clipPath id="clip0_623_864">
<rect width="280.376" height="85.8294" fill="white" transform="translate(0.624023 0.254639)"/>
</clipPath>
</defs>
</svg>
