<svg width="281" height="87" viewBox="0 0 281 87" fill="none" xmlns="http://www.w3.org/2000/svg">
<g clip-path="url(#clip0_8_9684)">
<path d="M165.01 0.294257L142.712 27.282V25.7382C142.712 17.7519 142.738 9.76885 142.676 1.78578C142.676 0.545567 143.001 0.255094 144.207 0.264885C151.009 0.323632 157.815 0.294257 165.01 0.294257Z" fill="#123239"/>
<path d="M116.844 36.8185L138.642 10.3823C139.061 10.9992 138.928 11.492 138.928 11.9489C138.928 19.821 138.908 27.6899 138.964 35.562C138.964 36.7434 138.73 37.1188 137.475 37.1057C131.04 37.0339 124.605 37.0731 118.173 37.0633C117.77 37.06 117.325 37.2232 116.844 36.8185Z" fill="#123239"/>
<path d="M138.19 83.6494C134.205 86.7271 129.922 86.6129 126.798 83.4569C123.74 80.3726 123.402 74.9124 126.054 71.4986C128.979 67.7192 133.204 67.2557 138.333 70.2877C138.333 67.4907 138.447 64.7949 138.291 62.1284C138.193 60.415 139.178 60.663 140.205 60.6467C141.232 60.6304 142.116 60.4737 142.09 62.1545C141.979 69.2694 142.067 76.3844 142.005 83.4993C142.005 84.2402 142.815 85.5783 140.972 85.6076C138.456 85.6403 138.456 85.7023 138.19 83.6494ZM138.642 76.9555C138.612 73.9105 136.305 71.5541 133.341 71.5508C132.624 71.5401 131.912 71.6761 131.249 71.9503C130.586 72.2246 129.985 72.6315 129.483 73.1462C128.982 73.661 128.59 74.2728 128.331 74.9445C128.072 75.6162 127.952 76.3337 127.978 77.0534C128.017 80.1997 130.38 82.6442 133.357 82.6018C136.334 82.5593 138.668 80.0756 138.642 76.9555Z" fill="#123239"/>
<path d="M127.805 0.294046C131 0.294046 134.198 0.37238 137.386 0.25815C138.797 0.209194 138.986 0.737918 138.839 1.94223C137.994 9.01799 129.895 13.6003 123.395 10.6596C119.466 8.88091 117.278 5.82932 116.703 1.56037C116.567 0.548618 116.862 0.254883 117.896 0.254883C121.198 0.336476 124.503 0.294046 127.805 0.294046Z" fill="#123239"/>
<path d="M71.5269 82.0275C75.2678 82.0275 78.7193 82.096 82.1676 81.9916C83.4449 81.9524 83.6887 82.3637 83.6367 83.5321C83.5489 85.6241 83.6367 85.6274 81.4559 85.6274C77.1788 85.6274 72.9017 85.5686 68.6246 85.6633C67.3506 85.6894 67.1134 85.2749 67.1264 84.1065C67.1002 82.9188 67.4495 81.7534 68.1241 80.7775C71.5204 75.8134 74.8485 70.8036 78.1993 65.8035C78.4886 65.3695 78.8981 64.9909 78.9631 64.2696C75.6903 64.2696 72.463 64.1913 69.2292 64.3022C67.8349 64.3512 67.4514 63.9008 67.5846 62.579C67.6919 61.5248 67.3116 60.5163 69.1414 60.5848C73.5192 60.7513 77.9166 60.6664 82.2944 60.6207C83.3182 60.6207 83.6724 60.8427 83.6919 61.9589C83.7342 63.3031 83.3332 64.6237 82.5511 65.7154C78.8916 71.0288 75.3198 76.3943 71.5269 82.0275Z" fill="#123239"/>
<path d="M214.014 86.0223C211.134 86.006 208.313 84.769 206.025 82.2625C205.447 81.6293 205.408 81.2116 206.168 80.784C206.306 80.6967 206.436 80.5985 206.558 80.4903C208.388 79.0608 208.385 79.064 210.081 80.6763C210.817 81.4043 211.721 81.9388 212.712 82.2325C213.703 82.5263 214.75 82.5702 215.762 82.3604C216.565 82.2264 217.308 81.8476 217.889 81.2754C218.471 80.7033 218.863 79.9654 219.012 79.1619C219.285 77.6704 218.626 76.3486 216.871 75.5718C214.859 74.6645 212.704 74.0803 210.695 73.1795C207.241 71.639 205.869 68.9041 206.75 65.5979C207.312 63.4993 208.758 62.1514 210.634 61.2604C214.095 59.6286 219.1 60.6077 221.791 63.3329C222.405 63.953 222.483 64.3577 221.677 64.8048C221.345 64.99 221.036 65.2146 220.758 65.4739C219.994 66.1854 219.484 66.3649 218.593 65.3825C217.053 63.6756 214.963 63.372 212.772 64.0411C212.137 64.2017 211.566 64.5562 211.139 65.056C210.713 65.5558 210.451 66.1761 210.39 66.8316C210.208 68.2676 210.985 69.2924 212.178 69.8375C214.336 70.8166 216.611 71.5444 218.759 72.5398C222.152 74.113 223.559 76.9034 222.763 80.1509C221.853 83.8552 218.691 86.1104 214.014 86.0223Z" fill="#123239"/>
<path d="M153.839 37.0694C150.589 37.0694 147.339 36.9911 144.112 37.1086C142.753 37.1576 142.613 36.6386 142.769 35.5224C143.173 32.8047 144.549 30.3277 146.639 28.5548C148.73 26.7818 151.392 25.8343 154.127 25.8895C156.863 25.9447 159.485 26.9988 161.503 28.8547C163.521 30.7105 164.796 33.241 165.091 35.9728C165.201 37.0629 164.691 37.0858 163.892 37.0825C160.541 37.0433 157.19 37.0694 153.839 37.0694Z" fill="#123239"/>
<path d="M95.7537 78.3003C93.7517 78.3003 91.7464 78.3264 89.7444 78.3003C88.7694 78.2807 88.6719 78.6267 89.0196 79.4655C90.5049 83.0556 95.783 83.7932 98.3765 80.7481C98.6853 80.3826 98.773 79.5307 99.5011 79.8506C100.353 80.1911 101.142 80.6733 101.835 81.2769C102.218 81.6424 101.601 82.1515 101.321 82.504C98.8738 85.6111 95.6172 86.4727 91.8959 85.6861C88.2331 84.9126 86.0718 82.5171 85.3308 78.8813C84.8881 76.6741 85.2948 74.3805 86.469 72.4625C87.6432 70.5445 89.4976 69.1447 91.6587 68.5451C96.1177 67.2853 100.678 69.5535 102.221 73.7931C102.241 73.8453 102.267 73.8943 102.283 73.9433C103.551 77.6606 103.112 78.3101 99.3288 78.3101L95.7537 78.3003ZM93.9825 75.2292C95.3345 75.2292 96.6865 75.1998 98.0385 75.2292C98.968 75.2553 99.0135 74.9028 98.6885 74.1554C97.9475 72.4485 96.251 71.4171 94.0962 71.4367C91.9967 71.4563 89.8419 72.7422 89.1984 74.3447C88.9579 74.9485 89.0359 75.2422 89.7736 75.2259C91.1744 75.2096 92.5817 75.2292 93.9825 75.2292Z" fill="#123239"/>
<path d="M273.784 78.3004C271.782 78.3004 269.784 78.3232 267.785 78.3004C266.917 78.3004 266.761 78.5484 267.099 79.348C267.432 80.2128 267.993 80.97 268.723 81.5382C269.453 82.1064 270.323 82.464 271.24 82.5726C273.362 82.8989 275.26 82.3441 276.566 80.5686C277.873 78.7932 278.669 80.6568 279.563 81.006C280.824 81.5021 279.615 82.1842 279.332 82.5758C277.057 85.7286 272.335 86.8611 268.503 85.2651C266.751 84.5101 265.297 83.1956 264.365 81.5254C263.434 79.8553 263.078 77.9231 263.352 76.0288C263.907 71.9557 267.001 68.7474 270.788 68.3264C275.263 67.8271 278.861 69.8636 280.288 73.6952C280.346 73.8486 280.424 73.9922 280.473 74.1489C281.558 77.739 281.152 78.3102 277.515 78.3102L273.784 78.3004ZM277.099 75.1639C276.449 72.6149 274.886 71.427 272.309 71.4498C269.732 71.4727 267.837 72.8663 267.268 75.1639H277.099Z" fill="#123239"/>
<path d="M50.5827 78.3002C48.6327 78.3002 46.6827 78.3459 44.7326 78.3002C43.5463 78.261 43.4846 78.6755 43.9201 79.6253C45.5451 83.1762 50.6542 83.7408 53.29 80.637C54.0635 79.7297 55.1556 79.8472 56.4231 81.0254C57.2713 81.812 56.3158 82.2885 55.9811 82.7193C53.6865 85.6958 49.3542 86.763 45.5614 85.3466C41.9571 84.0052 39.916 80.8035 40.0363 76.6847C40.0978 74.8274 40.7487 73.0384 41.8941 71.5788C43.0394 70.1192 44.6193 69.0654 46.4031 68.571C50.027 67.4973 53.9498 68.8028 56.0526 71.7956C57.2161 73.4536 57.6289 75.3204 57.6321 77.3276C57.6321 78.1533 57.3071 78.3263 56.5823 78.3067C54.5835 78.2741 52.5815 78.3002 50.5827 78.3002ZM48.7854 75.229C50.0855 75.229 51.3855 75.1768 52.6855 75.229C53.9855 75.2812 53.8913 74.7917 53.4135 73.9235C52.419 72.0893 50.8135 71.4039 48.8439 71.4496C47.8636 71.4342 46.8985 71.694 46.0573 72.1997C45.2161 72.7054 44.5322 73.437 44.0826 74.3119C43.6893 75.0202 43.9851 75.2584 44.7326 75.2388C46.0814 75.2062 47.4334 75.229 48.7854 75.229Z" fill="#123239"/>
<path d="M155.544 78.3001C153.542 78.3001 151.537 78.3262 149.535 78.3001C148.56 78.3001 148.459 78.5971 148.807 79.462C150.246 83.0521 155.56 83.7864 158.16 80.7511C158.466 80.3954 158.527 79.524 159.272 79.8504C160.113 80.2153 160.903 80.6893 161.622 81.2603C161.947 81.5214 161.488 81.9359 161.297 82.2394C159.444 85.1082 155.528 86.5573 151.842 85.7512C148.157 84.945 145.576 82.2427 145.059 78.571C144.481 74.4783 146.606 70.5194 150.214 68.9626C153.925 67.3634 158.407 68.4567 160.773 71.5344C162.073 73.2413 162.538 75.2093 162.584 77.3242C162.603 78.1271 162.324 78.3491 161.56 78.3327C159.554 78.2707 157.549 78.3001 155.544 78.3001ZM153.763 75.2322C155.063 75.2322 156.363 75.1832 157.663 75.2322C158.755 75.2877 158.862 74.9058 158.404 74.0246C157.409 72.1088 155.778 71.3908 153.727 71.4398C151.602 71.492 150.025 72.4907 148.992 74.3412C148.686 74.8895 148.8 75.242 149.548 75.2257C150.948 75.2093 152.356 75.2289 153.763 75.2289V75.2322Z" fill="#123239"/>
<path d="M185.544 76.6259C187.348 74.635 189.347 72.7877 190.894 70.6141C192.519 68.3295 194.583 68.3948 197.069 68.7309C195.135 70.8915 193.312 73.0032 191.394 75.0234C190.728 75.7251 190.744 76.1559 191.29 76.9164C193.322 79.7068 195.268 82.5561 197.417 85.624C196.117 85.624 195.067 85.575 194.02 85.624C193.328 85.6664 193.078 85.216 192.772 84.7787L188.115 78.1664C185.989 79.7232 184.68 81.6227 185.19 84.3674C185.385 85.389 184.917 85.637 183.935 85.6272C181.586 85.6011 181.582 85.6533 181.582 83.3622C181.582 76.355 181.631 69.3478 181.543 62.3438C181.527 60.9078 181.982 60.5945 183.269 60.712C184.322 60.8131 185.307 60.4607 185.245 62.2786C185.089 66.9914 185.193 71.7107 185.193 76.4268L185.544 76.6259Z" fill="#123239"/>
<path d="M25.0498 70.5099C26.3986 69.3415 27.5621 68.5777 28.9921 68.3558C33.5422 67.6541 36.9158 70.314 37.1173 74.9583C37.2505 78.1568 37.1173 81.3683 37.1953 84.5733C37.1953 85.4577 36.906 85.7449 36.087 85.6242C35.9788 85.6175 35.8702 85.6175 35.762 85.6242C33.5227 85.6242 33.5259 85.6242 33.5227 83.4505C33.5227 80.9505 33.5714 78.4505 33.4934 75.944C33.4057 73.271 32.3104 71.8545 30.2759 71.5379C27.3508 71.0843 25.196 72.8761 25.1278 75.9113C25.0628 78.7345 25.0595 81.5608 25.1278 84.397C25.1538 85.4186 24.8678 85.7874 23.87 85.634C23.4942 85.5752 23.1116 85.5752 22.7357 85.634C21.6632 85.8037 21.3902 85.3631 21.4 84.3056C21.452 78.8715 21.426 73.4407 21.426 68.0066C21.426 66.1038 21.5202 64.1978 21.3935 62.3049C21.2992 60.9472 21.829 60.7677 23.0185 60.7154C24.572 60.6502 25.2155 60.9602 25.0855 62.7161C24.9133 65.19 25.0498 67.6868 25.0498 70.5099Z" fill="#123239"/>
<path d="M238.057 83.4537C236.052 85.3695 234.268 86.0647 232.145 85.9635C228.84 85.8068 226.344 83.7148 225.934 80.4511C225.476 76.7794 225.837 73.0751 225.733 69.3871C225.713 68.6984 226.058 68.6299 226.627 68.5842C229.448 68.3655 229.438 68.3492 229.448 71.1952C229.448 73.6919 229.425 76.1887 229.503 78.6854C229.581 81.1822 230.904 82.5692 233.078 82.7357C235.525 82.925 237.28 81.6456 237.68 79.1684C238.164 76.1528 237.914 73.0979 237.83 70.0692C237.781 68.3981 238.642 68.5581 239.682 68.5972C240.657 68.6364 241.632 68.2709 241.574 70.03C241.424 74.7493 241.463 79.4785 241.574 84.2011C241.6 85.5066 241.154 85.8036 240.027 85.6371C238.974 85.4772 237.277 86.3258 238.057 83.4537Z" fill="#123239"/>
<path d="M109.332 70.5362C110.703 69.2568 112.143 68.4605 113.882 68.3365C118.302 68.0101 121.282 70.6211 121.451 75.0924C121.575 78.2941 121.451 81.5056 121.493 84.7106C121.493 85.5755 121.204 85.8039 120.372 85.8268C117.863 85.892 117.876 85.9312 117.86 83.3431C117.843 80.6831 117.86 78.0199 117.743 75.3633C117.629 72.9873 116.335 71.6981 114.168 71.5219C111.847 71.3358 110.076 72.501 109.618 74.7464C109.016 77.6413 109.491 80.595 109.351 83.5193C109.315 84.1982 109.676 85.2785 109.127 85.4776C108.207 85.8039 107.102 85.644 106.082 85.595C105.519 85.5657 105.718 85.0141 105.718 84.6812C105.718 79.629 105.718 74.5636 105.695 69.5245C105.695 68.8423 105.844 68.4899 106.585 68.5878C106.854 68.6254 107.126 68.6254 107.395 68.5878C108.834 68.3495 109.705 68.7183 109.332 70.5362Z" fill="#123239"/>
<path d="M171.592 68.2705C173.997 68.2705 176.012 68.8286 177.696 70.4083C178.505 71.1622 178.703 71.5995 177.511 72.2294C176.318 72.8593 175.577 73.2607 174.374 72.1087C173.24 71.0251 171.573 71.0773 170.071 71.6354C169.317 71.9161 168.771 72.4807 168.771 73.3325C168.771 74.1844 169.46 74.5205 170.13 74.7555C172.06 75.4409 174.15 75.5813 176.019 76.4722C179.149 77.9605 179.789 81.4592 177.41 83.9951C176.068 85.4246 174.365 86.0088 172.467 86.0741C169.61 86.1688 166.997 85.5519 164.991 83.2934C164.341 82.5656 164.088 81.9553 165.284 81.5408C165.639 81.4081 165.974 81.2281 166.282 81.0056C167.032 80.4703 167.533 80.4018 168.254 81.2634C169.554 82.8169 171.404 83.0748 173.302 82.6407C174.277 82.4155 175.167 81.8411 175.193 80.6825C175.219 79.625 174.368 79.2529 173.484 79.031C172.281 78.7308 171.072 78.4533 169.873 78.1498C166.392 77.2653 164.913 75.6367 165.154 72.9605C165.378 70.4572 167.822 68.4957 170.962 68.2999L171.592 68.2705Z" fill="#123239"/>
<path d="M7.78791 74.789C7.78791 71.6362 7.75541 68.4834 7.78791 65.3241C7.78791 64.4005 7.52465 64.0872 6.59514 64.1264C4.97011 64.1916 3.34507 64.0644 1.72004 64.1655C0.264018 64.2569 0.647526 63.2484 0.706027 62.5532C0.764528 61.8581 0.0560156 60.7256 1.68105 60.7419C6.93314 60.7908 12.182 60.768 17.4341 60.7419C18.0841 60.7419 18.3668 60.879 18.4091 61.6296C18.5684 64.1394 18.6074 64.1231 16.1341 64.1427C14.626 64.1427 12.6207 63.6368 11.7465 64.4005C10.7325 65.2915 11.4475 67.3607 11.4215 68.911C11.3792 74.0187 11.324 79.1297 11.4475 84.2505C11.493 86.0521 10.4237 85.5821 9.49744 85.6213C8.57117 85.6604 7.6319 85.8823 7.71315 84.2407C7.89841 81.1042 7.78791 77.9384 7.78791 74.789Z" fill="#123239"/>
<path d="M257.952 62.8467C257.952 64.1228 258.062 65.3663 257.922 66.5804C257.731 68.2514 258.273 68.9694 259.983 68.6528C261.208 68.4277 261.608 68.8846 261.631 70.1998C261.666 71.6718 261.224 72.1907 259.827 71.9231C258.257 71.6196 257.786 72.2495 257.916 73.8226C258.075 75.7645 257.987 77.7391 257.997 79.681C257.997 81.2312 258.647 82.1516 260.314 82.1451C262.511 82.1451 261.367 83.8194 261.54 84.7561C261.787 86.1072 260.662 85.6732 260.025 85.6569C256.008 85.5557 254.464 84.0837 254.263 80.0367C254.152 77.8174 254.172 75.585 254.263 73.3624C254.299 72.2886 254.1 71.6946 252.895 71.9198C251.617 72.1613 251.25 71.6228 251.292 70.3467C251.335 69.1783 251.331 68.3004 252.875 68.5745C253.808 68.741 254.308 68.519 254.295 67.3278C254.25 64.162 254.438 64.0118 257.952 62.8467Z" fill="#123239"/>
<path d="M244.953 77.0474V70.8464C244.953 68.4965 244.953 68.503 247.468 68.5846C248.066 68.6042 248.641 68.4834 248.635 69.4462C248.606 74.5507 248.615 79.6552 248.635 84.7629C248.635 85.3765 248.459 85.6669 247.813 85.6245C247.272 85.5688 246.728 85.5688 246.188 85.6245C245.17 85.7648 244.888 85.3634 244.93 84.3647C245.001 81.9365 244.953 79.492 244.953 77.0474Z" fill="#123239"/>
<path d="M246.798 65.9768C246.475 65.9827 246.154 65.9227 245.856 65.8003C245.557 65.6779 245.286 65.4958 245.06 65.265C244.833 65.0342 244.656 64.7595 244.538 64.4577C244.421 64.1559 244.366 63.8333 244.376 63.5094C244.376 61.9657 245.351 60.9865 246.892 61.0224C247.213 61.0271 247.531 61.0955 247.826 61.2236C248.121 61.3517 248.387 61.5371 248.611 61.7691C248.834 62.0011 249.01 62.2751 249.128 62.5754C249.245 62.8758 249.303 63.1965 249.297 63.5192C249.264 64.1694 248.989 64.7835 248.526 65.239C248.063 65.6944 247.446 65.9579 246.798 65.9768Z" fill="#123239"/>
</g>
<defs>
<clipPath id="clip0_8_9684">
<rect width="280.376" height="85.8294" fill="white" transform="translate(0.625 0.254883)"/>
</clipPath>
</defs>
</svg>
