<svg width="22" height="30" viewBox="0 0 22 30" fill="none" xmlns="http://www.w3.org/2000/svg">
<g clip-path="url(#clip0_1295_622)">
<path d="M4.50488 0.582031H8.84082L11.8096 7.10547H8.46972L4.50488 0.582031ZM0.500977 19.6445C0.500977 14.0586 4.50488 9.85938 10.1885 9.85938C15.6572 9.85938 19.2119 13.9219 19.2119 18.9414C19.2119 19.5273 19.1729 20.1328 19.0557 20.7383H4.50488C4.68066 23.5508 7.083 25.7578 10.3252 25.7578C12.669 25.7578 14.544 24.7617 15.9502 22.5547L18.8018 24.625C17.0635 27.75 13.6455 29.3906 10.3252 29.3906C4.66113 29.3906 0.500977 25.2109 0.500977 19.6445ZM10.1494 13.3555C7.27832 13.3555 5.09082 15.2109 4.60254 17.8477H15.2861C15.0518 15.2109 12.8447 13.3555 10.1494 13.3555ZM30.8533 19.5273C30.8533 13.7656 34.9354 9.85938 40.2674 9.85938C43.451 9.85938 45.5604 11.0312 46.9471 12.8086V1.5H50.8143V29H46.9471V26.4414C45.5604 28.2188 43.451 29.3906 40.2674 29.3906C34.9354 29.3906 30.8533 25.2891 30.8533 19.5273ZM40.7361 13.3359C37.1229 13.3359 34.7205 16.0703 34.7205 19.5273C34.7205 22.9844 37.1229 25.9141 40.7361 25.9141C44.3494 25.9141 46.9275 22.9844 46.9275 19.5273C46.9275 16.0703 44.3299 13.3359 40.7361 13.3359ZM55.9221 3.96094C55.9221 2.55469 56.8986 1.57812 58.3049 1.57812C59.7111 1.57812 60.7072 2.55469 60.7072 3.96094C60.7072 5.36719 59.7111 6.34375 58.3049 6.34375C56.8986 6.34375 55.9221 5.36719 55.9221 3.96094ZM60.2385 29H56.3713V10.25H60.2385V29ZM73.9205 29.3906C68.5885 29.3906 64.5065 25.2891 64.5065 19.5273C64.5065 13.7656 68.5885 9.85938 73.9205 9.85938C77.1041 9.85938 79.2135 11.0312 80.6002 12.8086V10.25H84.4674V27.5352C84.4674 33.4336 80.4635 37.2031 74.1549 37.2031C70.7174 37.2031 67.5338 35.7578 65.3854 33.1797L67.9244 30.6602C69.7018 32.5938 71.7135 33.6875 74.233 33.6875C78.0807 33.6875 80.6002 31.4414 80.6002 28.0234V26.4414C79.2916 28.1406 77.1041 29.3906 73.9205 29.3906ZM74.3893 13.3359C70.776 13.3359 68.3736 16.0703 68.3736 19.5273C68.3736 22.9844 70.776 25.9141 74.3893 25.9141C78.0025 25.9141 80.5807 22.9844 80.5807 19.5273C80.5807 16.0703 77.983 13.3359 74.3893 13.3359ZM89.4971 3.96094C89.4971 2.55469 90.4736 1.57812 91.8799 1.57812C93.2861 1.57812 94.2822 2.55469 94.2822 3.96094C94.2822 5.36719 93.2861 6.34375 91.8799 6.34375C90.4736 6.34375 89.4971 5.36719 89.4971 3.96094ZM93.8135 29H89.9463V10.25H93.8135V29ZM100.484 13.5312H97.144V10.25H100.542V4.23438H104.312V10.25H110.269V13.5312H104.351V22.9062C104.351 24.8984 105.503 25.8945 107.417 25.8945C108.316 25.8945 109.546 25.6406 110.464 25.25L110.972 28.5703C110.035 29.0586 108.375 29.3906 106.871 29.3906C102.945 29.3906 100.484 27.1836 100.484 23.375V13.5312ZM112.975 23.668C112.975 20.1523 116.334 17.7305 121.256 17.7305C123.502 17.7305 125.123 18.1992 125.982 18.6094V17.5938C125.982 15.25 124.088 13.4922 121.178 13.4922C118.853 13.4922 116.92 14.8203 115.807 16.0898L113.365 13.668C114.81 11.832 117.818 9.85938 121.236 9.85938C126.51 9.85938 129.85 12.7109 129.85 17.2617V29H126.06V26.5781C124.908 28.3359 122.74 29.3906 120.221 29.3906C116.158 29.3906 112.975 27.3398 112.975 23.668ZM116.881 23.5312C116.881 25.2305 118.58 26.2266 120.787 26.2266C123.834 26.2266 125.982 24.1367 125.982 21.5781C125.182 21.168 123.385 20.6797 121.353 20.6797C118.912 20.6797 116.881 21.5 116.881 23.5312ZM139.02 1.5V29H135.153V1.5H139.02ZM143.19 19.6445C143.19 14.0586 147.194 9.85938 152.878 9.85938C158.346 9.85938 161.901 13.9219 161.901 18.9414C161.901 19.5273 161.862 20.1328 161.745 20.7383H147.194C147.37 23.5508 149.772 25.7578 153.014 25.7578C155.358 25.7578 157.233 24.7617 158.639 22.5547L161.491 24.625C159.753 27.75 156.335 29.3906 153.014 29.3906C147.35 29.3906 143.19 25.2109 143.19 19.6445ZM147.292 17.8477H157.975C157.741 15.2109 155.534 13.3555 152.839 13.3555C149.967 13.3555 147.78 15.2109 147.292 17.8477Z" fill="#EDFAFB"/>
</g>
<defs>
<clipPath id="clip0_1295_622">
<rect width="22" height="30" fill="white"/>
</clipPath>
</defs>
</svg>
