<svg width="46" height="44" viewBox="0 0 46 44" fill="none" xmlns="http://www.w3.org/2000/svg">
<g opacity="0.5">
<path d="M21.5374 33.9811L11.9161 43.4328C11.7341 43.6118 11.5179 43.7539 11.2799 43.8507C11.042 43.9476 10.7869 43.9975 10.5293 43.9975C10.2717 43.9975 10.0166 43.9476 9.77869 43.8508C9.54073 43.7539 9.32454 43.6118 9.14248 43.4328L1.19168 35.6389C1.00798 35.4608 0.862116 35.2487 0.762558 35.0149C0.663001 34.781 0.611732 34.53 0.611732 34.2765C0.611732 34.023 0.663 33.772 0.762558 33.5381C0.862116 33.3043 1.00798 33.0922 1.19168 32.9141L21.5374 12.9269C21.7186 12.7468 21.9344 12.6038 22.1722 12.5062C22.4101 12.4087 22.6653 12.3584 22.9231 12.3584C23.1808 12.3584 23.436 12.4087 23.6739 12.5062C23.9117 12.6038 24.1275 12.7468 24.3087 12.9269L44.6544 32.9141C44.8381 33.0921 44.984 33.3043 45.0836 33.5381C45.1831 33.772 45.2344 34.023 45.2344 34.2765C45.2344 34.53 45.1831 34.781 45.0836 35.0148C44.984 35.2487 44.8381 35.4608 44.6544 35.6389L36.7061 43.4352C36.524 43.6142 36.3078 43.7562 36.0699 43.8531C35.8319 43.95 35.5768 43.9999 35.3192 43.9999C35.0617 43.9999 34.8066 43.95 34.5686 43.8531C34.3307 43.7562 34.1145 43.6142 33.9324 43.4352L24.3087 33.9811C23.9411 33.6202 23.4427 33.4175 22.9231 33.4175C22.4034 33.4175 21.905 33.6202 21.5374 33.9811Z" fill="#EDFAFB"/>
<path d="M21.5374 33.9811L11.9161 43.4328C11.7341 43.6118 11.5179 43.7539 11.2799 43.8507C11.042 43.9476 10.7869 43.9975 10.5293 43.9975C10.2717 43.9975 10.0166 43.9476 9.77869 43.8508C9.54073 43.7539 9.32454 43.6118 9.14248 43.4328L1.19168 35.6389C1.00798 35.4608 0.862116 35.2487 0.762558 35.0149C0.663001 34.781 0.611732 34.53 0.611732 34.2765C0.611732 34.023 0.663 33.772 0.762558 33.5381C0.862116 33.3043 1.00798 33.0922 1.19168 32.9141L21.5374 12.9269C21.7186 12.7468 21.9344 12.6038 22.1722 12.5062C22.4101 12.4087 22.6653 12.3584 22.9231 12.3584C23.1808 12.3584 23.436 12.4087 23.6739 12.5062C23.9117 12.6038 24.1275 12.7468 24.3087 12.9269L44.6544 32.9141C44.8381 33.0921 44.984 33.3043 45.0836 33.5381C45.1831 33.772 45.2344 34.023 45.2344 34.2765C45.2344 34.53 45.1831 34.781 45.0836 35.0148C44.984 35.2487 44.8381 35.4608 44.6544 35.6389L36.7061 43.4352C36.524 43.6142 36.3078 43.7562 36.0699 43.8531C35.8319 43.95 35.5768 43.9999 35.3192 43.9999C35.0617 43.9999 34.8066 43.95 34.5686 43.8531C34.3307 43.7562 34.1145 43.6142 33.9324 43.4352L24.3087 33.9811C23.9411 33.6202 23.4427 33.4175 22.9231 33.4175C22.4034 33.4175 21.905 33.6202 21.5374 33.9811Z" fill="#EDFAFB"/>
</g>
<path d="M21.5374 23.1756L11.9161 32.8697C11.7341 33.0533 11.5179 33.199 11.2799 33.2984C11.042 33.3978 10.7869 33.4489 10.5293 33.4489C10.2717 33.4489 10.0166 33.3978 9.77869 33.2984C9.54073 33.199 9.32454 33.0533 9.14248 32.8697L1.19168 24.876C1.00798 24.6934 0.862116 24.4758 0.762558 24.2359C0.663001 23.9961 0.611732 23.7386 0.611732 23.4786C0.611732 23.2186 0.663001 22.9612 0.762558 22.7214C0.862116 22.4815 1.00798 22.2639 1.19168 22.0813L21.5374 1.58163C21.7186 1.39691 21.9344 1.25026 22.1722 1.15017C22.4101 1.05008 22.6653 0.998538 22.9231 0.998538C23.1808 0.998538 23.436 1.05008 23.6739 1.15017C23.9117 1.25026 24.1275 1.39691 24.3087 1.58163L44.6544 22.0813C44.8381 22.2639 44.984 22.4815 45.0836 22.7213C45.1831 22.9612 45.2344 23.2186 45.2344 23.4786C45.2344 23.7386 45.1831 23.996 45.0836 24.2359C44.984 24.4758 44.8381 24.6933 44.6544 24.876L36.7061 32.8722C36.524 33.0558 36.3078 33.2015 36.0699 33.3008C35.8319 33.4002 35.5768 33.4514 35.3192 33.4514C35.0617 33.4514 34.8066 33.4002 34.5686 33.3008C34.3307 33.2015 34.1145 33.0558 33.9324 32.8722L24.3087 23.1756C23.9411 22.8055 23.4427 22.5977 22.9231 22.5977C22.4034 22.5977 21.905 22.8055 21.5374 23.1756Z" fill="#EDFAFB"/>
<path d="M21.5374 23.1756L11.9161 32.8697C11.7341 33.0533 11.5179 33.199 11.2799 33.2984C11.042 33.3978 10.7869 33.4489 10.5293 33.4489C10.2717 33.4489 10.0166 33.3978 9.77869 33.2984C9.54073 33.199 9.32454 33.0533 9.14248 32.8697L1.19168 24.876C1.00798 24.6934 0.862116 24.4758 0.762558 24.2359C0.663001 23.9961 0.611732 23.7386 0.611732 23.4786C0.611732 23.2186 0.663001 22.9612 0.762558 22.7214C0.862116 22.4815 1.00798 22.2639 1.19168 22.0813L21.5374 1.58163C21.7186 1.39691 21.9344 1.25026 22.1722 1.15017C22.4101 1.05008 22.6653 0.998538 22.9231 0.998538C23.1808 0.998538 23.436 1.05008 23.6739 1.15017C23.9117 1.25026 24.1275 1.39691 24.3087 1.58163L44.6544 22.0813C44.8381 22.2639 44.984 22.4815 45.0836 22.7213C45.1831 22.9612 45.2344 23.2186 45.2344 23.4786C45.2344 23.7386 45.1831 23.996 45.0836 24.2359C44.984 24.4758 44.8381 24.6933 44.6544 24.876L36.7061 32.8722C36.524 33.0558 36.3078 33.2015 36.0699 33.3008C35.8319 33.4002 35.5768 33.4514 35.3192 33.4514C35.0617 33.4514 34.8066 33.4002 34.5686 33.3008C34.3307 33.2015 34.1145 33.0558 33.9324 32.8722L24.3087 23.1756C23.9411 22.8055 23.4427 22.5977 22.9231 22.5977C22.4034 22.5977 21.905 22.8055 21.5374 23.1756Z" fill="#EDFAFB"/>
</svg>
