<svg width="603" height="581" viewBox="0 0 603 581" fill="none" xmlns="http://www.w3.org/2000/svg">
<path opacity="0.5" d="M283.235 445.776L153.462 573.263C151.006 575.677 148.09 577.593 144.881 578.9C141.671 580.207 138.231 580.879 134.756 580.879C131.282 580.879 127.842 580.207 124.632 578.9C121.422 577.593 118.506 575.677 116.051 573.263L8.80972 468.137C6.33196 465.736 4.36452 462.875 3.02168 459.72C1.67884 456.566 0.987319 453.181 0.987319 449.761C0.987318 446.342 1.67884 442.957 3.02168 439.802C4.36452 436.648 6.33196 433.787 8.80972 431.385L283.235 161.796C285.679 159.367 288.589 157.438 291.798 156.122C295.006 154.806 298.448 154.128 301.924 154.128C305.401 154.128 308.843 154.806 312.051 156.122C315.259 157.438 318.17 159.367 320.614 161.796L595.039 431.385C597.517 433.787 599.484 436.648 600.827 439.802C602.17 442.957 602.862 446.342 602.862 449.761C602.862 453.181 602.17 456.566 600.827 459.72C599.484 462.875 597.517 465.736 595.039 468.137L487.831 573.295C485.375 575.71 482.459 577.625 479.25 578.932C476.04 580.239 472.6 580.912 469.125 580.912C465.651 580.912 462.211 580.239 459.001 578.932C455.791 577.625 452.875 575.71 450.42 573.295L320.614 445.776C315.656 440.91 308.933 438.176 301.924 438.176C294.915 438.176 288.193 440.91 283.235 445.776Z" fill="#7EE49C"/>
<path d="M283.235 300.064L153.462 430.819C151.006 433.295 148.09 435.26 144.881 436.6C141.671 437.941 138.231 438.631 134.756 438.631C131.282 438.631 127.842 437.941 124.632 436.6C121.422 435.26 118.506 433.295 116.051 430.819L8.80972 322.998C6.33196 320.535 4.36452 317.601 3.02168 314.365C1.67884 311.13 0.98732 307.658 0.987319 304.151C0.987319 300.644 1.67884 297.172 3.02168 293.936C4.36452 290.701 6.33196 287.767 8.80972 285.304L283.235 8.80196C285.679 6.31047 288.589 4.3324 291.798 2.98237C295.006 1.63233 298.448 0.937175 301.924 0.937174C305.401 0.937174 308.843 1.63233 312.051 2.98236C315.259 4.3324 318.17 6.31047 320.614 8.80196L595.039 285.304C597.517 287.767 599.484 290.701 600.827 293.936C602.17 297.172 602.862 300.644 602.862 304.151C602.862 307.658 602.17 311.13 600.827 314.365C599.484 317.601 597.517 320.535 595.039 322.998L487.831 430.852C485.375 433.328 482.459 435.293 479.25 436.633C476.04 437.974 472.6 438.664 469.125 438.664C465.651 438.664 462.211 437.974 459.001 436.633C455.791 435.293 452.875 433.328 450.42 430.852L320.614 300.064C315.656 295.072 308.933 292.268 301.924 292.268C294.915 292.268 288.193 295.072 283.235 300.064Z" fill="#7EE49C"/>
</svg>
