<svg width="1731" height="1258" viewBox="0 0 1731 1258" fill="none" xmlns="http://www.w3.org/2000/svg">
<path d="M811.783 859.843L438.784 1235.45C431.726 1242.57 423.345 1248.21 414.119 1252.06C404.894 1255.91 395.006 1257.9 385.02 1257.9C375.033 1257.9 365.145 1255.91 355.92 1252.06C346.694 1248.21 338.313 1242.57 331.255 1235.45L23.0191 925.725C15.8974 918.649 10.2426 910.22 6.38291 900.926C2.52327 891.631 0.5356 881.658 0.535601 871.584C0.535601 861.509 2.52327 851.536 6.38292 842.241C10.2426 832.947 15.8974 824.518 23.0191 817.443L811.783 23.1532C818.807 15.996 827.172 10.3138 836.393 6.4356C845.614 2.55744 855.507 0.560509 865.5 0.560509C875.493 0.56051 885.386 2.55744 894.607 6.4356C903.828 10.3138 912.193 15.996 919.217 23.1532L1707.98 817.443C1715.1 824.518 1720.76 832.947 1724.62 842.241C1728.48 851.536 1730.46 861.51 1730.46 871.584C1730.46 881.658 1728.48 891.632 1724.62 900.926C1720.76 910.22 1715.1 918.649 1707.98 925.725L1399.84 1235.55C1392.78 1242.66 1384.4 1248.31 1375.17 1252.16C1365.95 1256.01 1356.06 1257.99 1346.07 1257.99C1336.09 1257.99 1326.2 1256.01 1316.97 1252.16C1307.75 1248.31 1299.37 1242.66 1292.31 1235.55L919.217 859.843C904.966 845.504 885.645 837.449 865.5 837.449C845.354 837.449 826.033 845.504 811.783 859.843Z" fill="#7EE49C"/>
</svg>
