<svg width="1119" height="814" viewBox="0 0 1119 814" fill="none" xmlns="http://www.w3.org/2000/svg">
<path d="M520.851 552.382L520.849 552.384L279.576 795.537L279.574 795.539C275.517 799.631 270.702 802.875 265.406 805.088C260.109 807.3 254.433 808.439 248.702 808.439C242.972 808.439 237.296 807.3 231.999 805.088C226.703 802.875 221.888 799.631 217.831 795.539L217.825 795.533L18.4433 595.029L18.4322 595.017L18.4211 595.006C14.3312 590.94 11.0813 586.093 8.86228 580.745C6.64329 575.397 5.49998 569.657 5.49998 563.858C5.49998 558.059 6.64329 552.319 8.86228 546.972C11.0813 541.624 14.3312 536.777 18.4211 532.71L18.4344 532.697L18.4475 532.684L528.657 18.4994L528.669 18.4879L528.68 18.4763C532.714 14.3627 537.516 11.0991 542.806 8.87247C548.096 6.6459 553.77 5.49998 559.5 5.49998C565.23 5.49998 570.904 6.6459 576.194 8.87247C581.484 11.0991 586.286 14.3627 590.32 18.4764L590.331 18.4879L590.343 18.4994L1100.55 532.684L1100.57 532.697L1100.58 532.711C1104.67 536.777 1107.92 541.624 1110.14 546.972C1112.36 552.319 1113.5 558.06 1113.5 563.858C1113.5 569.657 1112.36 575.398 1110.14 580.745C1107.92 586.093 1104.67 590.94 1100.58 595.006L1100.57 595.018L1100.56 595.03L901.235 795.596L901.23 795.601C897.173 799.693 892.358 802.937 887.062 805.149C881.765 807.362 876.09 808.5 870.359 808.5C864.628 808.5 858.952 807.362 853.655 805.149C848.359 802.937 843.544 799.693 839.487 795.601L839.485 795.599L598.151 552.384L598.149 552.382C587.903 542.065 574.003 536.261 559.5 536.261C544.997 536.261 531.096 542.065 520.851 552.382Z" stroke="#7EE49C" stroke-opacity="0.49" stroke-width="11"/>
</svg>
